%TF.GenerationSoftware,Altium Limited,Altium Designer,24.10.1 (45)*%
G04 Layer_Color=0*
%FSLAX45Y45*%
%MOMM*%
%TF.SameCoordinates,FE7F3FAC-07A9-46B7-8817-9A63D08EFC34*%
%TF.FilePolarity,Positive*%
%TF.FileFunction,Plated,1,2,PTH,Drill*%
%TF.Part,Single*%
G01*
G75*
%TA.AperFunction,OtherDrill,Pad Free-3 (10.033mm,17.145mm)*%
%ADD33C,3.19999*%
%TA.AperFunction,OtherDrill,Pad Free-2 (114.046mm,119.634mm)*%
%ADD34C,3.19999*%
%TA.AperFunction,ComponentDrill*%
%ADD35C,1.30000*%
%ADD36C,1.10000*%
%ADD37C,1.10000*%
%ADD38C,1.30000*%
%ADD39C,2.15000*%
%ADD40C,0.75000*%
D33*
X1003300Y1714500D02*
D03*
D34*
X11404600Y11963400D02*
D03*
D35*
X1164400Y12039600D02*
D03*
X664400D02*
D03*
X7171500D02*
D03*
X6671500D02*
D03*
X8682800D02*
D03*
X8182800D02*
D03*
X2663000D02*
D03*
X2163001D02*
D03*
X4174300D02*
D03*
X3674300D02*
D03*
X5672899D02*
D03*
X5172901D02*
D03*
D36*
X9728200Y8775700D02*
D03*
X5245100Y482600D02*
D03*
X5143500Y5588000D02*
D03*
X9105900Y469900D02*
D03*
X8940800Y5626100D02*
D03*
D37*
X939800Y8750300D02*
D03*
D38*
X1155700Y762000D02*
D03*
X647700D02*
D03*
X11734800Y833501D02*
D03*
Y1333500D02*
D03*
D39*
X1981200Y2353600D02*
D03*
X965200D02*
D03*
X1993900Y4360200D02*
D03*
X977900D02*
D03*
X1993900Y5312700D02*
D03*
X977900D02*
D03*
X965200Y3399500D02*
D03*
X1981200D02*
D03*
X11137900Y2413000D02*
D03*
X12153900D02*
D03*
Y3429000D02*
D03*
X11137900D02*
D03*
X12115800Y4512600D02*
D03*
X11099800D02*
D03*
X12128500Y6743700D02*
D03*
X11112500D02*
D03*
Y8001000D02*
D03*
X12128500D02*
D03*
X12141200Y9029700D02*
D03*
X11125200D02*
D03*
D40*
X3306700Y482600D02*
D03*
X2306700D02*
D03*
X3281300Y1206500D02*
D03*
X2281300D02*
D03*
%TF.MD5,f7da7a3abfde218781105f19a4ed6648*%
M02*
