%TF.GenerationSoftware,Altium Limited,Altium Designer,24.10.1 (45)*%
G04 Layer_Color=8388736*
%FSLAX45Y45*%
%MOMM*%
%TF.SameCoordinates,FE7F3FAC-07A9-46B7-8817-9A63D08EFC34*%
%TF.FilePolarity,Negative*%
%TF.FileFunction,Soldermask,Top*%
%TF.Part,Single*%
G01*
G75*
%TA.AperFunction,ComponentPad*%
%ADD16C,3.25000*%
%ADD17R,3.25000X3.25000*%
%ADD18C,3.18000*%
%ADD19C,4.40000*%
%ADD20C,1.25000*%
%ADD21R,1.25000X1.25000*%
%TA.AperFunction,ViaPad*%
%ADD25C,1.72720*%
%TA.AperFunction,ComponentPad*%
G04:AMPARAMS|DCode=26|XSize=2.1532mm|YSize=2.1532mm|CornerRadius=0.5891mm|HoleSize=0mm|Usage=FLASHONLY|Rotation=180.000|XOffset=0mm|YOffset=0mm|HoleType=Round|Shape=RoundedRectangle|*
%AMROUNDEDRECTD26*
21,1,2.15320,0.97500,0,0,180.0*
21,1,0.97500,2.15320,0,0,180.0*
1,1,1.17820,-0.48750,0.48750*
1,1,1.17820,0.48750,0.48750*
1,1,1.17820,0.48750,-0.48750*
1,1,1.17820,-0.48750,-0.48750*
%
%ADD26ROUNDEDRECTD26*%
%ADD27C,2.15320*%
%ADD28C,1.80320*%
G04:AMPARAMS|DCode=29|XSize=2.1532mm|YSize=2.1532mm|CornerRadius=0.5891mm|HoleSize=0mm|Usage=FLASHONLY|Rotation=90.000|XOffset=0mm|YOffset=0mm|HoleType=Round|Shape=RoundedRectangle|*
%AMROUNDEDRECTD29*
21,1,2.15320,0.97500,0,0,90.0*
21,1,0.97500,2.15320,0,0,90.0*
1,1,1.17820,0.48750,0.48750*
1,1,1.17820,0.48750,-0.48750*
1,1,1.17820,-0.48750,-0.48750*
1,1,1.17820,-0.48750,0.48750*
%
%ADD29ROUNDEDRECTD29*%
D16*
X1981200Y2353600D02*
D03*
X1993900Y4360200D02*
D03*
Y5312700D02*
D03*
X965200Y3399500D02*
D03*
X11137900Y2413000D02*
D03*
X12153900Y3429000D02*
D03*
X12115800Y4512600D02*
D03*
X12128500Y6743700D02*
D03*
X11112500Y8001000D02*
D03*
X12141200Y9029700D02*
D03*
D17*
X965200Y2353600D02*
D03*
X977900Y4360200D02*
D03*
Y5312700D02*
D03*
X1981200Y3399500D02*
D03*
X12153900Y2413000D02*
D03*
X11137900Y3429000D02*
D03*
X11099800Y4512600D02*
D03*
X11112500Y6743700D02*
D03*
X12128500Y8001000D02*
D03*
X11125200Y9029700D02*
D03*
D18*
X7910700Y3922900D02*
D03*
X9894700Y2096900D02*
D03*
X6110100Y2109600D02*
D03*
X4126100Y3935600D02*
D03*
D19*
X7084000Y6874900D02*
D03*
X3584000D02*
D03*
X7084000Y10574900D02*
D03*
X3584000D02*
D03*
D20*
X3306700Y482600D02*
D03*
X3281300Y1206500D02*
D03*
D21*
X2306700Y482600D02*
D03*
X2281300Y1206500D02*
D03*
D25*
X1003300Y1714500D02*
D03*
X11404600Y11963400D02*
D03*
D26*
X1164400Y12039600D02*
D03*
X7171500D02*
D03*
X8682800D02*
D03*
X2663000D02*
D03*
X4174300D02*
D03*
X5672899D02*
D03*
D27*
X664400D02*
D03*
X1155700Y762000D02*
D03*
X647700D02*
D03*
X6671500Y12039600D02*
D03*
X8182800D02*
D03*
X2163001D02*
D03*
X3674300D02*
D03*
X5172901D02*
D03*
X11734800Y1333500D02*
D03*
D28*
X9728200Y8775700D02*
D03*
X5245100Y482600D02*
D03*
X5143500Y5588000D02*
D03*
X9105900Y469900D02*
D03*
X8940800Y5626100D02*
D03*
X939800Y8750300D02*
D03*
D29*
X11734800Y833501D02*
D03*
%TF.MD5,084b172efb97fb2803a2e563a861508f*%
M02*
