%TF.GenerationSoftware,Altium Limited,Altium Designer,24.10.1 (45)*%
G04 Layer_Physical_Order=1*
G04 Layer_Color=255*
%FSLAX45Y45*%
%MOMM*%
%TF.SameCoordinates,FE7F3FAC-07A9-46B7-8817-9A63D08EFC34*%
%TF.FilePolarity,Positive*%
%TF.FileFunction,Copper,L1,Top,Signal*%
%TF.Part,Single*%
G01*
G75*
%TA.AperFunction,Conductor*%
%ADD10C,1.27000*%
%TA.AperFunction,NonConductor*%
%ADD11C,0.25400*%
%TA.AperFunction,ViaPad*%
%ADD12C,1.52400*%
%TA.AperFunction,ComponentPad*%
G04:AMPARAMS|DCode=13|XSize=1.95mm|YSize=1.95mm|CornerRadius=0.4875mm|HoleSize=0mm|Usage=FLASHONLY|Rotation=180.000|XOffset=0mm|YOffset=0mm|HoleType=Round|Shape=RoundedRectangle|*
%AMROUNDEDRECTD13*
21,1,1.95000,0.97500,0,0,180.0*
21,1,0.97500,1.95000,0,0,180.0*
1,1,0.97500,-0.48750,0.48750*
1,1,0.97500,0.48750,0.48750*
1,1,0.97500,0.48750,-0.48750*
1,1,0.97500,-0.48750,-0.48750*
%
%ADD13ROUNDEDRECTD13*%
%ADD14C,1.95000*%
%ADD15C,1.60000*%
%ADD16C,3.25000*%
%ADD17R,3.25000X3.25000*%
%ADD18C,3.18000*%
%ADD19C,4.40000*%
%ADD20C,1.25000*%
%ADD21R,1.25000X1.25000*%
G04:AMPARAMS|DCode=22|XSize=1.95mm|YSize=1.95mm|CornerRadius=0.4875mm|HoleSize=0mm|Usage=FLASHONLY|Rotation=90.000|XOffset=0mm|YOffset=0mm|HoleType=Round|Shape=RoundedRectangle|*
%AMROUNDEDRECTD22*
21,1,1.95000,0.97500,0,0,90.0*
21,1,0.97500,1.95000,0,0,90.0*
1,1,0.97500,0.48750,0.48750*
1,1,0.97500,0.48750,-0.48750*
1,1,0.97500,-0.48750,-0.48750*
1,1,0.97500,-0.48750,0.48750*
%
%ADD22ROUNDEDRECTD22*%
D10*
X977900Y4360200D02*
Y5312700D01*
X11137900Y1430401D02*
X11734800Y833501D01*
X11137900Y1430401D02*
Y2413000D01*
X12153900D02*
Y3429000D01*
X11112500Y6743700D02*
Y8001000D01*
X12134850Y8007350D02*
Y9023350D01*
X12141200Y9029700D01*
X12128500Y8001000D02*
X12134850Y8007350D01*
X9105900Y469900D02*
X11371199D01*
X11734800Y833501D01*
X5245100Y482600D02*
X5251414Y476286D01*
X5274749D01*
X5281135Y469900D01*
X9105900D01*
X3306700Y482600D02*
X5245100D01*
X5172901Y10439500D02*
X11099800Y4512600D01*
X5172901Y10439500D02*
Y12039600D01*
X939800Y8750300D02*
X2163001Y9973500D01*
Y12039600D01*
X927100Y482600D02*
X2306700D01*
X647700Y762000D02*
X927100Y482600D01*
X1155700Y762000D02*
X1600200Y1206500D01*
X2281300D01*
X2662893Y1126407D02*
Y1671907D01*
X1981200Y2353600D02*
X2662893Y1671907D01*
Y1126407D02*
X3306700Y482600D01*
X965200Y2353600D02*
Y3399500D01*
X1987550Y3405850D02*
Y4353850D01*
X1981200Y3399500D02*
X1987550Y3405850D01*
Y4353850D02*
X1993900Y4360200D01*
Y5312700D01*
X664400Y5626200D02*
Y12039600D01*
Y5626200D02*
X977900Y5312700D01*
X1164400Y12039600D02*
X1626105D01*
X1812505Y12226000D01*
X2240210D01*
X2349401Y12116809D01*
Y12113995D02*
Y12116809D01*
Y12113995D02*
X2423796Y12039600D01*
X2663000D01*
X3249249D01*
X3435649Y12226000D02*
X3987899D01*
X3249249Y12039600D02*
X3435649Y12226000D01*
X3987899D02*
X4174300Y12039600D01*
X5359301Y12113995D02*
X5433696Y12039600D01*
X5359301Y12113995D02*
Y12116809D01*
X5250110Y12226000D02*
X5359301Y12116809D01*
X4822405Y12226000D02*
X5250110D01*
X4636005Y12039600D02*
X4822405Y12226000D01*
X5433696Y12039600D02*
X5672899D01*
X4174300D02*
X4636005D01*
X6321005Y12226000D02*
X6748710D01*
X6857901Y12116809D01*
Y12113995D02*
Y12116809D01*
X6134605Y12039600D02*
X6321005Y12226000D01*
X6857901Y12113995D02*
X6932296Y12039600D01*
X5672899D02*
X6134605D01*
X6932296D02*
X7171500D01*
X7639555D02*
X7825955Y12226000D01*
X7171500Y12039600D02*
X7639555D01*
X8443596D02*
X8682800D01*
X8369201Y12113995D02*
X8443596Y12039600D01*
X8369201Y12113995D02*
Y12116809D01*
X8260010Y12226000D02*
X8369201Y12116809D01*
X7825955Y12226000D02*
X8260010D01*
X8682800Y12039600D02*
X10104182Y10618217D01*
X10334406D01*
X11734800Y9217824D01*
Y1333500D02*
Y9217824D01*
D11*
X12331700Y825500D02*
X12433267D01*
X12331700Y1320783D02*
X12433267D01*
X12382483Y1371567D02*
Y1270000D01*
D12*
X1003300Y1714500D02*
D03*
X11404600Y11963400D02*
D03*
D13*
X1164400Y12039600D02*
D03*
X7171500D02*
D03*
X8682800D02*
D03*
X2663000D02*
D03*
X4174300D02*
D03*
X5672899D02*
D03*
D14*
X664400D02*
D03*
X1155700Y762000D02*
D03*
X647700D02*
D03*
X6671500Y12039600D02*
D03*
X8182800D02*
D03*
X2163001D02*
D03*
X3674300D02*
D03*
X5172901D02*
D03*
X11734800Y1333500D02*
D03*
D15*
X9728200Y8775700D02*
D03*
X5245100Y482600D02*
D03*
X5143500Y5588000D02*
D03*
X9105900Y469900D02*
D03*
X8940800Y5626100D02*
D03*
X939800Y8750300D02*
D03*
D16*
X1981200Y2353600D02*
D03*
X1993900Y4360200D02*
D03*
Y5312700D02*
D03*
X965200Y3399500D02*
D03*
X11137900Y2413000D02*
D03*
X12153900Y3429000D02*
D03*
X12115800Y4512600D02*
D03*
X12128500Y6743700D02*
D03*
X11112500Y8001000D02*
D03*
X12141200Y9029700D02*
D03*
D17*
X965200Y2353600D02*
D03*
X977900Y4360200D02*
D03*
Y5312700D02*
D03*
X1981200Y3399500D02*
D03*
X12153900Y2413000D02*
D03*
X11137900Y3429000D02*
D03*
X11099800Y4512600D02*
D03*
X11112500Y6743700D02*
D03*
X12128500Y8001000D02*
D03*
X11125200Y9029700D02*
D03*
D18*
X7910700Y3922900D02*
D03*
X9894700Y2096900D02*
D03*
X6110100Y2109600D02*
D03*
X4126100Y3935600D02*
D03*
D19*
X7084000Y6874900D02*
D03*
X3584000D02*
D03*
X7084000Y10574900D02*
D03*
X3584000D02*
D03*
D20*
X3306700Y482600D02*
D03*
X3281300Y1206500D02*
D03*
D21*
X2306700Y482600D02*
D03*
X2281300Y1206500D02*
D03*
D22*
X11734800Y833501D02*
D03*
%TF.MD5,49c67fd33df6489667318ee83d4401ca*%
M02*
