%TF.GenerationSoftware,Altium Limited,Altium Designer,24.10.1 (45)*%
G04 Layer_Color=0*
%FSLAX45Y45*%
%MOMM*%
%TF.SameCoordinates,ACBC47F4-F80E-47A8-B574-4F082A8C8B29*%
%TF.FilePolarity,Positive*%
%TF.FileFunction,Plated,1,2,PTH,Drill*%
%TF.Part,Single*%
G01*
G75*
%TA.AperFunction,OtherDrill,Pad Free-2 (27.686mm,29.972mm)*%
%ADD38C,3.19999*%
%TA.AperFunction,OtherDrill,Pad Free-1 (36.449mm,2.667mm)*%
%ADD39C,3.19999*%
%TA.AperFunction,ComponentDrill*%
%ADD40C,0.75000*%
%ADD41C,0.75000*%
%ADD42C,1.00000*%
%ADD43C,0.90000*%
%ADD44C,0.90000*%
%ADD45C,1.10000*%
D38*
X2768600Y2997200D02*
D03*
D39*
X3644900Y266700D02*
D03*
D40*
X3556000Y2079500D02*
D03*
Y1079500D02*
D03*
X2781300Y2290700D02*
D03*
Y1290700D02*
D03*
X3175000Y1557400D02*
D03*
Y2557400D02*
D03*
D41*
X1493900Y1384300D02*
D03*
X2493900D02*
D03*
D42*
X568500Y2522900D02*
D03*
X1068500Y2172900D02*
D03*
X568500Y1822900D02*
D03*
X635000Y774700D02*
D03*
Y424700D02*
D03*
D43*
X3396900Y647700D02*
D03*
X2876900D02*
D03*
X3136900D02*
D03*
D44*
X1663700Y977900D02*
D03*
Y723900D02*
D03*
Y469900D02*
D03*
Y215900D02*
D03*
X2425700Y977900D02*
D03*
Y723900D02*
D03*
Y469900D02*
D03*
Y215900D02*
D03*
X2374900Y1981200D02*
D03*
Y2235200D02*
D03*
Y2489200D02*
D03*
Y2743200D02*
D03*
X1612900Y1981200D02*
D03*
Y2235200D02*
D03*
Y2489200D02*
D03*
Y2743200D02*
D03*
D45*
X4064000Y952500D02*
D03*
Y1206500D02*
D03*
Y1714500D02*
D03*
Y2222500D02*
D03*
Y2730500D02*
D03*
Y2476500D02*
D03*
Y1968500D02*
D03*
Y1460500D02*
D03*
Y698500D02*
D03*
Y444500D02*
D03*
%TF.MD5,2a399f1ae05d2953e13736c44310c00b*%
M02*
