%TF.GenerationSoftware,Altium Limited,Altium Designer,24.10.1 (45)*%
G04 Layer_Color=65535*
%FSLAX45Y45*%
%MOMM*%
%TF.SameCoordinates,0FFDF30E-0F8A-4EF6-B442-501BBF81013B*%
%TF.FilePolarity,Positive*%
%TF.FileFunction,Legend,Top*%
%TF.Part,Single*%
G01*
G75*
%TA.AperFunction,NonConductor*%
%ADD21C,0.25400*%
%ADD22C,0.25000*%
%ADD23C,0.20000*%
%ADD24C,0.15000*%
%ADD25R,0.66602X2.36000*%
D21*
X2252980Y6990031D02*
Y6837680D01*
Y6913855D01*
X2354547D01*
Y6990031D01*
Y6837680D01*
X2405331Y6990031D02*
Y6837680D01*
X2481506D01*
X2506898Y6863072D01*
Y6964639D01*
X2481506Y6990031D01*
X2405331D01*
X2557681Y6837680D02*
Y6990031D01*
X2608465Y6939247D01*
X2659249Y6990031D01*
Y6837680D01*
X2710032Y6990031D02*
X2760816D01*
X2735424D01*
Y6837680D01*
X2710032D01*
X2760816D01*
X2336907Y6070625D02*
Y6222975D01*
X2413082D01*
X2438474Y6197583D01*
Y6146800D01*
X2413082Y6121408D01*
X2336907D01*
X2489258Y6070625D02*
X2540041D01*
X2514650D01*
Y6172192D01*
X2489258D01*
X2641608Y6197583D02*
Y6172192D01*
X2616217D01*
X2667000D01*
X2641608D01*
Y6096017D01*
X2667000Y6070625D01*
X2844743Y6172192D02*
X2768567D01*
X2743175Y6146800D01*
Y6096017D01*
X2768567Y6070625D01*
X2844743D01*
X2895526Y6222975D02*
Y6070625D01*
Y6146800D01*
X2920918Y6172192D01*
X2971701D01*
X2997093Y6146800D01*
Y6070625D01*
X563880Y2534871D02*
Y2382520D01*
X640055D01*
X665447Y2407912D01*
Y2433303D01*
X640055Y2458695D01*
X563880D01*
X640055D01*
X665447Y2484087D01*
Y2509479D01*
X640055Y2534871D01*
X563880D01*
X716231Y2484087D02*
Y2407912D01*
X741623Y2382520D01*
X817798D01*
Y2484087D01*
X970149D02*
X893973D01*
X868581Y2458695D01*
Y2407912D01*
X893973Y2382520D01*
X970149D01*
X1020932D02*
Y2534871D01*
Y2433303D02*
X1097108Y2484087D01*
X1020932Y2433303D02*
X1097108Y2382520D01*
X1173283Y2534871D02*
X1224066D01*
X1198675D01*
Y2382520D01*
X1173283D01*
X1224066D01*
X1300242D02*
Y2484087D01*
X1376417D01*
X1401809Y2458695D01*
Y2382520D01*
X1554160D02*
X1452592D01*
X1554160Y2484087D01*
Y2509479D01*
X1528768Y2534871D01*
X1477984D01*
X1452592Y2509479D01*
X1604943Y2458695D02*
X1706510D01*
X1655727Y2509479D02*
Y2407912D01*
X563880Y700991D02*
Y548640D01*
X640055D01*
X665447Y574032D01*
Y599423D01*
X640055Y624815D01*
X563880D01*
X640055D01*
X665447Y650207D01*
Y675599D01*
X640055Y700991D01*
X563880D01*
X716231Y650207D02*
Y574032D01*
X741623Y548640D01*
X817798D01*
Y650207D01*
X970149D02*
X893973D01*
X868581Y624815D01*
Y574032D01*
X893973Y548640D01*
X970149D01*
X1020932D02*
Y700991D01*
Y599423D02*
X1097108Y650207D01*
X1020932Y599423D02*
X1097108Y548640D01*
X1173283Y700991D02*
X1224066D01*
X1198675D01*
Y548640D01*
X1173283D01*
X1224066D01*
X1300242D02*
Y650207D01*
X1376417D01*
X1401809Y624815D01*
Y548640D01*
X1554160D02*
X1452592D01*
X1554160Y650207D01*
Y675599D01*
X1528768Y700991D01*
X1477984D01*
X1452592Y675599D01*
X1604943Y624815D02*
X1706510D01*
X482600Y6959583D02*
X457208Y6984975D01*
X406425D01*
X381033Y6959583D01*
Y6858017D01*
X406425Y6832625D01*
X457208D01*
X482600Y6858017D01*
X533384Y6832625D02*
X584167D01*
X558776D01*
Y6984975D01*
X533384Y6959583D01*
X1818640Y5184091D02*
Y5031740D01*
X1894815D01*
X1920207Y5057132D01*
Y5082523D01*
X1894815Y5107915D01*
X1818640D01*
X1894815D01*
X1920207Y5133307D01*
Y5158699D01*
X1894815Y5184091D01*
X1818640D01*
X1970991Y5133307D02*
Y5057132D01*
X1996383Y5031740D01*
X2072558D01*
Y5133307D01*
X2224909D02*
X2148733D01*
X2123341Y5107915D01*
Y5057132D01*
X2148733Y5031740D01*
X2224909D01*
X2275692D02*
Y5184091D01*
Y5082523D02*
X2351868Y5133307D01*
X2275692Y5082523D02*
X2351868Y5031740D01*
X2428043Y5184091D02*
X2478826D01*
X2453435D01*
Y5031740D01*
X2428043D01*
X2478826D01*
X2555002D02*
Y5133307D01*
X2631177D01*
X2656569Y5107915D01*
Y5031740D01*
X2707352D02*
X2758136D01*
X2732744D01*
Y5184091D01*
X2707352Y5158699D01*
X2834311Y5107915D02*
X2935879D01*
X2885095Y5158699D02*
Y5057132D01*
X1818640Y3350211D02*
Y3197860D01*
X1894815D01*
X1920207Y3223252D01*
Y3248643D01*
X1894815Y3274035D01*
X1818640D01*
X1894815D01*
X1920207Y3299427D01*
Y3324819D01*
X1894815Y3350211D01*
X1818640D01*
X1970991Y3299427D02*
Y3223252D01*
X1996383Y3197860D01*
X2072558D01*
Y3299427D01*
X2224909D02*
X2148733D01*
X2123341Y3274035D01*
Y3223252D01*
X2148733Y3197860D01*
X2224909D01*
X2275692D02*
Y3350211D01*
Y3248643D02*
X2351868Y3299427D01*
X2275692Y3248643D02*
X2351868Y3197860D01*
X2428043Y3350211D02*
X2478826D01*
X2453435D01*
Y3197860D01*
X2428043D01*
X2478826D01*
X2555002D02*
Y3299427D01*
X2631177D01*
X2656569Y3274035D01*
Y3197860D01*
X2707352D02*
X2758136D01*
X2732744D01*
Y3350211D01*
X2707352Y3324819D01*
X2834311Y3274035D02*
X2935879D01*
X508000Y5463491D02*
Y5311140D01*
X584175D01*
X609567Y5336532D01*
Y5438099D01*
X584175Y5463491D01*
X508000D01*
X660351Y5311140D02*
X711134D01*
X685743D01*
Y5463491D01*
X660351Y5438099D01*
X3561080Y6177231D02*
Y6024880D01*
X3637255D01*
X3662647Y6050272D01*
Y6075663D01*
X3637255Y6101055D01*
X3561080D01*
X3637255D01*
X3662647Y6126447D01*
Y6151839D01*
X3637255Y6177231D01*
X3561080D01*
X3713431Y6126447D02*
Y6024880D01*
Y6075663D01*
X3738823Y6101055D01*
X3764214Y6126447D01*
X3789606D01*
X3891173D02*
X3941957D01*
X3967349Y6101055D01*
Y6024880D01*
X3891173D01*
X3865781Y6050272D01*
X3891173Y6075663D01*
X3967349D01*
X4018132Y6024880D02*
Y6177231D01*
Y6075663D02*
X4094308Y6126447D01*
X4018132Y6075663D02*
X4094308Y6024880D01*
X4246658D02*
X4195875D01*
X4170483Y6050272D01*
Y6101055D01*
X4195875Y6126447D01*
X4246658D01*
X4272050Y6101055D01*
Y6075663D01*
X4170483D01*
X4516120Y700991D02*
Y548640D01*
X4592295D01*
X4617687Y574032D01*
Y599423D01*
X4592295Y624815D01*
X4516120D01*
X4592295D01*
X4617687Y650207D01*
Y675599D01*
X4592295Y700991D01*
X4516120D01*
X4668471Y650207D02*
Y574032D01*
X4693863Y548640D01*
X4770038D01*
Y650207D01*
X4922389D02*
X4846213D01*
X4820821Y624815D01*
Y574032D01*
X4846213Y548640D01*
X4922389D01*
X4973172D02*
Y700991D01*
Y599423D02*
X5049348Y650207D01*
X4973172Y599423D02*
X5049348Y548640D01*
X5201698Y700991D02*
X5150915D01*
X5125523Y675599D01*
Y574032D01*
X5150915Y548640D01*
X5201698D01*
X5227090Y574032D01*
Y675599D01*
X5201698Y700991D01*
X5277874Y650207D02*
Y574032D01*
X5303265Y548640D01*
X5379441D01*
Y650207D01*
X5455616Y675599D02*
Y650207D01*
X5430224D01*
X5481008D01*
X5455616D01*
Y574032D01*
X5481008Y548640D01*
X5658750D02*
X5557183D01*
X5658750Y650207D01*
Y675599D01*
X5633359Y700991D01*
X5582575D01*
X5557183Y675599D01*
X5709534Y624815D02*
X5811101D01*
X3264110Y2590775D02*
Y2438425D01*
X3340285D01*
X3365677Y2463817D01*
Y2489208D01*
X3340285Y2514600D01*
X3264110D01*
X3340285D01*
X3365677Y2539992D01*
Y2565383D01*
X3340285Y2590775D01*
X3264110D01*
X3416460Y2539992D02*
Y2463817D01*
X3441852Y2438425D01*
X3518028D01*
Y2539992D01*
X3670378D02*
X3594203D01*
X3568811Y2514600D01*
Y2463817D01*
X3594203Y2438425D01*
X3670378D01*
X3721162D02*
Y2590775D01*
Y2489208D02*
X3797337Y2539992D01*
X3721162Y2489208D02*
X3797337Y2438425D01*
X3949688Y2590775D02*
X3898904D01*
X3873512Y2565383D01*
Y2463817D01*
X3898904Y2438425D01*
X3949688D01*
X3975080Y2463817D01*
Y2565383D01*
X3949688Y2590775D01*
X4025863Y2539992D02*
Y2463817D01*
X4051255Y2438425D01*
X4127430D01*
Y2539992D01*
X4203606Y2565383D02*
Y2539992D01*
X4178214D01*
X4228997D01*
X4203606D01*
Y2463817D01*
X4228997Y2438425D01*
X4406740D02*
X4305173D01*
X4406740Y2539992D01*
Y2565383D01*
X4381348Y2590775D01*
X4330565D01*
X4305173Y2565383D01*
X4457523Y2514600D02*
X4559091D01*
X4508307Y2565383D02*
Y2463817D01*
X4864305Y3403575D02*
Y3251225D01*
X4940481D01*
X4965873Y3276617D01*
Y3302008D01*
X4940481Y3327400D01*
X4864305D01*
X4940481D01*
X4965873Y3352792D01*
Y3378183D01*
X4940481Y3403575D01*
X4864305D01*
X5016656Y3352792D02*
Y3276617D01*
X5042048Y3251225D01*
X5118223D01*
Y3352792D01*
X5270574D02*
X5194399D01*
X5169007Y3327400D01*
Y3276617D01*
X5194399Y3251225D01*
X5270574D01*
X5321358D02*
Y3403575D01*
Y3302008D02*
X5397533Y3352792D01*
X5321358Y3302008D02*
X5397533Y3251225D01*
X5549884Y3403575D02*
X5499100D01*
X5473708Y3378183D01*
Y3276617D01*
X5499100Y3251225D01*
X5549884D01*
X5575276Y3276617D01*
Y3378183D01*
X5549884Y3403575D01*
X5626059Y3352792D02*
Y3276617D01*
X5651451Y3251225D01*
X5727626D01*
Y3352792D01*
X5803802Y3378183D02*
Y3352792D01*
X5778410D01*
X5829193D01*
X5803802D01*
Y3276617D01*
X5829193Y3251225D01*
X5905369D02*
X5956152D01*
X5930761D01*
Y3403575D01*
X5905369Y3378183D01*
X6032328Y3327400D02*
X6133895D01*
X5029405Y5219675D02*
Y5067325D01*
X5105581D01*
X5130973Y5092717D01*
Y5118108D01*
X5105581Y5143500D01*
X5029405D01*
X5105581D01*
X5130973Y5168892D01*
Y5194283D01*
X5105581Y5219675D01*
X5029405D01*
X5181756Y5168892D02*
Y5092717D01*
X5207148Y5067325D01*
X5283323D01*
Y5168892D01*
X5435674D02*
X5359499D01*
X5334107Y5143500D01*
Y5092717D01*
X5359499Y5067325D01*
X5435674D01*
X5486458D02*
Y5219675D01*
Y5118108D02*
X5562633Y5168892D01*
X5486458Y5118108D02*
X5562633Y5067325D01*
X5714984Y5219675D02*
X5664200D01*
X5638808Y5194283D01*
Y5092717D01*
X5664200Y5067325D01*
X5714984D01*
X5740376Y5092717D01*
Y5194283D01*
X5714984Y5219675D01*
X5791159Y5168892D02*
Y5092717D01*
X5816551Y5067325D01*
X5892726D01*
Y5168892D01*
X5968902Y5194283D02*
Y5168892D01*
X5943510D01*
X5994293D01*
X5968902D01*
Y5092717D01*
X5994293Y5067325D01*
X6070469D02*
X6121252D01*
X6095861D01*
Y5219675D01*
X6070469Y5194283D01*
X6197428Y5143500D02*
X6298995D01*
X6248211Y5194283D02*
Y5092717D01*
X172720Y4709160D02*
Y4861511D01*
X223503Y4810727D01*
X274287Y4861511D01*
Y4709160D01*
X350463D02*
X401246D01*
X426638Y4734552D01*
Y4785335D01*
X401246Y4810727D01*
X350463D01*
X325071Y4785335D01*
Y4734552D01*
X350463Y4709160D01*
X502813Y4836119D02*
Y4810727D01*
X477421D01*
X528205D01*
X502813D01*
Y4734552D01*
X528205Y4709160D01*
X629772D02*
X680556D01*
X705948Y4734552D01*
Y4785335D01*
X680556Y4810727D01*
X629772D01*
X604380Y4785335D01*
Y4734552D01*
X629772Y4709160D01*
X756731Y4810727D02*
Y4709160D01*
Y4759943D01*
X782123Y4785335D01*
X807515Y4810727D01*
X832906D01*
X909082Y4709160D02*
Y4861511D01*
X985257D01*
X1010649Y4836119D01*
Y4785335D01*
X985257Y4759943D01*
X909082D01*
X1061432Y4810727D02*
Y4734552D01*
X1086824Y4709160D01*
X1112216Y4734552D01*
X1137608Y4709160D01*
X1163000Y4734552D01*
Y4810727D01*
X1213783D02*
Y4709160D01*
Y4759943D01*
X1239175Y4785335D01*
X1264567Y4810727D01*
X1289959D01*
X5423028Y6883375D02*
X5321460D01*
Y6731025D01*
X5423028D01*
X5321460Y6807200D02*
X5372244D01*
X5473811Y6731025D02*
Y6832592D01*
X5549986D01*
X5575378Y6807200D01*
Y6731025D01*
X5727729Y6832592D02*
X5651554D01*
X5626162Y6807200D01*
Y6756417D01*
X5651554Y6731025D01*
X5727729D01*
X5803904D02*
X5854688D01*
X5880080Y6756417D01*
Y6807200D01*
X5854688Y6832592D01*
X5803904D01*
X5778512Y6807200D01*
Y6756417D01*
X5803904Y6731025D01*
X6032430Y6883375D02*
Y6731025D01*
X5956255D01*
X5930863Y6756417D01*
Y6807200D01*
X5956255Y6832592D01*
X6032430D01*
X6159389Y6731025D02*
X6108606D01*
X6083214Y6756417D01*
Y6807200D01*
X6108606Y6832592D01*
X6159389D01*
X6184781Y6807200D01*
Y6781808D01*
X6083214D01*
X6235565Y6832592D02*
Y6731025D01*
Y6781808D01*
X6260956Y6807200D01*
X6286348Y6832592D01*
X6311740D01*
X5379720Y2097991D02*
Y1945640D01*
X5455895D01*
X5481287Y1971032D01*
Y1996423D01*
X5455895Y2021815D01*
X5379720D01*
X5455895D01*
X5481287Y2047207D01*
Y2072599D01*
X5455895Y2097991D01*
X5379720D01*
X5557463Y1945640D02*
X5608246D01*
X5633638Y1971032D01*
Y2021815D01*
X5608246Y2047207D01*
X5557463D01*
X5532071Y2021815D01*
Y1971032D01*
X5557463Y1945640D01*
X5684421Y2047207D02*
X5785989Y1945640D01*
X5735205Y1996423D01*
X5785989Y2047207D01*
X5684421Y1945640D01*
X5836772D02*
Y2097991D01*
X5912948D01*
X5938339Y2072599D01*
Y2021815D01*
X5912948Y1996423D01*
X5836772D01*
X5989123Y2047207D02*
Y1971032D01*
X6014515Y1945640D01*
X6039906Y1971032D01*
X6065298Y1945640D01*
X6090690Y1971032D01*
Y2047207D01*
X6141474D02*
Y1945640D01*
Y1996423D01*
X6166865Y2021815D01*
X6192257Y2047207D01*
X6217649D01*
D22*
X2263900Y6604000D02*
G03*
X2263900Y6604000I-12500J0D01*
G01*
X3184000Y5791200D02*
G03*
X3184000Y5791200I-12500J0D01*
G01*
X3572000D02*
G03*
X3572000Y5791200I-12500J0D01*
G01*
X5778300Y5540700D02*
G03*
X5778300Y5540700I-12500J0D01*
G01*
D23*
X772000Y1976780D02*
G03*
X772000Y1976780I-10000J0D01*
G01*
Y142900D02*
G03*
X772000Y142900I-10000J0D01*
G01*
X2026760Y4626000D02*
G03*
X2026760Y4626000I-10000J0D01*
G01*
Y2792120D02*
G03*
X2026760Y2792120I-10000J0D01*
G01*
X4724240Y142900D02*
G03*
X4724240Y142900I-10000J0D01*
G01*
Y1976780D02*
G03*
X4724240Y1976780I-10000J0D01*
G01*
X5979000Y2792120D02*
G03*
X5979000Y2792120I-10000J0D01*
G01*
Y4626000D02*
G03*
X5979000Y4626000I-10000J0D01*
G01*
X2296400Y6469500D02*
X4866400D01*
X2296400D02*
Y6738500D01*
X4866400D01*
Y6469500D02*
Y6738500D01*
X2334500Y5925700D02*
X3126500D01*
Y5656700D02*
Y5925700D01*
X2334500Y5656700D02*
X3126500D01*
X2334500D02*
Y5925700D01*
X642000Y2296780D02*
X882000D01*
Y2237280D02*
Y2296780D01*
X642000Y2237280D02*
Y2296780D01*
Y2056780D02*
X882000D01*
Y2116280D01*
X642000Y2056780D02*
Y2116280D01*
Y462900D02*
X882000D01*
Y403400D02*
Y462900D01*
X642000Y403400D02*
Y462900D01*
Y222900D02*
X882000D01*
Y282400D01*
X642000Y222900D02*
Y282400D01*
X745600Y5801100D02*
X1489600D01*
X1896760Y4706000D02*
Y4765500D01*
X2136760Y4706000D02*
Y4765500D01*
X1896760Y4706000D02*
X2136760D01*
X1896760Y4886500D02*
Y4946000D01*
X2136760Y4886500D02*
Y4946000D01*
X1896760D02*
X2136760D01*
X1896760Y3112120D02*
X2136760D01*
Y3052620D02*
Y3112120D01*
X1896760Y3052620D02*
Y3112120D01*
Y2872120D02*
X2136760D01*
Y2931620D01*
X1896760Y2872120D02*
Y2931620D01*
X796950Y5223400D02*
X1260450D01*
Y4987400D02*
Y5223400D01*
X796950Y4987400D02*
X1260450D01*
X796950D02*
Y5223400D01*
X3604500Y5656700D02*
X4396500D01*
X3604500D02*
Y5925700D01*
X4396500D01*
Y5656700D02*
Y5925700D01*
X4594240Y462900D02*
X4834240D01*
Y403400D02*
Y462900D01*
X4594240Y403400D02*
Y462900D01*
Y222900D02*
X4834240D01*
Y282400D01*
X4594240Y222900D02*
Y282400D01*
Y2056780D02*
Y2116280D01*
X4834240Y2056780D02*
Y2116280D01*
X4594240Y2056780D02*
X4834240D01*
X4594240Y2237280D02*
Y2296780D01*
X4834240Y2237280D02*
Y2296780D01*
X4594240D02*
X4834240D01*
X5849000Y2872120D02*
Y2931620D01*
X6089000Y2872120D02*
Y2931620D01*
X5849000Y2872120D02*
X6089000D01*
X5849000Y3052620D02*
Y3112120D01*
X6089000Y3052620D02*
Y3112120D01*
X5849000D02*
X6089000D01*
X5849000Y4706000D02*
Y4765500D01*
X6089000Y4706000D02*
Y4765500D01*
X5849000Y4706000D02*
X6089000D01*
X5849000Y4886500D02*
Y4946000D01*
X6089000Y4886500D02*
Y4946000D01*
X5849000D02*
X6089000D01*
X284200Y4551300D02*
X884200D01*
X169200D02*
X244200D01*
X284200D02*
X296700Y4611300D01*
X231700D02*
X244200Y4551300D01*
X231700Y4611300D02*
X296700D01*
X924200Y4551300D02*
X999200D01*
X924200D02*
X936700Y4611300D01*
X871700D02*
X884200Y4551300D01*
X871700Y4611300D02*
X936700D01*
X169200Y3551301D02*
X999200D01*
X169200D02*
Y4551300D01*
X999200Y3551301D02*
Y4551300D01*
X5631300Y6631700D02*
X5900300D01*
X5631300Y5585700D02*
Y6631700D01*
Y5585700D02*
X5900300D01*
Y6631700D01*
X5491200Y846200D02*
X6091200D01*
X6131200D02*
X6206200D01*
X6078700Y786200D02*
X6091200Y846200D01*
X6131200D02*
X6143700Y786200D01*
X6078700D02*
X6143700D01*
X5376200Y846200D02*
X5451200D01*
X5438700Y786200D02*
X5451200Y846200D01*
X5491200D02*
X5503700Y786200D01*
X5438700D02*
X5503700D01*
X5376200Y1846199D02*
X6206200D01*
Y846200D02*
Y1846199D01*
X5376200Y846200D02*
Y1846199D01*
D24*
X1717600Y6261100D02*
G03*
X1717600Y6261100I-600000J0D01*
G01*
D25*
X1227101Y5105400D02*
D03*
%TF.MD5,671da1846d6e30bc36ec357f043b135e*%
M02*
