%TF.GenerationSoftware,Altium Limited,Altium Designer,24.10.1 (45)*%
G04 Layer_Physical_Order=2*
G04 Layer_Color=16711680*
%FSLAX45Y45*%
%MOMM*%
%TF.SameCoordinates,0FFDF30E-0F8A-4EF6-B442-501BBF81013B*%
%TF.FilePolarity,Positive*%
%TF.FileFunction,Copper,L2,Bot,Signal*%
%TF.Part,Single*%
G01*
G75*
%TA.AperFunction,Conductor*%
%ADD10C,0.50800*%
%TA.AperFunction,ComponentPad*%
%ADD11C,1.60000*%
G04:AMPARAMS|DCode=12|XSize=1.6mm|YSize=1.6mm|CornerRadius=0.4mm|HoleSize=0mm|Usage=FLASHONLY|Rotation=0.000|XOffset=0mm|YOffset=0mm|HoleType=Round|Shape=RoundedRectangle|*
%AMROUNDEDRECTD12*
21,1,1.60000,0.80000,0,0,0.0*
21,1,0.80000,1.60000,0,0,0.0*
1,1,0.80000,0.40000,-0.40000*
1,1,0.80000,-0.40000,-0.40000*
1,1,0.80000,-0.40000,0.40000*
1,1,0.80000,0.40000,0.40000*
%
%ADD12ROUNDEDRECTD12*%
%ADD13R,1.24000X1.24000*%
%ADD14R,2.35000X2.35000*%
%ADD15C,2.35000*%
%ADD16R,1.65000X1.65000*%
%ADD17C,1.65000*%
G04:AMPARAMS|DCode=18|XSize=1.95mm|YSize=1.95mm|CornerRadius=0.4875mm|HoleSize=0mm|Usage=FLASHONLY|Rotation=270.000|XOffset=0mm|YOffset=0mm|HoleType=Round|Shape=RoundedRectangle|*
%AMROUNDEDRECTD18*
21,1,1.95000,0.97500,0,0,270.0*
21,1,0.97500,1.95000,0,0,270.0*
1,1,0.97500,-0.48750,-0.48750*
1,1,0.97500,-0.48750,0.48750*
1,1,0.97500,0.48750,0.48750*
1,1,0.97500,0.48750,-0.48750*
%
%ADD18ROUNDEDRECTD18*%
%ADD19C,1.95000*%
G04:AMPARAMS|DCode=20|XSize=1.6mm|YSize=1.6mm|CornerRadius=0.4mm|HoleSize=0mm|Usage=FLASHONLY|Rotation=90.000|XOffset=0mm|YOffset=0mm|HoleType=Round|Shape=RoundedRectangle|*
%AMROUNDEDRECTD20*
21,1,1.60000,0.80000,0,0,90.0*
21,1,0.80000,1.60000,0,0,90.0*
1,1,0.80000,0.40000,0.40000*
1,1,0.80000,0.40000,-0.40000*
1,1,0.80000,-0.40000,-0.40000*
1,1,0.80000,-0.40000,0.40000*
%
%ADD20ROUNDEDRECTD20*%
%TA.AperFunction,NonConductor*%
%ADD21C,0.25400*%
G36*
X6438900Y0D02*
X0D01*
Y7073900D01*
X6438900D01*
Y0D01*
D02*
G37*
%LPC*%
G36*
X4738276Y6709400D02*
X4737100D01*
Y6616700D01*
X4829800D01*
Y6617876D01*
X4822617Y6644683D01*
X4808741Y6668717D01*
X4789117Y6688341D01*
X4765083Y6702217D01*
X4738276Y6709400D01*
D02*
G37*
G36*
X4711700D02*
X4710524D01*
X4683717Y6702217D01*
X4659683Y6688341D01*
X4640059Y6668717D01*
X4626183Y6644683D01*
X4619000Y6617876D01*
Y6616700D01*
X4711700D01*
Y6709400D01*
D02*
G37*
G36*
X4829800Y6591300D02*
X4737100D01*
Y6498600D01*
X4738276D01*
X4765083Y6505783D01*
X4789117Y6519659D01*
X4808741Y6539283D01*
X4822617Y6563317D01*
X4829800Y6590124D01*
Y6591300D01*
D02*
G37*
G36*
X4711700D02*
X4619000D01*
Y6590124D01*
X4626183Y6563317D01*
X4640059Y6539283D01*
X4659683Y6519659D01*
X4683717Y6505783D01*
X4710524Y6498600D01*
X4711700D01*
Y6591300D01*
D02*
G37*
G36*
X4484276Y6709400D02*
X4456524D01*
X4429717Y6702217D01*
X4405683Y6688341D01*
X4386059Y6668717D01*
X4372183Y6644683D01*
X4365000Y6617876D01*
Y6590124D01*
X4372183Y6563317D01*
X4386059Y6539283D01*
X4405683Y6519659D01*
X4429717Y6505783D01*
X4456524Y6498600D01*
X4484276D01*
X4511083Y6505783D01*
X4535117Y6519659D01*
X4554741Y6539283D01*
X4568617Y6563317D01*
X4575800Y6590124D01*
Y6617876D01*
X4568617Y6644683D01*
X4554741Y6668717D01*
X4535117Y6688341D01*
X4511083Y6702217D01*
X4484276Y6709400D01*
D02*
G37*
G36*
X4230276D02*
X4202524D01*
X4175717Y6702217D01*
X4151683Y6688341D01*
X4132059Y6668717D01*
X4118183Y6644683D01*
X4111000Y6617876D01*
Y6590124D01*
X4118183Y6563317D01*
X4132059Y6539283D01*
X4151683Y6519659D01*
X4175717Y6505783D01*
X4202524Y6498600D01*
X4230276D01*
X4257083Y6505783D01*
X4281117Y6519659D01*
X4300741Y6539283D01*
X4314617Y6563317D01*
X4321800Y6590124D01*
Y6617876D01*
X4314617Y6644683D01*
X4300741Y6668717D01*
X4281117Y6688341D01*
X4257083Y6702217D01*
X4230276Y6709400D01*
D02*
G37*
G36*
X3976276D02*
X3948524D01*
X3921717Y6702217D01*
X3897683Y6688341D01*
X3878059Y6668717D01*
X3864183Y6644683D01*
X3857000Y6617876D01*
Y6590124D01*
X3864183Y6563317D01*
X3878059Y6539283D01*
X3897683Y6519659D01*
X3921717Y6505783D01*
X3948524Y6498600D01*
X3976276D01*
X4003083Y6505783D01*
X4027117Y6519659D01*
X4046741Y6539283D01*
X4060617Y6563317D01*
X4067800Y6590124D01*
Y6617876D01*
X4060617Y6644683D01*
X4046741Y6668717D01*
X4027117Y6688341D01*
X4003083Y6702217D01*
X3976276Y6709400D01*
D02*
G37*
G36*
X3722276D02*
X3694524D01*
X3667717Y6702217D01*
X3643683Y6688341D01*
X3624059Y6668717D01*
X3610183Y6644683D01*
X3603000Y6617876D01*
Y6590124D01*
X3610183Y6563317D01*
X3624059Y6539283D01*
X3643683Y6519659D01*
X3667717Y6505783D01*
X3694524Y6498600D01*
X3722276D01*
X3749083Y6505783D01*
X3773117Y6519659D01*
X3792741Y6539283D01*
X3806617Y6563317D01*
X3813800Y6590124D01*
Y6617876D01*
X3806617Y6644683D01*
X3792741Y6668717D01*
X3773117Y6688341D01*
X3749083Y6702217D01*
X3722276Y6709400D01*
D02*
G37*
G36*
X2960276D02*
X2932524D01*
X2905717Y6702217D01*
X2881683Y6688341D01*
X2862059Y6668717D01*
X2848183Y6644683D01*
X2841000Y6617876D01*
Y6590124D01*
X2848183Y6563317D01*
X2862059Y6539283D01*
X2881683Y6519659D01*
X2905717Y6505783D01*
X2932524Y6498600D01*
X2960276D01*
X2987083Y6505783D01*
X3011117Y6519659D01*
X3030741Y6539283D01*
X3044617Y6563317D01*
X3051800Y6590124D01*
Y6617876D01*
X3044617Y6644683D01*
X3030741Y6668717D01*
X3011117Y6688341D01*
X2987083Y6702217D01*
X2960276Y6709400D01*
D02*
G37*
G36*
X2706276D02*
X2678524D01*
X2651717Y6702217D01*
X2627683Y6688341D01*
X2608059Y6668717D01*
X2594183Y6644683D01*
X2587000Y6617876D01*
Y6590124D01*
X2594183Y6563317D01*
X2608059Y6539283D01*
X2627683Y6519659D01*
X2651717Y6505783D01*
X2678524Y6498600D01*
X2706276D01*
X2733083Y6505783D01*
X2757117Y6519659D01*
X2776741Y6539283D01*
X2790617Y6563317D01*
X2797800Y6590124D01*
Y6617876D01*
X2790617Y6644683D01*
X2776741Y6668717D01*
X2757117Y6688341D01*
X2733083Y6702217D01*
X2706276Y6709400D01*
D02*
G37*
G36*
X2478400Y6709964D02*
X2398400D01*
X2381327Y6707717D01*
X2365418Y6701127D01*
X2351756Y6690644D01*
X2341273Y6676982D01*
X2334683Y6661073D01*
X2332436Y6644000D01*
Y6564000D01*
X2334683Y6546927D01*
X2341273Y6531018D01*
X2351756Y6517356D01*
X2365418Y6506873D01*
X2381327Y6500283D01*
X2398400Y6498036D01*
X2478400D01*
X2495473Y6500283D01*
X2511382Y6506873D01*
X2525044Y6517356D01*
X2535527Y6531018D01*
X2542117Y6546927D01*
X2544364Y6564000D01*
Y6644000D01*
X2542117Y6661073D01*
X2535527Y6676982D01*
X2525044Y6690644D01*
X2511382Y6701127D01*
X2495473Y6707717D01*
X2478400Y6709964D01*
D02*
G37*
G36*
X5779676Y6595100D02*
X5751924D01*
X5725117Y6587917D01*
X5701083Y6574041D01*
X5681459Y6554417D01*
X5667583Y6530383D01*
X5660400Y6503576D01*
Y6475824D01*
X5667583Y6449017D01*
X5681459Y6424983D01*
X5701083Y6405359D01*
X5725117Y6391483D01*
X5751924Y6384300D01*
X5779676D01*
X5806483Y6391483D01*
X5830517Y6405359D01*
X5850141Y6424983D01*
X5864017Y6449017D01*
X5871200Y6475824D01*
Y6503576D01*
X5864017Y6530383D01*
X5850141Y6554417D01*
X5830517Y6574041D01*
X5806483Y6587917D01*
X5779676Y6595100D01*
D02*
G37*
G36*
X1136413Y6658000D02*
X1098787D01*
X1062443Y6648262D01*
X1029857Y6629449D01*
X1003251Y6602843D01*
X984438Y6570257D01*
X974700Y6533913D01*
Y6496287D01*
X984438Y6459943D01*
X1003251Y6427357D01*
X1029857Y6400751D01*
X1062443Y6381938D01*
X1098787Y6372200D01*
X1136413D01*
X1172757Y6381938D01*
X1205343Y6400751D01*
X1231949Y6427357D01*
X1250762Y6459943D01*
X1260500Y6496287D01*
Y6533913D01*
X1250762Y6570257D01*
X1231949Y6602843D01*
X1205343Y6629449D01*
X1172757Y6648262D01*
X1136413Y6658000D01*
D02*
G37*
G36*
X5779676Y6341100D02*
X5751924D01*
X5725117Y6333917D01*
X5701083Y6320041D01*
X5681459Y6300417D01*
X5667583Y6276383D01*
X5660400Y6249576D01*
Y6221824D01*
X5667583Y6195017D01*
X5681459Y6170983D01*
X5701083Y6151359D01*
X5725117Y6137483D01*
X5751924Y6130300D01*
X5779676D01*
X5806483Y6137483D01*
X5830517Y6151359D01*
X5850141Y6170983D01*
X5864017Y6195017D01*
X5871200Y6221824D01*
Y6249576D01*
X5864017Y6276383D01*
X5850141Y6300417D01*
X5830517Y6320041D01*
X5806483Y6333917D01*
X5779676Y6341100D01*
D02*
G37*
G36*
X1260500Y6150000D02*
X1130300D01*
Y6019800D01*
X1260500D01*
Y6150000D01*
D02*
G37*
G36*
X1104900D02*
X974700D01*
Y6019800D01*
X1104900D01*
Y6150000D01*
D02*
G37*
G36*
X5779676Y6087100D02*
X5751924D01*
X5725117Y6079917D01*
X5701083Y6066041D01*
X5681459Y6046417D01*
X5667583Y6022383D01*
X5660400Y5995576D01*
Y5967824D01*
X5667583Y5941017D01*
X5681459Y5916983D01*
X5701083Y5897359D01*
X5725117Y5883483D01*
X5751924Y5876300D01*
X5779676D01*
X5806483Y5883483D01*
X5830517Y5897359D01*
X5850141Y5916983D01*
X5864017Y5941017D01*
X5871200Y5967824D01*
Y5995576D01*
X5864017Y6022383D01*
X5850141Y6046417D01*
X5830517Y6066041D01*
X5806483Y6079917D01*
X5779676Y6087100D01*
D02*
G37*
G36*
X1260500Y5994400D02*
X1130300D01*
Y5864200D01*
X1260500D01*
Y5994400D01*
D02*
G37*
G36*
X1104900D02*
X974700D01*
Y5864200D01*
X1104900D01*
Y5994400D01*
D02*
G37*
G36*
X2490376Y5896600D02*
X2489200D01*
Y5803900D01*
X2581900D01*
Y5805076D01*
X2574717Y5831883D01*
X2560841Y5855917D01*
X2541217Y5875541D01*
X2517183Y5889417D01*
X2490376Y5896600D01*
D02*
G37*
G36*
X4268376D02*
X4267200D01*
Y5803900D01*
X4359900D01*
Y5805076D01*
X4352717Y5831883D01*
X4338841Y5855917D01*
X4319217Y5875541D01*
X4295183Y5889417D01*
X4268376Y5896600D01*
D02*
G37*
G36*
X4241800D02*
X4240624D01*
X4213817Y5889417D01*
X4189783Y5875541D01*
X4170159Y5855917D01*
X4156283Y5831883D01*
X4149100Y5805076D01*
Y5803900D01*
X4241800D01*
Y5896600D01*
D02*
G37*
G36*
X2463800D02*
X2462624D01*
X2435817Y5889417D01*
X2411783Y5875541D01*
X2392159Y5855917D01*
X2378283Y5831883D01*
X2371100Y5805076D01*
Y5803900D01*
X2463800D01*
Y5896600D01*
D02*
G37*
G36*
X5805800Y5833664D02*
X5778500D01*
Y5740400D01*
X5871764D01*
Y5767700D01*
X5869517Y5784773D01*
X5862927Y5800682D01*
X5852444Y5814344D01*
X5838782Y5824827D01*
X5822873Y5831417D01*
X5805800Y5833664D01*
D02*
G37*
G36*
X5753100D02*
X5725800D01*
X5708727Y5831417D01*
X5692818Y5824827D01*
X5679156Y5814344D01*
X5668673Y5800682D01*
X5662083Y5784773D01*
X5659836Y5767700D01*
Y5740400D01*
X5753100D01*
Y5833664D01*
D02*
G37*
G36*
X4359900Y5778500D02*
X4267200D01*
Y5685800D01*
X4268376D01*
X4295183Y5692983D01*
X4319217Y5706859D01*
X4338841Y5726483D01*
X4352717Y5750517D01*
X4359900Y5777324D01*
Y5778500D01*
D02*
G37*
G36*
X4241800D02*
X4149100D01*
Y5777324D01*
X4156283Y5750517D01*
X4170159Y5726483D01*
X4189783Y5706859D01*
X4213817Y5692983D01*
X4240624Y5685800D01*
X4241800D01*
Y5778500D01*
D02*
G37*
G36*
X4014376Y5896600D02*
X3986624D01*
X3959817Y5889417D01*
X3935783Y5875541D01*
X3916159Y5855917D01*
X3902283Y5831883D01*
X3895100Y5805076D01*
Y5777324D01*
X3902283Y5750517D01*
X3916159Y5726483D01*
X3935783Y5706859D01*
X3959817Y5692983D01*
X3986624Y5685800D01*
X4014376D01*
X4041183Y5692983D01*
X4065217Y5706859D01*
X4084841Y5726483D01*
X4098717Y5750517D01*
X4105900Y5777324D01*
Y5805076D01*
X4098717Y5831883D01*
X4084841Y5855917D01*
X4065217Y5875541D01*
X4041183Y5889417D01*
X4014376Y5896600D01*
D02*
G37*
G36*
X2744376D02*
X2716624D01*
X2689817Y5889417D01*
X2665783Y5875541D01*
X2646159Y5855917D01*
X2632283Y5831883D01*
X2625100Y5805076D01*
Y5777324D01*
X2632283Y5750517D01*
X2646159Y5726483D01*
X2665783Y5706859D01*
X2689817Y5692983D01*
X2716624Y5685800D01*
X2744376D01*
X2771183Y5692983D01*
X2795217Y5706859D01*
X2814841Y5726483D01*
X2828717Y5750517D01*
X2835900Y5777324D01*
Y5805076D01*
X2828717Y5831883D01*
X2814841Y5855917D01*
X2795217Y5875541D01*
X2771183Y5889417D01*
X2744376Y5896600D01*
D02*
G37*
G36*
X2581900Y5778500D02*
X2489200D01*
Y5685800D01*
X2490376D01*
X2517183Y5692983D01*
X2541217Y5706859D01*
X2560841Y5726483D01*
X2574717Y5750517D01*
X2581900Y5777324D01*
Y5778500D01*
D02*
G37*
G36*
X2463800D02*
X2371100D01*
Y5777324D01*
X2378283Y5750517D01*
X2392159Y5726483D01*
X2411783Y5706859D01*
X2435817Y5692983D01*
X2462624Y5685800D01*
X2463800D01*
Y5778500D01*
D02*
G37*
G36*
X3468276Y6709400D02*
X3440524D01*
X3413717Y6702217D01*
X3389683Y6688341D01*
X3370059Y6668717D01*
X3356183Y6644683D01*
X3349000Y6617876D01*
Y6590124D01*
X3356183Y6563317D01*
X3370059Y6539283D01*
X3389683Y6519659D01*
X3402605Y6512199D01*
Y6083300D01*
X3406547Y6063479D01*
X3417775Y6046675D01*
X3640536Y5823915D01*
Y5751200D01*
X3642783Y5734127D01*
X3649373Y5718218D01*
X3659856Y5704556D01*
X3673518Y5694073D01*
X3689427Y5687483D01*
X3706500Y5685236D01*
X3786500D01*
X3803573Y5687483D01*
X3819482Y5694073D01*
X3833144Y5704556D01*
X3843627Y5718218D01*
X3850217Y5734127D01*
X3852464Y5751200D01*
Y5831200D01*
X3850217Y5848273D01*
X3843627Y5864182D01*
X3833144Y5877844D01*
X3819482Y5888327D01*
X3803573Y5894917D01*
X3786500Y5897164D01*
X3713785D01*
X3506195Y6104754D01*
Y6512199D01*
X3519117Y6519659D01*
X3538741Y6539283D01*
X3552617Y6563317D01*
X3559800Y6590124D01*
Y6617876D01*
X3552617Y6644683D01*
X3538741Y6668717D01*
X3519117Y6688341D01*
X3495083Y6702217D01*
X3468276Y6709400D01*
D02*
G37*
G36*
X3214276D02*
X3186524D01*
X3159717Y6702217D01*
X3135683Y6688341D01*
X3116059Y6668717D01*
X3102183Y6644683D01*
X3095000Y6617876D01*
Y6590124D01*
X3102183Y6563317D01*
X3116059Y6539283D01*
X3135683Y6519659D01*
X3148605Y6512199D01*
Y6028554D01*
X3017215Y5897164D01*
X2944500D01*
X2927427Y5894917D01*
X2911518Y5888327D01*
X2897856Y5877844D01*
X2887373Y5864182D01*
X2880783Y5848273D01*
X2878536Y5831200D01*
Y5751200D01*
X2880783Y5734127D01*
X2887373Y5718218D01*
X2897856Y5704556D01*
X2911518Y5694073D01*
X2927427Y5687483D01*
X2944500Y5685236D01*
X3024500D01*
X3041573Y5687483D01*
X3057482Y5694073D01*
X3071144Y5704556D01*
X3081627Y5718218D01*
X3088217Y5734127D01*
X3090464Y5751200D01*
Y5823915D01*
X3237024Y5970475D01*
X3237025Y5970475D01*
X3248253Y5987279D01*
X3252195Y6007100D01*
X3252195Y6007101D01*
Y6512199D01*
X3265117Y6519659D01*
X3284741Y6539283D01*
X3298617Y6563317D01*
X3305800Y6590124D01*
Y6617876D01*
X3298617Y6644683D01*
X3284741Y6668717D01*
X3265117Y6688341D01*
X3241083Y6702217D01*
X3214276Y6709400D01*
D02*
G37*
G36*
X5871764Y5715000D02*
X5778500D01*
Y5621736D01*
X5805800D01*
X5822873Y5623983D01*
X5838782Y5630573D01*
X5852444Y5641056D01*
X5862927Y5654718D01*
X5869517Y5670627D01*
X5871764Y5687700D01*
Y5715000D01*
D02*
G37*
G36*
X5753100D02*
X5659836D01*
Y5687700D01*
X5662083Y5670627D01*
X5668673Y5654718D01*
X5679156Y5641056D01*
X5692818Y5630573D01*
X5708727Y5623983D01*
X5725800Y5621736D01*
X5753100D01*
Y5715000D01*
D02*
G37*
G36*
X1492905Y5213300D02*
X1464495D01*
X1437052Y5205947D01*
X1412448Y5191741D01*
X1392359Y5171652D01*
X1378153Y5147048D01*
X1370800Y5119605D01*
Y5091195D01*
X1378153Y5063752D01*
X1392359Y5039148D01*
X1412448Y5019059D01*
X1437052Y5004853D01*
X1464495Y4997500D01*
X1492905D01*
X1520348Y5004853D01*
X1544952Y5019059D01*
X1565042Y5039148D01*
X1579247Y5063752D01*
X1586600Y5091195D01*
Y5119605D01*
X1579247Y5147048D01*
X1565042Y5171652D01*
X1544952Y5191741D01*
X1520348Y5205947D01*
X1492905Y5213300D01*
D02*
G37*
G36*
X686600D02*
X470800D01*
Y4997500D01*
X686600D01*
Y5213300D01*
D02*
G37*
G36*
X6056400Y4913400D02*
X5881600D01*
Y4738600D01*
X6056400D01*
Y4913400D01*
D02*
G37*
G36*
X2104160D02*
X1929360D01*
Y4738600D01*
X2104160D01*
Y4913400D01*
D02*
G37*
G36*
X632950Y4424839D02*
X535450D01*
X516093Y4422291D01*
X498055Y4414819D01*
X482566Y4402934D01*
X470680Y4387444D01*
X463209Y4369407D01*
X460660Y4350049D01*
Y4252550D01*
X463209Y4233192D01*
X470680Y4215155D01*
X482566Y4199665D01*
X498055Y4187780D01*
X516093Y4180308D01*
X535450Y4177760D01*
X632950D01*
X652307Y4180308D01*
X670345Y4187780D01*
X685834Y4199665D01*
X697720Y4215155D01*
X705191Y4233192D01*
X707740Y4252550D01*
Y4350049D01*
X705191Y4369407D01*
X697720Y4387444D01*
X685834Y4402934D01*
X670345Y4414819D01*
X652307Y4422291D01*
X632950Y4424839D01*
D02*
G37*
G36*
X4813300Y4178234D02*
X2477223D01*
Y3873500D01*
X4813300D01*
Y4178234D01*
D02*
G37*
G36*
X6056400Y3079520D02*
X5981700D01*
Y3004820D01*
X6056400D01*
Y3079520D01*
D02*
G37*
G36*
X5956300D02*
X5881600D01*
Y3004820D01*
X5956300D01*
Y3079520D01*
D02*
G37*
G36*
X6056400Y2979420D02*
X5981700D01*
Y2904720D01*
X6056400D01*
Y2979420D01*
D02*
G37*
G36*
X5956300D02*
X5881600D01*
Y2904720D01*
X5956300D01*
Y2979420D01*
D02*
G37*
G36*
X600380Y3924200D02*
X568020D01*
X536762Y3915825D01*
X508738Y3899645D01*
X485856Y3876763D01*
X469675Y3848738D01*
X461300Y3817481D01*
Y3785120D01*
X469675Y3753863D01*
X485856Y3725838D01*
X508738Y3702956D01*
X536762Y3686776D01*
X568020Y3678401D01*
X600380D01*
X631638Y3686776D01*
X659662Y3702956D01*
X682544Y3725838D01*
X696209Y3749505D01*
X1186125D01*
X1929360Y3006270D01*
Y2904720D01*
X2104160D01*
Y3079520D01*
X2002610D01*
X1244204Y3837925D01*
X1227401Y3849153D01*
X1207579Y3853096D01*
X696209D01*
X682544Y3876763D01*
X659662Y3899645D01*
X631638Y3915825D01*
X600380Y3924200D01*
D02*
G37*
G36*
X4801640Y2264180D02*
X4626840D01*
Y2089380D01*
X4801640D01*
Y2264180D01*
D02*
G37*
G36*
X849400D02*
X674600D01*
Y2089380D01*
X849400D01*
Y2264180D01*
D02*
G37*
G36*
X5807380Y1719099D02*
X5775020D01*
X5743762Y1710724D01*
X5715738Y1694544D01*
X5692856Y1671662D01*
X5676675Y1643637D01*
X5668300Y1612380D01*
Y1580019D01*
X5676675Y1548762D01*
X5692856Y1520737D01*
X5715738Y1497855D01*
X5743762Y1481675D01*
X5775020Y1473300D01*
X5807380D01*
X5838638Y1481675D01*
X5866662Y1497855D01*
X5889544Y1520737D01*
X5905725Y1548762D01*
X5914100Y1580019D01*
Y1612380D01*
X5905725Y1643637D01*
X5889544Y1671662D01*
X5866662Y1694544D01*
X5838638Y1710724D01*
X5807380Y1719099D01*
D02*
G37*
G36*
X5839950Y1219740D02*
X5742450D01*
X5723093Y1217192D01*
X5705055Y1209720D01*
X5689566Y1197835D01*
X5677680Y1182345D01*
X5670209Y1164308D01*
X5667660Y1144950D01*
Y1047451D01*
X5670209Y1028093D01*
X5677680Y1010056D01*
X5689566Y994566D01*
X5705055Y982681D01*
X5723093Y975209D01*
X5742450Y972661D01*
X5839950D01*
X5859307Y975209D01*
X5877345Y982681D01*
X5892834Y994566D01*
X5904720Y1010056D01*
X5912191Y1028093D01*
X5914740Y1047451D01*
Y1144950D01*
X5912191Y1164308D01*
X5904720Y1182345D01*
X5892834Y1197835D01*
X5877345Y1209720D01*
X5859307Y1217192D01*
X5839950Y1219740D01*
D02*
G37*
G36*
X4801640Y430300D02*
X4726940D01*
Y355600D01*
X4801640D01*
Y430300D01*
D02*
G37*
G36*
X4701540D02*
X4626840D01*
Y355600D01*
X4701540D01*
Y430300D01*
D02*
G37*
G36*
X4801640Y330200D02*
X4726940D01*
Y255500D01*
X4801640D01*
Y330200D01*
D02*
G37*
G36*
X4701540D02*
X4626840D01*
Y255500D01*
X4701540D01*
Y330200D01*
D02*
G37*
G36*
X849400Y430300D02*
X674600D01*
Y255500D01*
X849400D01*
Y430300D01*
D02*
G37*
%LPD*%
D10*
X584200Y3801300D02*
X1207579D01*
X2016760Y2992120D01*
X3200400Y6007100D02*
Y6604000D01*
X3454400Y6083300D02*
Y6604000D01*
X2984500Y5791200D02*
X3200400Y6007100D01*
X3454400Y6083300D02*
X3746500Y5791200D01*
D11*
X4724400Y6604000D02*
D03*
X4470400D02*
D03*
X3708400D02*
D03*
X3200400D02*
D03*
X2692400D02*
D03*
X2946400D02*
D03*
X3454400D02*
D03*
X3962400D02*
D03*
X4216400D02*
D03*
X2476500Y5791200D02*
D03*
X2730500D02*
D03*
X4254500D02*
D03*
X4000500D02*
D03*
X5765800Y6489700D02*
D03*
Y6235700D02*
D03*
Y5981700D02*
D03*
D12*
X2438400Y6604000D02*
D03*
X2984500Y5791200D02*
D03*
X3746500D02*
D03*
D13*
X762000Y2176780D02*
D03*
Y342900D02*
D03*
X2016760Y4826000D02*
D03*
Y2992120D02*
D03*
X4714240Y342900D02*
D03*
Y2176780D02*
D03*
X5969000Y2992120D02*
D03*
Y4826000D02*
D03*
D14*
X1117600Y6007100D02*
D03*
D15*
Y6515100D02*
D03*
D16*
X578700Y5105400D02*
D03*
D17*
X1478700D02*
D03*
D18*
X584200Y4301299D02*
D03*
X5791200Y1096200D02*
D03*
D19*
X584200Y3801300D02*
D03*
X5791200Y1596199D02*
D03*
D20*
X5765800Y5727700D02*
D03*
D21*
X4762500Y4127434D02*
Y3975083D01*
X4711717Y4025867D01*
X4660933Y3975083D01*
Y4127434D01*
X4610149Y3975083D02*
X4559366D01*
X4584757D01*
Y4076651D01*
X4610149D01*
X4483190Y3975083D02*
Y4076651D01*
X4407015D01*
X4381623Y4051259D01*
Y3975083D01*
X4229272Y4127434D02*
Y3975083D01*
X4305448D01*
X4330840Y4000475D01*
Y4051259D01*
X4305448Y4076651D01*
X4229272D01*
X3924571Y4102042D02*
X3949963Y4127434D01*
X4000746D01*
X4026138Y4102042D01*
Y4076651D01*
X4000746Y4051259D01*
X3949963D01*
X3924571Y4025867D01*
Y4000475D01*
X3949963Y3975083D01*
X4000746D01*
X4026138Y4000475D01*
X3873788Y3924300D02*
Y4076651D01*
X3797612D01*
X3772220Y4051259D01*
Y4000475D01*
X3797612Y3975083D01*
X3873788D01*
X3721437D02*
X3670653D01*
X3696045D01*
Y4076651D01*
X3721437D01*
X3594478Y3975083D02*
Y4076651D01*
X3518303D01*
X3492911Y4051259D01*
Y3975083D01*
X3289777Y4127434D02*
Y3975083D01*
X3238993Y4025867D01*
X3188209Y3975083D01*
Y4127434D01*
X3137426Y3975083D02*
X3086642D01*
X3112034D01*
Y4076651D01*
X3137426D01*
X3010467Y3975083D02*
Y4076651D01*
X2934292D01*
X2908900Y4051259D01*
Y3975083D01*
X2705765Y4076651D02*
X2680374D01*
Y4051259D01*
X2705765D01*
Y4076651D01*
Y4000475D02*
X2680374D01*
Y3975083D01*
X2705765D01*
Y4000475D01*
X2578807Y3975083D02*
X2528023Y4025867D01*
Y4076651D01*
X2578807Y4127434D01*
%TF.MD5,a9e461648781ef6e7cb6d1292661cb59*%
M02*
