%TF.GenerationSoftware,Altium Limited,Altium Designer,24.10.1 (45)*%
G04 Layer_Physical_Order=1*
G04 Layer_Color=255*
%FSLAX45Y45*%
%MOMM*%
%TF.SameCoordinates,0FFDF30E-0F8A-4EF6-B442-501BBF81013B*%
%TF.FilePolarity,Positive*%
%TF.FileFunction,Copper,L1,Top,Signal*%
%TF.Part,Single*%
G01*
G75*
%TA.AperFunction,Conductor*%
%ADD10C,0.50800*%
%TA.AperFunction,ComponentPad*%
%ADD11C,1.60000*%
G04:AMPARAMS|DCode=12|XSize=1.6mm|YSize=1.6mm|CornerRadius=0.4mm|HoleSize=0mm|Usage=FLASHONLY|Rotation=0.000|XOffset=0mm|YOffset=0mm|HoleType=Round|Shape=RoundedRectangle|*
%AMROUNDEDRECTD12*
21,1,1.60000,0.80000,0,0,0.0*
21,1,0.80000,1.60000,0,0,0.0*
1,1,0.80000,0.40000,-0.40000*
1,1,0.80000,-0.40000,-0.40000*
1,1,0.80000,-0.40000,0.40000*
1,1,0.80000,0.40000,0.40000*
%
%ADD12ROUNDEDRECTD12*%
%ADD13R,1.24000X1.24000*%
%ADD14R,2.35000X2.35000*%
%ADD15C,2.35000*%
%ADD16R,1.65000X1.65000*%
%ADD17C,1.65000*%
G04:AMPARAMS|DCode=18|XSize=1.95mm|YSize=1.95mm|CornerRadius=0.4875mm|HoleSize=0mm|Usage=FLASHONLY|Rotation=270.000|XOffset=0mm|YOffset=0mm|HoleType=Round|Shape=RoundedRectangle|*
%AMROUNDEDRECTD18*
21,1,1.95000,0.97500,0,0,270.0*
21,1,0.97500,1.95000,0,0,270.0*
1,1,0.97500,-0.48750,-0.48750*
1,1,0.97500,-0.48750,0.48750*
1,1,0.97500,0.48750,0.48750*
1,1,0.97500,0.48750,-0.48750*
%
%ADD18ROUNDEDRECTD18*%
%ADD19C,1.95000*%
G04:AMPARAMS|DCode=20|XSize=1.6mm|YSize=1.6mm|CornerRadius=0.4mm|HoleSize=0mm|Usage=FLASHONLY|Rotation=90.000|XOffset=0mm|YOffset=0mm|HoleType=Round|Shape=RoundedRectangle|*
%AMROUNDEDRECTD20*
21,1,1.60000,0.80000,0,0,90.0*
21,1,0.80000,1.60000,0,0,90.0*
1,1,0.80000,0.40000,0.40000*
1,1,0.80000,0.40000,-0.40000*
1,1,0.80000,-0.40000,-0.40000*
1,1,0.80000,-0.40000,0.40000*
%
%ADD20ROUNDEDRECTD20*%
D10*
X254000Y850900D02*
X762000Y342900D01*
Y2176780D02*
X1478700Y2893480D01*
Y5105400D01*
X584200Y4301299D02*
Y5099900D01*
X578700Y5105400D02*
X584200Y5099900D01*
Y3340100D02*
Y3801300D01*
X2430499Y6604000D02*
X2438400D01*
X1117600Y6515100D02*
X2341599D01*
X2430499Y6604000D01*
X2438400Y6083300D02*
Y6604000D01*
Y6083300D02*
X2730500Y5791200D01*
X2438400Y6604000D02*
X2857147Y6185253D01*
X3606447D02*
X4000500Y5791200D01*
X6248400Y4127500D02*
Y5753100D01*
X4475247Y5316453D02*
X5478547D01*
X4714240Y2593340D02*
X6248400Y4127500D01*
X5478547Y5316453D02*
X5969000Y4826000D01*
X5765800Y6235700D02*
X6248400Y5753100D01*
X2692400Y6604000D02*
X3003550Y6292850D01*
X2946400Y6604000D02*
X3162300Y6819900D01*
X2857147Y6185253D02*
X3606447D01*
X3003550Y6292850D02*
X5454650D01*
X3162300Y6819900D02*
X5435600D01*
X5765800Y6489700D01*
X5454650Y6292850D02*
X5765800Y5981700D01*
X1478700Y5105400D02*
X1737360D01*
X2016760Y4826000D01*
X254000Y850900D02*
Y3009900D01*
X584200Y3340100D01*
X762000Y2176780D02*
X1842579Y1096200D01*
X4714240Y2176780D02*
Y2593340D01*
X4000500Y5791200D02*
X4475247Y5316453D01*
X2016760Y2992120D02*
X3412680Y1596199D01*
X5791200D01*
X1842579Y1096200D02*
X5791200D01*
D11*
X4724400Y6604000D02*
D03*
X4470400D02*
D03*
X3708400D02*
D03*
X3200400D02*
D03*
X2692400D02*
D03*
X2946400D02*
D03*
X3454400D02*
D03*
X3962400D02*
D03*
X4216400D02*
D03*
X2476500Y5791200D02*
D03*
X2730500D02*
D03*
X4254500D02*
D03*
X4000500D02*
D03*
X5765800Y6489700D02*
D03*
Y6235700D02*
D03*
Y5981700D02*
D03*
D12*
X2438400Y6604000D02*
D03*
X2984500Y5791200D02*
D03*
X3746500D02*
D03*
D13*
X762000Y2176780D02*
D03*
Y342900D02*
D03*
X2016760Y4826000D02*
D03*
Y2992120D02*
D03*
X4714240Y342900D02*
D03*
Y2176780D02*
D03*
X5969000Y2992120D02*
D03*
Y4826000D02*
D03*
D14*
X1117600Y6007100D02*
D03*
D15*
Y6515100D02*
D03*
D16*
X578700Y5105400D02*
D03*
D17*
X1478700D02*
D03*
D18*
X584200Y4301299D02*
D03*
X5791200Y1096200D02*
D03*
D19*
X584200Y3801300D02*
D03*
X5791200Y1596199D02*
D03*
D20*
X5765800Y5727700D02*
D03*
%TF.MD5,da845ae7441e30307e6c454bda8d7ca0*%
M02*
