%TF.GenerationSoftware,Altium Limited,Altium Designer,24.10.1 (45)*%
G04 Layer_Physical_Order=1*
G04 Layer_Color=255*
%FSLAX45Y45*%
%MOMM*%
%TF.SameCoordinates,84579A9D-6CBE-44F1-8994-53D447095AA9*%
%TF.FilePolarity,Positive*%
%TF.FileFunction,Copper,L1,Top,Signal*%
%TF.Part,Single*%
G01*
G75*
%TA.AperFunction,Conductor*%
%ADD10C,0.50800*%
%TA.AperFunction,ComponentPad*%
%ADD11R,1.50000X1.50000*%
%ADD12C,1.50000*%
%ADD13R,1.25000X1.25000*%
%ADD14C,1.25000*%
%ADD15R,1.50800X1.50800*%
%ADD16C,1.50800*%
%ADD17R,1.25000X1.25000*%
%ADD18C,1.60000*%
G04:AMPARAMS|DCode=19|XSize=1.6mm|YSize=1.6mm|CornerRadius=0.4mm|HoleSize=0mm|Usage=FLASHONLY|Rotation=270.000|XOffset=0mm|YOffset=0mm|HoleType=Round|Shape=RoundedRectangle|*
%AMROUNDEDRECTD19*
21,1,1.60000,0.80000,0,0,270.0*
21,1,0.80000,1.60000,0,0,270.0*
1,1,0.80000,-0.40000,-0.40000*
1,1,0.80000,-0.40000,0.40000*
1,1,0.80000,0.40000,0.40000*
1,1,0.80000,0.40000,-0.40000*
%
%ADD19ROUNDEDRECTD19*%
%ADD20C,1.40000*%
%ADD21R,1.40000X1.40000*%
G36*
X2781300Y1794137D02*
X2770602D01*
X2770453Y1794434D01*
X2770007Y1795177D01*
X2769413Y1796365D01*
X2768373Y1797851D01*
X2767184Y1799634D01*
X2765549Y1801566D01*
X2763766Y1803646D01*
X2761538Y1805875D01*
X2758863Y1808104D01*
X2756040Y1810184D01*
X2752771Y1812116D01*
X2749056Y1813899D01*
X2745044Y1815385D01*
X2740735Y1816574D01*
X2735831Y1817317D01*
X2730631Y1817614D01*
X2730482D01*
X2729888D01*
X2728996D01*
X2727956Y1817465D01*
X2726470Y1817317D01*
X2724836Y1817168D01*
X2723053Y1816871D01*
X2721121Y1816574D01*
X2716812Y1815534D01*
X2714583Y1814939D01*
X2712354Y1814048D01*
X2710125Y1813008D01*
X2707897Y1811967D01*
X2705816Y1810630D01*
X2703736Y1809144D01*
X2703587Y1808996D01*
X2703290Y1808698D01*
X2702696Y1808253D01*
X2702102Y1807658D01*
X2701210Y1806767D01*
X2700318Y1805875D01*
X2699427Y1804687D01*
X2698387Y1803349D01*
X2697347Y1801863D01*
X2696455Y1800229D01*
X2694672Y1796514D01*
X2694078Y1794434D01*
X2693483Y1792205D01*
X2693186Y1789976D01*
X2693038Y1787450D01*
Y1786113D01*
X2693186Y1785221D01*
X2693335Y1784032D01*
X2693632Y1782695D01*
X2693929Y1781209D01*
X2694375Y1779575D01*
X2694969Y1777792D01*
X2695712Y1776009D01*
X2696455Y1774226D01*
X2697495Y1772442D01*
X2698833Y1770511D01*
X2700170Y1768728D01*
X2701804Y1767093D01*
X2703736Y1765459D01*
X2703885Y1765310D01*
X2704182Y1765162D01*
X2704776Y1764716D01*
X2705668Y1764121D01*
X2706708Y1763527D01*
X2707897Y1762933D01*
X2709382Y1762190D01*
X2711017Y1761447D01*
X2712800Y1760555D01*
X2714880Y1759812D01*
X2716961Y1759218D01*
X2719338Y1758624D01*
X2724390Y1757583D01*
X2727065Y1757435D01*
X2729888Y1757286D01*
X2730036D01*
X2730185D01*
X2730631D01*
X2731225D01*
X2732711Y1757435D01*
X2734643Y1757732D01*
X2737020Y1758029D01*
X2739843Y1758475D01*
X2742815Y1759218D01*
X2745936Y1760258D01*
X2749353Y1761447D01*
X2752771Y1763081D01*
X2756188Y1764864D01*
X2759457Y1767242D01*
X2762578Y1769916D01*
X2765549Y1773037D01*
X2768224Y1776603D01*
X2770602Y1780764D01*
X2781300D01*
Y1742873D01*
X2769859D01*
Y1764121D01*
X2769710Y1763973D01*
X2769116Y1763230D01*
X2768075Y1762190D01*
X2766887Y1761001D01*
X2765252Y1759367D01*
X2763321Y1757732D01*
X2760943Y1755949D01*
X2758417Y1754017D01*
X2755594Y1752086D01*
X2752325Y1750303D01*
X2749056Y1748668D01*
X2745341Y1747034D01*
X2741478Y1745845D01*
X2737317Y1744805D01*
X2733008Y1744210D01*
X2728551Y1743913D01*
X2728402D01*
X2727956D01*
X2727213D01*
X2726322Y1744062D01*
X2725133D01*
X2723796Y1744210D01*
X2722310Y1744359D01*
X2720675Y1744508D01*
X2716961Y1745251D01*
X2712949Y1746142D01*
X2708937Y1747331D01*
X2704925Y1749114D01*
X2704776D01*
X2704479Y1749411D01*
X2703885Y1749708D01*
X2703142Y1750154D01*
X2702250Y1750600D01*
X2701210Y1751343D01*
X2698833Y1752977D01*
X2696158Y1755206D01*
X2693483Y1757732D01*
X2690809Y1760704D01*
X2688283Y1764121D01*
X2688134Y1764270D01*
X2687985Y1764567D01*
X2687688Y1765162D01*
X2687243Y1765905D01*
X2686797Y1766796D01*
X2686351Y1767985D01*
X2685757Y1769322D01*
X2685162Y1770808D01*
X2684568Y1772442D01*
X2683974Y1774226D01*
X2683082Y1778237D01*
X2682339Y1782695D01*
X2682042Y1787599D01*
Y1788936D01*
X2682190Y1789828D01*
Y1791016D01*
X2682339Y1792354D01*
X2682488Y1793839D01*
X2682785Y1795474D01*
X2683379Y1799040D01*
X2684419Y1802903D01*
X2685757Y1806618D01*
X2687688Y1810184D01*
Y1810333D01*
X2687985Y1810630D01*
X2688283Y1811076D01*
X2688728Y1811670D01*
X2690066Y1813305D01*
X2691849Y1815385D01*
X2694078Y1817762D01*
X2696901Y1820288D01*
X2700170Y1822814D01*
X2703885Y1825043D01*
X2704033D01*
X2704330Y1825341D01*
X2704925Y1825638D01*
X2705668Y1825935D01*
X2706708Y1826381D01*
X2707897Y1826975D01*
X2709234Y1827421D01*
X2710868Y1828015D01*
X2712651Y1828609D01*
X2714435Y1829055D01*
X2718744Y1830095D01*
X2723350Y1830690D01*
X2728551Y1830987D01*
X2728848D01*
X2729591D01*
X2730928Y1830838D01*
X2732711Y1830690D01*
X2734791Y1830393D01*
X2737169Y1829947D01*
X2739992Y1829352D01*
X2742964Y1828461D01*
X2746084Y1827421D01*
X2749353Y1826083D01*
X2752771Y1824449D01*
X2756337Y1822517D01*
X2759754Y1820140D01*
X2763321Y1817465D01*
X2766590Y1814345D01*
X2769859Y1810779D01*
Y1832027D01*
X2781300D01*
Y1794137D01*
D02*
G37*
G36*
X2737466Y1729797D02*
X2739100D01*
X2741032Y1729649D01*
X2743112Y1729500D01*
X2747570Y1729054D01*
X2752176Y1728460D01*
X2756783Y1727568D01*
X2758863Y1726974D01*
X2760943Y1726380D01*
X2761092D01*
X2761389Y1726231D01*
X2761983Y1726082D01*
X2762726Y1725785D01*
X2763618Y1725339D01*
X2764509Y1724894D01*
X2766887Y1723705D01*
X2769561Y1722219D01*
X2772236Y1720436D01*
X2774911Y1718356D01*
X2777288Y1715830D01*
Y1715681D01*
X2777585Y1715533D01*
X2777734Y1715087D01*
X2778180Y1714641D01*
X2779071Y1713006D01*
X2780111Y1711075D01*
X2781151Y1708400D01*
X2782043Y1705428D01*
X2782637Y1702011D01*
X2782934Y1698147D01*
Y1696810D01*
X2782786Y1695770D01*
X2782637Y1694581D01*
X2782340Y1693244D01*
X2782043Y1691758D01*
X2781746Y1690124D01*
X2780557Y1686557D01*
X2779666Y1684626D01*
X2778774Y1682843D01*
X2777585Y1680911D01*
X2776248Y1679128D01*
X2774762Y1677493D01*
X2772979Y1675859D01*
X2772830Y1675710D01*
X2772385Y1675413D01*
X2771642Y1674967D01*
X2770602Y1674373D01*
X2769264Y1673630D01*
X2767630Y1672887D01*
X2765698Y1671996D01*
X2763321Y1671104D01*
X2760795Y1670213D01*
X2757823Y1669321D01*
X2754554Y1668578D01*
X2750988Y1667835D01*
X2746976Y1667241D01*
X2742815Y1666795D01*
X2738060Y1666498D01*
X2733157Y1666349D01*
X2733008D01*
X2732414D01*
X2731522D01*
X2730334D01*
X2728848Y1666498D01*
X2727213D01*
X2725282Y1666646D01*
X2723201Y1666795D01*
X2718744Y1667241D01*
X2714137Y1667835D01*
X2709531Y1668578D01*
X2707451Y1669172D01*
X2705371Y1669767D01*
X2705222D01*
X2704925Y1669915D01*
X2704330Y1670213D01*
X2703587Y1670510D01*
X2702696Y1670807D01*
X2701656Y1671253D01*
X2699278Y1672441D01*
X2696604Y1673927D01*
X2693929Y1675710D01*
X2691403Y1677791D01*
X2689026Y1680317D01*
Y1680465D01*
X2688728Y1680614D01*
X2688431Y1681060D01*
X2688134Y1681654D01*
X2687243Y1683140D01*
X2686054Y1685220D01*
X2685014Y1687746D01*
X2684122Y1690867D01*
X2683528Y1694284D01*
X2683231Y1698147D01*
Y1699485D01*
X2683379Y1700971D01*
X2683676Y1702754D01*
X2683974Y1704834D01*
X2684568Y1707211D01*
X2685459Y1709589D01*
X2686500Y1711818D01*
X2686648Y1712115D01*
X2687094Y1712858D01*
X2687837Y1713898D01*
X2688728Y1715384D01*
X2690066Y1716870D01*
X2691700Y1718504D01*
X2693483Y1720139D01*
X2695564Y1721625D01*
X2695861Y1721773D01*
X2696604Y1722219D01*
X2697941Y1722962D01*
X2699575Y1723854D01*
X2701656Y1724745D01*
X2704182Y1725785D01*
X2707005Y1726825D01*
X2710125Y1727717D01*
X2710274D01*
X2710571Y1727865D01*
X2711017D01*
X2711760Y1728014D01*
X2712503Y1728311D01*
X2713543Y1728460D01*
X2714880Y1728608D01*
X2716218Y1728906D01*
X2717852Y1729054D01*
X2719487Y1729203D01*
X2721418Y1729500D01*
X2723498Y1729649D01*
X2725727Y1729797D01*
X2727956D01*
X2733157Y1729946D01*
X2733305D01*
X2733900D01*
X2734791D01*
X2735980D01*
X2737466Y1729797D01*
D02*
G37*
G36*
Y1654016D02*
X2739100D01*
X2741032Y1653868D01*
X2743112Y1653719D01*
X2747570Y1653273D01*
X2752176Y1652679D01*
X2756783Y1651787D01*
X2758863Y1651193D01*
X2760943Y1650599D01*
X2761092D01*
X2761389Y1650450D01*
X2761983Y1650301D01*
X2762726Y1650004D01*
X2763618Y1649559D01*
X2764509Y1649113D01*
X2766887Y1647924D01*
X2769561Y1646438D01*
X2772236Y1644655D01*
X2774911Y1642575D01*
X2777288Y1640049D01*
Y1639900D01*
X2777585Y1639752D01*
X2777734Y1639306D01*
X2778180Y1638860D01*
X2779071Y1637226D01*
X2780111Y1635294D01*
X2781151Y1632619D01*
X2782043Y1629647D01*
X2782637Y1626230D01*
X2782934Y1622367D01*
Y1621029D01*
X2782786Y1619989D01*
X2782637Y1618800D01*
X2782340Y1617463D01*
X2782043Y1615977D01*
X2781746Y1614343D01*
X2780557Y1610777D01*
X2779666Y1608845D01*
X2778774Y1607062D01*
X2777585Y1605130D01*
X2776248Y1603347D01*
X2774762Y1601713D01*
X2772979Y1600078D01*
X2772830Y1599929D01*
X2772385Y1599632D01*
X2771642Y1599187D01*
X2770602Y1598592D01*
X2769264Y1597849D01*
X2767630Y1597106D01*
X2765698Y1596215D01*
X2763321Y1595323D01*
X2760795Y1594432D01*
X2757823Y1593540D01*
X2754554Y1592797D01*
X2750988Y1592054D01*
X2746976Y1591460D01*
X2742815Y1591014D01*
X2738060Y1590717D01*
X2733157Y1590568D01*
X2733008D01*
X2732414D01*
X2731522D01*
X2730334D01*
X2728848Y1590717D01*
X2727213D01*
X2725282Y1590865D01*
X2723201Y1591014D01*
X2718744Y1591460D01*
X2714137Y1592054D01*
X2709531Y1592797D01*
X2707451Y1593392D01*
X2705371Y1593986D01*
X2705222D01*
X2704925Y1594134D01*
X2704330Y1594432D01*
X2703587Y1594729D01*
X2702696Y1595026D01*
X2701656Y1595472D01*
X2699278Y1596661D01*
X2696604Y1598146D01*
X2693929Y1599929D01*
X2691403Y1602010D01*
X2689026Y1604536D01*
Y1604684D01*
X2688728Y1604833D01*
X2688431Y1605279D01*
X2688134Y1605873D01*
X2687243Y1607359D01*
X2686054Y1609439D01*
X2685014Y1611965D01*
X2684122Y1615086D01*
X2683528Y1618503D01*
X2683231Y1622367D01*
Y1623704D01*
X2683379Y1625190D01*
X2683676Y1626973D01*
X2683974Y1629053D01*
X2684568Y1631431D01*
X2685459Y1633808D01*
X2686500Y1636037D01*
X2686648Y1636334D01*
X2687094Y1637077D01*
X2687837Y1638117D01*
X2688728Y1639603D01*
X2690066Y1641089D01*
X2691700Y1642723D01*
X2693483Y1644358D01*
X2695564Y1645844D01*
X2695861Y1645992D01*
X2696604Y1646438D01*
X2697941Y1647181D01*
X2699575Y1648073D01*
X2701656Y1648964D01*
X2704182Y1650004D01*
X2707005Y1651044D01*
X2710125Y1651936D01*
X2710274D01*
X2710571Y1652085D01*
X2711017D01*
X2711760Y1652233D01*
X2712503Y1652530D01*
X2713543Y1652679D01*
X2714880Y1652828D01*
X2716218Y1653125D01*
X2717852Y1653273D01*
X2719487Y1653422D01*
X2721418Y1653719D01*
X2723498Y1653868D01*
X2725727Y1654016D01*
X2727956D01*
X2733157Y1654165D01*
X2733305D01*
X2733900D01*
X2734791D01*
X2735980D01*
X2737466Y1654016D01*
D02*
G37*
G36*
X2781300Y1547923D02*
X2704925D01*
X2705073Y1547774D01*
X2705668Y1547180D01*
X2706411Y1546140D01*
X2707451Y1544803D01*
X2708788Y1543168D01*
X2710125Y1541236D01*
X2711760Y1539008D01*
X2713246Y1536482D01*
Y1536333D01*
X2713394Y1536184D01*
X2713989Y1535293D01*
X2714732Y1533956D01*
X2715623Y1532321D01*
X2716663Y1530389D01*
X2717555Y1528309D01*
X2718595Y1526080D01*
X2719487Y1524000D01*
X2707748D01*
Y1524149D01*
X2707599Y1524446D01*
X2707302Y1525040D01*
X2706856Y1525634D01*
X2706411Y1526526D01*
X2705965Y1527566D01*
X2704628Y1529944D01*
X2702993Y1532618D01*
X2701061Y1535590D01*
X2698833Y1538562D01*
X2696455Y1541385D01*
X2696307Y1541534D01*
X2696158Y1541682D01*
X2695266Y1542574D01*
X2693929Y1543911D01*
X2692295Y1545546D01*
X2690214Y1547329D01*
X2687985Y1549112D01*
X2685608Y1550746D01*
X2683231Y1552084D01*
Y1559959D01*
X2781300D01*
Y1547923D01*
D02*
G37*
G36*
X3568700Y1519649D02*
X3558002D01*
X3557853Y1519946D01*
X3557407Y1520689D01*
X3556813Y1521878D01*
X3555773Y1523364D01*
X3554584Y1525147D01*
X3552949Y1527078D01*
X3551166Y1529159D01*
X3548938Y1531388D01*
X3546263Y1533616D01*
X3543440Y1535697D01*
X3540171Y1537628D01*
X3536456Y1539411D01*
X3532444Y1540897D01*
X3528135Y1542086D01*
X3523231Y1542829D01*
X3518031Y1543126D01*
X3517882D01*
X3517288D01*
X3516396D01*
X3515356Y1542978D01*
X3513870Y1542829D01*
X3512236Y1542680D01*
X3510453Y1542383D01*
X3508521Y1542086D01*
X3504212Y1541046D01*
X3501983Y1540452D01*
X3499754Y1539560D01*
X3497525Y1538520D01*
X3495297Y1537480D01*
X3493216Y1536142D01*
X3491136Y1534657D01*
X3490987Y1534508D01*
X3490690Y1534211D01*
X3490096Y1533765D01*
X3489502Y1533171D01*
X3488610Y1532279D01*
X3487718Y1531388D01*
X3486827Y1530199D01*
X3485787Y1528862D01*
X3484747Y1527376D01*
X3483855Y1525741D01*
X3482072Y1522026D01*
X3481478Y1519946D01*
X3480883Y1517717D01*
X3480586Y1515488D01*
X3480438Y1512962D01*
Y1511625D01*
X3480586Y1510734D01*
X3480735Y1509545D01*
X3481032Y1508208D01*
X3481329Y1506722D01*
X3481775Y1505087D01*
X3482369Y1503304D01*
X3483112Y1501521D01*
X3483855Y1499738D01*
X3484895Y1497955D01*
X3486233Y1496023D01*
X3487570Y1494240D01*
X3489204Y1492606D01*
X3491136Y1490971D01*
X3491285Y1490823D01*
X3491582Y1490674D01*
X3492176Y1490228D01*
X3493068Y1489634D01*
X3494108Y1489039D01*
X3495297Y1488445D01*
X3496782Y1487702D01*
X3498417Y1486959D01*
X3500200Y1486068D01*
X3502280Y1485325D01*
X3504361Y1484730D01*
X3506738Y1484136D01*
X3511790Y1483096D01*
X3514465Y1482947D01*
X3517288Y1482799D01*
X3517436D01*
X3517585D01*
X3518031D01*
X3518625D01*
X3520111Y1482947D01*
X3522043Y1483244D01*
X3524420Y1483542D01*
X3527243Y1483987D01*
X3530215Y1484730D01*
X3533336Y1485770D01*
X3536753Y1486959D01*
X3540171Y1488594D01*
X3543588Y1490377D01*
X3546857Y1492754D01*
X3549978Y1495429D01*
X3552949Y1498549D01*
X3555624Y1502115D01*
X3558002Y1506276D01*
X3568700D01*
Y1468385D01*
X3557259D01*
Y1489634D01*
X3557110Y1489485D01*
X3556516Y1488742D01*
X3555475Y1487702D01*
X3554287Y1486513D01*
X3552652Y1484879D01*
X3550721Y1483244D01*
X3548343Y1481461D01*
X3545817Y1479530D01*
X3542994Y1477598D01*
X3539725Y1475815D01*
X3536456Y1474180D01*
X3532741Y1472546D01*
X3528878Y1471357D01*
X3524717Y1470317D01*
X3520408Y1469723D01*
X3515951Y1469426D01*
X3515802D01*
X3515356D01*
X3514613D01*
X3513722Y1469574D01*
X3512533D01*
X3511196Y1469723D01*
X3509710Y1469871D01*
X3508075Y1470020D01*
X3504361Y1470763D01*
X3500349Y1471654D01*
X3496337Y1472843D01*
X3492325Y1474626D01*
X3492176D01*
X3491879Y1474923D01*
X3491285Y1475221D01*
X3490542Y1475666D01*
X3489650Y1476112D01*
X3488610Y1476855D01*
X3486233Y1478490D01*
X3483558Y1480718D01*
X3480883Y1483244D01*
X3478209Y1486216D01*
X3475683Y1489634D01*
X3475534Y1489782D01*
X3475385Y1490080D01*
X3475088Y1490674D01*
X3474643Y1491417D01*
X3474197Y1492308D01*
X3473751Y1493497D01*
X3473157Y1494834D01*
X3472562Y1496320D01*
X3471968Y1497955D01*
X3471374Y1499738D01*
X3470482Y1503750D01*
X3469739Y1508208D01*
X3469442Y1513111D01*
Y1514448D01*
X3469590Y1515340D01*
Y1516529D01*
X3469739Y1517866D01*
X3469888Y1519352D01*
X3470185Y1520986D01*
X3470779Y1524552D01*
X3471819Y1528416D01*
X3473157Y1532131D01*
X3475088Y1535697D01*
Y1535845D01*
X3475385Y1536142D01*
X3475683Y1536588D01*
X3476128Y1537183D01*
X3477466Y1538817D01*
X3479249Y1540897D01*
X3481478Y1543275D01*
X3484301Y1545801D01*
X3487570Y1548327D01*
X3491285Y1550556D01*
X3491433D01*
X3491730Y1550853D01*
X3492325Y1551150D01*
X3493068Y1551447D01*
X3494108Y1551893D01*
X3495297Y1552487D01*
X3496634Y1552933D01*
X3498268Y1553528D01*
X3500051Y1554122D01*
X3501835Y1554568D01*
X3506144Y1555608D01*
X3510750Y1556202D01*
X3515951Y1556499D01*
X3516248D01*
X3516991D01*
X3518328Y1556351D01*
X3520111Y1556202D01*
X3522191Y1555905D01*
X3524569Y1555459D01*
X3527392Y1554865D01*
X3530364Y1553973D01*
X3533484Y1552933D01*
X3536753Y1551596D01*
X3540171Y1549961D01*
X3543737Y1548030D01*
X3547154Y1545652D01*
X3550721Y1542978D01*
X3553990Y1539857D01*
X3557259Y1536291D01*
Y1557539D01*
X3568700D01*
Y1519649D01*
D02*
G37*
G36*
Y1446543D02*
X3532593Y1423065D01*
X3540616Y1414744D01*
X3568700D01*
Y1402709D01*
X3471076D01*
Y1414744D01*
X3526649D01*
X3497971Y1443125D01*
Y1458727D01*
X3524272Y1431684D01*
X3568700Y1461402D01*
Y1446543D01*
D02*
G37*
G36*
Y1322024D02*
X3568551D01*
X3567957D01*
X3567066D01*
X3566025Y1322173D01*
X3564837Y1322321D01*
X3563499Y1322470D01*
X3562013Y1322916D01*
X3560528Y1323362D01*
X3560379D01*
X3560230Y1323510D01*
X3559339Y1323807D01*
X3558150Y1324402D01*
X3556367Y1325293D01*
X3554435Y1326333D01*
X3552207Y1327819D01*
X3549978Y1329305D01*
X3547600Y1331237D01*
X3547452D01*
X3547303Y1331534D01*
X3546411Y1332277D01*
X3545074Y1333466D01*
X3543291Y1335249D01*
X3541211Y1337478D01*
X3538685Y1340152D01*
X3535862Y1343421D01*
X3532741Y1346987D01*
X3532593Y1347136D01*
X3532147Y1347730D01*
X3531553Y1348473D01*
X3530512Y1349513D01*
X3529472Y1350851D01*
X3528135Y1352337D01*
X3525312Y1355606D01*
X3521894Y1359172D01*
X3518477Y1362738D01*
X3516842Y1364521D01*
X3515208Y1366007D01*
X3513573Y1367344D01*
X3512087Y1368533D01*
X3511939D01*
X3511790Y1368830D01*
X3511344Y1369127D01*
X3510750Y1369424D01*
X3509264Y1370316D01*
X3507332Y1371356D01*
X3505103Y1372396D01*
X3502726Y1373288D01*
X3500051Y1373882D01*
X3497525Y1374179D01*
X3497377D01*
X3497228D01*
X3496337Y1374031D01*
X3494999Y1373882D01*
X3493365Y1373585D01*
X3491433Y1372842D01*
X3489502Y1371951D01*
X3487421Y1370762D01*
X3485490Y1368979D01*
X3485341Y1368682D01*
X3484747Y1368087D01*
X3484004Y1366898D01*
X3482964Y1365413D01*
X3482072Y1363481D01*
X3481329Y1361252D01*
X3480735Y1358577D01*
X3480586Y1355606D01*
Y1354714D01*
X3480735Y1354120D01*
X3480883Y1352634D01*
X3481180Y1350702D01*
X3481923Y1348473D01*
X3482815Y1346096D01*
X3484152Y1343867D01*
X3485935Y1341787D01*
X3486233Y1341638D01*
X3486827Y1341044D01*
X3488016Y1340152D01*
X3489650Y1339261D01*
X3491730Y1338221D01*
X3494108Y1337478D01*
X3496931Y1336883D01*
X3500200Y1336586D01*
X3498863Y1324253D01*
X3498714D01*
X3498268D01*
X3497525Y1324402D01*
X3496634Y1324550D01*
X3495445Y1324847D01*
X3494108Y1324996D01*
X3491136Y1325888D01*
X3487718Y1327076D01*
X3484301Y1328711D01*
X3480883Y1330940D01*
X3479397Y1332128D01*
X3477912Y1333614D01*
X3477763Y1333763D01*
X3477614Y1334060D01*
X3477169Y1334506D01*
X3476723Y1335100D01*
X3476277Y1335992D01*
X3475534Y1337032D01*
X3474940Y1338221D01*
X3474197Y1339558D01*
X3473602Y1341044D01*
X3472859Y1342678D01*
X3472265Y1344610D01*
X3471819Y1346542D01*
X3470928Y1350999D01*
X3470779Y1353377D01*
X3470631Y1355903D01*
Y1357240D01*
X3470779Y1358280D01*
X3470928Y1359469D01*
X3471076Y1360806D01*
X3471225Y1362292D01*
X3471671Y1363927D01*
X3472562Y1367493D01*
X3473900Y1371208D01*
X3474791Y1373139D01*
X3475831Y1374922D01*
X3477169Y1376557D01*
X3478506Y1378191D01*
X3478654Y1378340D01*
X3478803Y1378488D01*
X3479249Y1378934D01*
X3479843Y1379529D01*
X3480735Y1380123D01*
X3481626Y1380866D01*
X3483855Y1382352D01*
X3486678Y1383838D01*
X3489947Y1385175D01*
X3493662Y1386215D01*
X3495742Y1386364D01*
X3497823Y1386512D01*
X3498120D01*
X3498863D01*
X3500051Y1386364D01*
X3501537Y1386215D01*
X3503320Y1385918D01*
X3505252Y1385472D01*
X3507332Y1384878D01*
X3509413Y1383986D01*
X3509710Y1383838D01*
X3510453Y1383541D01*
X3511493Y1382946D01*
X3512979Y1382055D01*
X3514762Y1381015D01*
X3516842Y1379677D01*
X3518922Y1377894D01*
X3521300Y1375962D01*
X3521597Y1375665D01*
X3522489Y1374922D01*
X3523826Y1373585D01*
X3524717Y1372693D01*
X3525757Y1371653D01*
X3526946Y1370465D01*
X3528284Y1368979D01*
X3529621Y1367493D01*
X3531255Y1365858D01*
X3532890Y1364075D01*
X3534673Y1361995D01*
X3536456Y1359915D01*
X3538536Y1357537D01*
X3538685Y1357389D01*
X3538982Y1357092D01*
X3539428Y1356497D01*
X3540022Y1355754D01*
X3541508Y1353971D01*
X3543440Y1351742D01*
X3545520Y1349513D01*
X3547600Y1347136D01*
X3549383Y1345204D01*
X3550126Y1344461D01*
X3550869Y1343718D01*
X3551018Y1343570D01*
X3551464Y1343273D01*
X3552058Y1342678D01*
X3552949Y1341935D01*
X3554881Y1340301D01*
X3557259Y1338666D01*
Y1386661D01*
X3568700D01*
Y1322024D01*
D02*
G37*
G36*
Y1292455D02*
X3555030D01*
Y1306125D01*
X3568700D01*
Y1292455D01*
D02*
G37*
G36*
Y1243123D02*
X3492325D01*
X3492473Y1242974D01*
X3493068Y1242380D01*
X3493811Y1241340D01*
X3494851Y1240003D01*
X3496188Y1238368D01*
X3497525Y1236436D01*
X3499160Y1234208D01*
X3500646Y1231682D01*
Y1231533D01*
X3500794Y1231384D01*
X3501389Y1230493D01*
X3502132Y1229156D01*
X3503023Y1227521D01*
X3504063Y1225589D01*
X3504955Y1223509D01*
X3505995Y1221280D01*
X3506887Y1219200D01*
X3495148D01*
Y1219349D01*
X3494999Y1219646D01*
X3494702Y1220240D01*
X3494256Y1220834D01*
X3493811Y1221726D01*
X3493365Y1222766D01*
X3492028Y1225144D01*
X3490393Y1227818D01*
X3488461Y1230790D01*
X3486233Y1233762D01*
X3483855Y1236585D01*
X3483707Y1236734D01*
X3483558Y1236882D01*
X3482666Y1237774D01*
X3481329Y1239111D01*
X3479695Y1240746D01*
X3477614Y1242529D01*
X3475385Y1244312D01*
X3473008Y1245946D01*
X3470631Y1247284D01*
Y1255159D01*
X3568700D01*
Y1243123D01*
D02*
G37*
G36*
X1942699Y1405496D02*
X1903768D01*
X1898419Y1379196D01*
X1898567Y1379344D01*
X1898865Y1379493D01*
X1899310Y1379790D01*
X1899905Y1380236D01*
X1900796Y1380682D01*
X1901688Y1381128D01*
X1904065Y1382316D01*
X1906740Y1383505D01*
X1909860Y1384397D01*
X1913278Y1385139D01*
X1916844Y1385437D01*
X1918033D01*
X1918924Y1385288D01*
X1920113Y1385139D01*
X1921302Y1384991D01*
X1922788Y1384694D01*
X1924274Y1384397D01*
X1927691Y1383208D01*
X1929474Y1382613D01*
X1931257Y1381722D01*
X1933189Y1380682D01*
X1934972Y1379493D01*
X1936755Y1378156D01*
X1938390Y1376521D01*
X1938538Y1376373D01*
X1938835Y1376075D01*
X1939281Y1375630D01*
X1939727Y1374887D01*
X1940470Y1373995D01*
X1941213Y1372955D01*
X1941956Y1371766D01*
X1942847Y1370429D01*
X1943739Y1368795D01*
X1944482Y1367160D01*
X1945225Y1365228D01*
X1945968Y1363297D01*
X1946413Y1361068D01*
X1946859Y1358839D01*
X1947156Y1356313D01*
X1947305Y1353787D01*
Y1353638D01*
Y1353193D01*
Y1352450D01*
X1947156Y1351558D01*
X1947008Y1350369D01*
X1946859Y1349032D01*
X1946711Y1347546D01*
X1946413Y1345912D01*
X1945373Y1342346D01*
X1944036Y1338631D01*
X1943144Y1336551D01*
X1942104Y1334619D01*
X1940916Y1332687D01*
X1939578Y1330904D01*
X1939430Y1330756D01*
X1939133Y1330458D01*
X1938538Y1329864D01*
X1937795Y1329121D01*
X1936904Y1328229D01*
X1935715Y1327189D01*
X1934378Y1326149D01*
X1932743Y1325109D01*
X1931109Y1323920D01*
X1929177Y1322880D01*
X1926948Y1321840D01*
X1924719Y1320949D01*
X1922193Y1320206D01*
X1919667Y1319611D01*
X1916844Y1319314D01*
X1913872Y1319166D01*
X1912535D01*
X1911643Y1319314D01*
X1910603Y1319463D01*
X1909266Y1319611D01*
X1907780Y1319760D01*
X1906146Y1320057D01*
X1902728Y1320949D01*
X1899162Y1322286D01*
X1897379Y1323177D01*
X1895596Y1324218D01*
X1893813Y1325258D01*
X1892178Y1326595D01*
X1892029Y1326744D01*
X1891881Y1326892D01*
X1891435Y1327338D01*
X1890841Y1327932D01*
X1890246Y1328675D01*
X1889503Y1329567D01*
X1888761Y1330607D01*
X1887869Y1331796D01*
X1886234Y1334619D01*
X1884600Y1338036D01*
X1883411Y1341900D01*
X1882965Y1344129D01*
X1882668Y1346357D01*
X1895298Y1347249D01*
Y1347100D01*
Y1346803D01*
X1895447Y1346357D01*
X1895596Y1345763D01*
X1896041Y1344129D01*
X1896636Y1342048D01*
X1897379Y1339820D01*
X1898567Y1337591D01*
X1899905Y1335362D01*
X1901688Y1333430D01*
X1901985Y1333282D01*
X1902579Y1332687D01*
X1903620Y1332093D01*
X1905105Y1331201D01*
X1906888Y1330458D01*
X1908969Y1329715D01*
X1911346Y1329121D01*
X1913872Y1328972D01*
X1914764D01*
X1915358Y1329121D01*
X1916993Y1329270D01*
X1919073Y1329715D01*
X1921302Y1330607D01*
X1923828Y1331647D01*
X1926205Y1333282D01*
X1927394Y1334173D01*
X1928583Y1335362D01*
Y1335510D01*
X1928880Y1335659D01*
X1929474Y1336551D01*
X1930514Y1338036D01*
X1931554Y1339968D01*
X1932595Y1342494D01*
X1933635Y1345466D01*
X1934229Y1348884D01*
X1934526Y1352747D01*
Y1352895D01*
Y1353193D01*
Y1353787D01*
X1934378Y1354381D01*
Y1355273D01*
X1934229Y1356313D01*
X1933783Y1358690D01*
X1933189Y1361216D01*
X1932149Y1363891D01*
X1930663Y1366566D01*
X1928731Y1368943D01*
X1928434Y1369240D01*
X1927691Y1369835D01*
X1926502Y1370875D01*
X1924719Y1371915D01*
X1922639Y1372955D01*
X1919964Y1373995D01*
X1916993Y1374590D01*
X1913724Y1374887D01*
X1912683D01*
X1911643Y1374738D01*
X1910157Y1374590D01*
X1908523Y1374144D01*
X1906740Y1373698D01*
X1904957Y1372955D01*
X1903174Y1372064D01*
X1903025Y1371915D01*
X1902431Y1371618D01*
X1901539Y1371023D01*
X1900499Y1370280D01*
X1899459Y1369240D01*
X1898270Y1368052D01*
X1897082Y1366714D01*
X1896041Y1365228D01*
X1884749Y1366863D01*
X1894258Y1416938D01*
X1942699D01*
Y1405496D01*
D02*
G37*
G36*
X2081928Y1419910D02*
X2083116D01*
X2084454Y1419761D01*
X2085939Y1419612D01*
X2087574Y1419315D01*
X2091140Y1418721D01*
X2095003Y1417681D01*
X2098718Y1416343D01*
X2102284Y1414412D01*
X2102433D01*
X2102730Y1414115D01*
X2103176Y1413817D01*
X2103770Y1413372D01*
X2105405Y1412034D01*
X2107485Y1410251D01*
X2109862Y1408022D01*
X2112388Y1405199D01*
X2114914Y1401930D01*
X2117143Y1398215D01*
Y1398067D01*
X2117441Y1397770D01*
X2117738Y1397175D01*
X2118035Y1396432D01*
X2118481Y1395392D01*
X2119075Y1394203D01*
X2119521Y1392866D01*
X2120115Y1391232D01*
X2120709Y1389449D01*
X2121155Y1387665D01*
X2122195Y1383356D01*
X2122790Y1378750D01*
X2123087Y1373549D01*
Y1373252D01*
Y1372509D01*
X2122938Y1371172D01*
X2122790Y1369389D01*
X2122493Y1367309D01*
X2122047Y1364931D01*
X2121452Y1362108D01*
X2120561Y1359136D01*
X2119521Y1356016D01*
X2118183Y1352747D01*
X2116549Y1349329D01*
X2114617Y1345763D01*
X2112240Y1342346D01*
X2109565Y1338779D01*
X2106445Y1335510D01*
X2102879Y1332241D01*
X2124127D01*
Y1320800D01*
X2086237D01*
Y1331498D01*
X2086534Y1331647D01*
X2087277Y1332093D01*
X2088465Y1332687D01*
X2089951Y1333727D01*
X2091734Y1334916D01*
X2093666Y1336551D01*
X2095746Y1338334D01*
X2097975Y1340562D01*
X2100204Y1343237D01*
X2102284Y1346060D01*
X2104216Y1349329D01*
X2105999Y1353044D01*
X2107485Y1357056D01*
X2108674Y1361365D01*
X2109417Y1366269D01*
X2109714Y1371469D01*
Y1371618D01*
Y1372212D01*
Y1373104D01*
X2109565Y1374144D01*
X2109417Y1375630D01*
X2109268Y1377264D01*
X2108971Y1379047D01*
X2108674Y1380979D01*
X2107634Y1385288D01*
X2107039Y1387517D01*
X2106148Y1389746D01*
X2105108Y1391975D01*
X2104067Y1394203D01*
X2102730Y1396284D01*
X2101244Y1398364D01*
X2101096Y1398513D01*
X2100798Y1398810D01*
X2100353Y1399404D01*
X2099758Y1399998D01*
X2098867Y1400890D01*
X2097975Y1401782D01*
X2096787Y1402673D01*
X2095449Y1403713D01*
X2093963Y1404753D01*
X2092329Y1405645D01*
X2088614Y1407428D01*
X2086534Y1408022D01*
X2084305Y1408617D01*
X2082076Y1408914D01*
X2079550Y1409062D01*
X2078213D01*
X2077321Y1408914D01*
X2076132Y1408765D01*
X2074795Y1408468D01*
X2073309Y1408171D01*
X2071675Y1407725D01*
X2069892Y1407131D01*
X2068109Y1406388D01*
X2066326Y1405645D01*
X2064542Y1404605D01*
X2062611Y1403267D01*
X2060828Y1401930D01*
X2059193Y1400296D01*
X2057559Y1398364D01*
X2057410Y1398215D01*
X2057262Y1397918D01*
X2056816Y1397324D01*
X2056221Y1396432D01*
X2055627Y1395392D01*
X2055033Y1394203D01*
X2054290Y1392718D01*
X2053547Y1391083D01*
X2052655Y1389300D01*
X2051912Y1387220D01*
X2051318Y1385139D01*
X2050724Y1382762D01*
X2049683Y1377710D01*
X2049535Y1375035D01*
X2049386Y1372212D01*
Y1372064D01*
Y1371915D01*
Y1371469D01*
Y1370875D01*
X2049535Y1369389D01*
X2049832Y1367457D01*
X2050129Y1365080D01*
X2050575Y1362257D01*
X2051318Y1359285D01*
X2052358Y1356164D01*
X2053547Y1352747D01*
X2055181Y1349329D01*
X2056964Y1345912D01*
X2059342Y1342643D01*
X2062016Y1339522D01*
X2065137Y1336551D01*
X2068703Y1333876D01*
X2072864Y1331498D01*
Y1320800D01*
X2034973D01*
Y1332241D01*
X2056221D01*
X2056073Y1332390D01*
X2055330Y1332984D01*
X2054290Y1334025D01*
X2053101Y1335213D01*
X2051467Y1336848D01*
X2049832Y1338779D01*
X2048049Y1341157D01*
X2046117Y1343683D01*
X2044186Y1346506D01*
X2042403Y1349775D01*
X2040768Y1353044D01*
X2039134Y1356759D01*
X2037945Y1360622D01*
X2036905Y1364783D01*
X2036310Y1369092D01*
X2036013Y1373549D01*
Y1373698D01*
Y1374144D01*
Y1374887D01*
X2036162Y1375778D01*
Y1376967D01*
X2036310Y1378304D01*
X2036459Y1379790D01*
X2036608Y1381425D01*
X2037351Y1385139D01*
X2038242Y1389151D01*
X2039431Y1393163D01*
X2041214Y1397175D01*
Y1397324D01*
X2041511Y1397621D01*
X2041808Y1398215D01*
X2042254Y1398958D01*
X2042700Y1399850D01*
X2043443Y1400890D01*
X2045077Y1403267D01*
X2047306Y1405942D01*
X2049832Y1408617D01*
X2052804Y1411291D01*
X2056221Y1413817D01*
X2056370Y1413966D01*
X2056667Y1414115D01*
X2057262Y1414412D01*
X2058005Y1414857D01*
X2058896Y1415303D01*
X2060085Y1415749D01*
X2061422Y1416343D01*
X2062908Y1416938D01*
X2064542Y1417532D01*
X2066326Y1418126D01*
X2070337Y1419018D01*
X2074795Y1419761D01*
X2079699Y1420058D01*
X2081036D01*
X2081928Y1419910D01*
D02*
G37*
G36*
X1852059Y1320800D02*
X1840023D01*
Y1397175D01*
X1839874Y1397027D01*
X1839280Y1396432D01*
X1838240Y1395689D01*
X1836903Y1394649D01*
X1835268Y1393312D01*
X1833336Y1391975D01*
X1831108Y1390340D01*
X1828582Y1388854D01*
X1828433D01*
X1828284Y1388706D01*
X1827393Y1388111D01*
X1826056Y1387368D01*
X1824421Y1386477D01*
X1822489Y1385437D01*
X1820409Y1384545D01*
X1818180Y1383505D01*
X1816100Y1382613D01*
Y1394352D01*
X1816249D01*
X1816546Y1394501D01*
X1817140Y1394798D01*
X1817734Y1395244D01*
X1818626Y1395689D01*
X1819666Y1396135D01*
X1822044Y1397472D01*
X1824718Y1399107D01*
X1827690Y1401039D01*
X1830662Y1403267D01*
X1833485Y1405645D01*
X1833634Y1405793D01*
X1833782Y1405942D01*
X1834674Y1406834D01*
X1836011Y1408171D01*
X1837646Y1409805D01*
X1839429Y1411886D01*
X1841212Y1414115D01*
X1842846Y1416492D01*
X1844184Y1418869D01*
X1852059D01*
Y1320800D01*
D02*
G37*
G36*
X1993071Y1418721D02*
X1994854Y1418424D01*
X1996934Y1418126D01*
X1999311Y1417532D01*
X2001689Y1416641D01*
X2003918Y1415600D01*
X2004215Y1415452D01*
X2004958Y1415006D01*
X2005998Y1414263D01*
X2007484Y1413372D01*
X2008970Y1412034D01*
X2010604Y1410400D01*
X2012239Y1408617D01*
X2013725Y1406536D01*
X2013873Y1406239D01*
X2014319Y1405496D01*
X2015062Y1404159D01*
X2015954Y1402524D01*
X2016845Y1400444D01*
X2017885Y1397918D01*
X2018925Y1395095D01*
X2019817Y1391975D01*
Y1391826D01*
X2019965Y1391529D01*
Y1391083D01*
X2020114Y1390340D01*
X2020411Y1389597D01*
X2020560Y1388557D01*
X2020708Y1387220D01*
X2021006Y1385882D01*
X2021154Y1384248D01*
X2021303Y1382613D01*
X2021600Y1380682D01*
X2021749Y1378602D01*
X2021897Y1376373D01*
Y1374144D01*
X2022046Y1368943D01*
Y1368795D01*
Y1368200D01*
Y1367309D01*
Y1366120D01*
X2021897Y1364634D01*
Y1363000D01*
X2021749Y1361068D01*
X2021600Y1358988D01*
X2021154Y1354530D01*
X2020560Y1349924D01*
X2019668Y1345317D01*
X2019074Y1343237D01*
X2018480Y1341157D01*
Y1341008D01*
X2018331Y1340711D01*
X2018182Y1340117D01*
X2017885Y1339374D01*
X2017439Y1338482D01*
X2016994Y1337591D01*
X2015805Y1335213D01*
X2014319Y1332539D01*
X2012536Y1329864D01*
X2010456Y1327189D01*
X2007930Y1324812D01*
X2007781D01*
X2007633Y1324515D01*
X2007187Y1324366D01*
X2006741Y1323920D01*
X2005106Y1323029D01*
X2003175Y1321989D01*
X2000500Y1320949D01*
X1997528Y1320057D01*
X1994111Y1319463D01*
X1990247Y1319166D01*
X1988910D01*
X1987870Y1319314D01*
X1986681Y1319463D01*
X1985344Y1319760D01*
X1983858Y1320057D01*
X1982224Y1320354D01*
X1978657Y1321543D01*
X1976726Y1322434D01*
X1974943Y1323326D01*
X1973011Y1324515D01*
X1971228Y1325852D01*
X1969593Y1327338D01*
X1967959Y1329121D01*
X1967810Y1329270D01*
X1967513Y1329715D01*
X1967067Y1330458D01*
X1966473Y1331498D01*
X1965730Y1332836D01*
X1964987Y1334470D01*
X1964096Y1336402D01*
X1963204Y1338779D01*
X1962313Y1341305D01*
X1961421Y1344277D01*
X1960678Y1347546D01*
X1959935Y1351112D01*
X1959341Y1355124D01*
X1958895Y1359285D01*
X1958598Y1364040D01*
X1958449Y1368943D01*
Y1369092D01*
Y1369686D01*
Y1370578D01*
Y1371766D01*
X1958598Y1373252D01*
Y1374887D01*
X1958746Y1376818D01*
X1958895Y1378899D01*
X1959341Y1383356D01*
X1959935Y1387963D01*
X1960678Y1392569D01*
X1961272Y1394649D01*
X1961867Y1396729D01*
Y1396878D01*
X1962015Y1397175D01*
X1962313Y1397770D01*
X1962610Y1398513D01*
X1962907Y1399404D01*
X1963353Y1400444D01*
X1964541Y1402822D01*
X1966027Y1405496D01*
X1967810Y1408171D01*
X1969891Y1410697D01*
X1972417Y1413074D01*
X1972565D01*
X1972714Y1413372D01*
X1973160Y1413669D01*
X1973754Y1413966D01*
X1975240Y1414857D01*
X1977320Y1416046D01*
X1979846Y1417086D01*
X1982967Y1417978D01*
X1986384Y1418572D01*
X1990247Y1418869D01*
X1991585D01*
X1993071Y1418721D01*
D02*
G37*
G36*
X3187700Y2332449D02*
X3177002D01*
X3176853Y2332746D01*
X3176407Y2333489D01*
X3175813Y2334678D01*
X3174773Y2336164D01*
X3173584Y2337947D01*
X3171949Y2339878D01*
X3170166Y2341959D01*
X3167938Y2344188D01*
X3165263Y2346416D01*
X3162440Y2348497D01*
X3159171Y2350428D01*
X3155456Y2352211D01*
X3151444Y2353697D01*
X3147135Y2354886D01*
X3142231Y2355629D01*
X3137031Y2355926D01*
X3136882D01*
X3136288D01*
X3135396D01*
X3134356Y2355778D01*
X3132870Y2355629D01*
X3131236Y2355480D01*
X3129453Y2355183D01*
X3127521Y2354886D01*
X3123212Y2353846D01*
X3120983Y2353252D01*
X3118754Y2352360D01*
X3116525Y2351320D01*
X3114297Y2350280D01*
X3112216Y2348942D01*
X3110136Y2347457D01*
X3109987Y2347308D01*
X3109690Y2347011D01*
X3109096Y2346565D01*
X3108502Y2345971D01*
X3107610Y2345079D01*
X3106718Y2344188D01*
X3105827Y2342999D01*
X3104787Y2341662D01*
X3103747Y2340176D01*
X3102855Y2338541D01*
X3101072Y2334826D01*
X3100478Y2332746D01*
X3099883Y2330517D01*
X3099586Y2328288D01*
X3099438Y2325762D01*
Y2324425D01*
X3099586Y2323534D01*
X3099735Y2322345D01*
X3100032Y2321008D01*
X3100329Y2319522D01*
X3100775Y2317887D01*
X3101369Y2316104D01*
X3102112Y2314321D01*
X3102855Y2312538D01*
X3103895Y2310755D01*
X3105233Y2308823D01*
X3106570Y2307040D01*
X3108204Y2305406D01*
X3110136Y2303771D01*
X3110285Y2303623D01*
X3110582Y2303474D01*
X3111176Y2303028D01*
X3112068Y2302434D01*
X3113108Y2301839D01*
X3114297Y2301245D01*
X3115782Y2300502D01*
X3117417Y2299759D01*
X3119200Y2298868D01*
X3121280Y2298125D01*
X3123361Y2297530D01*
X3125738Y2296936D01*
X3130790Y2295896D01*
X3133465Y2295747D01*
X3136288Y2295599D01*
X3136436D01*
X3136585D01*
X3137031D01*
X3137625D01*
X3139111Y2295747D01*
X3141043Y2296044D01*
X3143420Y2296342D01*
X3146243Y2296787D01*
X3149215Y2297530D01*
X3152336Y2298570D01*
X3155753Y2299759D01*
X3159171Y2301394D01*
X3162588Y2303177D01*
X3165857Y2305554D01*
X3168978Y2308229D01*
X3171949Y2311349D01*
X3174624Y2314915D01*
X3177002Y2319076D01*
X3187700D01*
Y2281185D01*
X3176259D01*
Y2302434D01*
X3176110Y2302285D01*
X3175516Y2301542D01*
X3174475Y2300502D01*
X3173287Y2299313D01*
X3171652Y2297679D01*
X3169721Y2296044D01*
X3167343Y2294261D01*
X3164817Y2292330D01*
X3161994Y2290398D01*
X3158725Y2288615D01*
X3155456Y2286980D01*
X3151741Y2285346D01*
X3147878Y2284157D01*
X3143717Y2283117D01*
X3139408Y2282523D01*
X3134951Y2282226D01*
X3134802D01*
X3134356D01*
X3133613D01*
X3132722Y2282374D01*
X3131533D01*
X3130196Y2282523D01*
X3128710Y2282671D01*
X3127075Y2282820D01*
X3123361Y2283563D01*
X3119349Y2284454D01*
X3115337Y2285643D01*
X3111325Y2287426D01*
X3111176D01*
X3110879Y2287723D01*
X3110285Y2288021D01*
X3109542Y2288466D01*
X3108650Y2288912D01*
X3107610Y2289655D01*
X3105233Y2291290D01*
X3102558Y2293518D01*
X3099883Y2296044D01*
X3097209Y2299016D01*
X3094683Y2302434D01*
X3094534Y2302582D01*
X3094385Y2302880D01*
X3094088Y2303474D01*
X3093643Y2304217D01*
X3093197Y2305108D01*
X3092751Y2306297D01*
X3092157Y2307634D01*
X3091562Y2309120D01*
X3090968Y2310755D01*
X3090374Y2312538D01*
X3089482Y2316550D01*
X3088739Y2321008D01*
X3088442Y2325911D01*
Y2327248D01*
X3088590Y2328140D01*
Y2329329D01*
X3088739Y2330666D01*
X3088888Y2332152D01*
X3089185Y2333786D01*
X3089779Y2337352D01*
X3090819Y2341216D01*
X3092157Y2344931D01*
X3094088Y2348497D01*
Y2348645D01*
X3094385Y2348942D01*
X3094683Y2349388D01*
X3095128Y2349983D01*
X3096466Y2351617D01*
X3098249Y2353697D01*
X3100478Y2356075D01*
X3103301Y2358601D01*
X3106570Y2361127D01*
X3110285Y2363356D01*
X3110433D01*
X3110730Y2363653D01*
X3111325Y2363950D01*
X3112068Y2364247D01*
X3113108Y2364693D01*
X3114297Y2365287D01*
X3115634Y2365733D01*
X3117268Y2366327D01*
X3119051Y2366922D01*
X3120835Y2367368D01*
X3125144Y2368408D01*
X3129750Y2369002D01*
X3134951Y2369299D01*
X3135248D01*
X3135991D01*
X3137328Y2369151D01*
X3139111Y2369002D01*
X3141191Y2368705D01*
X3143569Y2368259D01*
X3146392Y2367665D01*
X3149364Y2366773D01*
X3152484Y2365733D01*
X3155753Y2364396D01*
X3159171Y2362761D01*
X3162737Y2360830D01*
X3166154Y2358452D01*
X3169721Y2355778D01*
X3172990Y2352657D01*
X3176259Y2349091D01*
Y2370339D01*
X3187700D01*
Y2332449D01*
D02*
G37*
G36*
Y2259343D02*
X3151593Y2235865D01*
X3159616Y2227544D01*
X3187700D01*
Y2215509D01*
X3090076D01*
Y2227544D01*
X3145649D01*
X3116971Y2255925D01*
Y2271527D01*
X3143272Y2244484D01*
X3187700Y2274202D01*
Y2259343D01*
D02*
G37*
G36*
Y2134824D02*
X3187551D01*
X3186957D01*
X3186066D01*
X3185025Y2134973D01*
X3183837Y2135121D01*
X3182499Y2135270D01*
X3181013Y2135716D01*
X3179528Y2136162D01*
X3179379D01*
X3179230Y2136310D01*
X3178339Y2136607D01*
X3177150Y2137202D01*
X3175367Y2138093D01*
X3173435Y2139133D01*
X3171207Y2140619D01*
X3168978Y2142105D01*
X3166600Y2144037D01*
X3166452D01*
X3166303Y2144334D01*
X3165411Y2145077D01*
X3164074Y2146266D01*
X3162291Y2148049D01*
X3160211Y2150278D01*
X3157685Y2152952D01*
X3154862Y2156221D01*
X3151741Y2159787D01*
X3151593Y2159936D01*
X3151147Y2160530D01*
X3150552Y2161273D01*
X3149512Y2162313D01*
X3148472Y2163651D01*
X3147135Y2165137D01*
X3144312Y2168406D01*
X3140894Y2171972D01*
X3137477Y2175538D01*
X3135842Y2177321D01*
X3134208Y2178807D01*
X3132573Y2180144D01*
X3131087Y2181333D01*
X3130939D01*
X3130790Y2181630D01*
X3130344Y2181927D01*
X3129750Y2182224D01*
X3128264Y2183116D01*
X3126332Y2184156D01*
X3124103Y2185196D01*
X3121726Y2186088D01*
X3119051Y2186682D01*
X3116525Y2186979D01*
X3116377D01*
X3116228D01*
X3115337Y2186831D01*
X3113999Y2186682D01*
X3112365Y2186385D01*
X3110433Y2185642D01*
X3108502Y2184751D01*
X3106421Y2183562D01*
X3104490Y2181779D01*
X3104341Y2181482D01*
X3103747Y2180887D01*
X3103004Y2179698D01*
X3101964Y2178213D01*
X3101072Y2176281D01*
X3100329Y2174052D01*
X3099735Y2171377D01*
X3099586Y2168406D01*
Y2167514D01*
X3099735Y2166920D01*
X3099883Y2165434D01*
X3100180Y2163502D01*
X3100923Y2161273D01*
X3101815Y2158896D01*
X3103152Y2156667D01*
X3104935Y2154587D01*
X3105233Y2154438D01*
X3105827Y2153844D01*
X3107016Y2152952D01*
X3108650Y2152061D01*
X3110730Y2151021D01*
X3113108Y2150278D01*
X3115931Y2149683D01*
X3119200Y2149386D01*
X3117863Y2137053D01*
X3117714D01*
X3117268D01*
X3116525Y2137202D01*
X3115634Y2137350D01*
X3114445Y2137647D01*
X3113108Y2137796D01*
X3110136Y2138688D01*
X3106718Y2139876D01*
X3103301Y2141511D01*
X3099883Y2143740D01*
X3098397Y2144928D01*
X3096912Y2146414D01*
X3096763Y2146563D01*
X3096614Y2146860D01*
X3096169Y2147306D01*
X3095723Y2147900D01*
X3095277Y2148792D01*
X3094534Y2149832D01*
X3093940Y2151021D01*
X3093197Y2152358D01*
X3092602Y2153844D01*
X3091859Y2155478D01*
X3091265Y2157410D01*
X3090819Y2159342D01*
X3089928Y2163799D01*
X3089779Y2166177D01*
X3089631Y2168703D01*
Y2170040D01*
X3089779Y2171080D01*
X3089928Y2172269D01*
X3090076Y2173606D01*
X3090225Y2175092D01*
X3090671Y2176727D01*
X3091562Y2180293D01*
X3092900Y2184008D01*
X3093791Y2185939D01*
X3094831Y2187722D01*
X3096169Y2189357D01*
X3097506Y2190991D01*
X3097654Y2191140D01*
X3097803Y2191288D01*
X3098249Y2191734D01*
X3098843Y2192329D01*
X3099735Y2192923D01*
X3100626Y2193666D01*
X3102855Y2195152D01*
X3105678Y2196638D01*
X3108947Y2197975D01*
X3112662Y2199015D01*
X3114742Y2199164D01*
X3116823Y2199312D01*
X3117120D01*
X3117863D01*
X3119051Y2199164D01*
X3120537Y2199015D01*
X3122320Y2198718D01*
X3124252Y2198272D01*
X3126332Y2197678D01*
X3128413Y2196786D01*
X3128710Y2196638D01*
X3129453Y2196341D01*
X3130493Y2195746D01*
X3131979Y2194855D01*
X3133762Y2193815D01*
X3135842Y2192477D01*
X3137922Y2190694D01*
X3140300Y2188762D01*
X3140597Y2188465D01*
X3141489Y2187722D01*
X3142826Y2186385D01*
X3143717Y2185493D01*
X3144757Y2184453D01*
X3145946Y2183265D01*
X3147284Y2181779D01*
X3148621Y2180293D01*
X3150255Y2178658D01*
X3151890Y2176875D01*
X3153673Y2174795D01*
X3155456Y2172715D01*
X3157536Y2170337D01*
X3157685Y2170189D01*
X3157982Y2169892D01*
X3158428Y2169297D01*
X3159022Y2168554D01*
X3160508Y2166771D01*
X3162440Y2164542D01*
X3164520Y2162313D01*
X3166600Y2159936D01*
X3168383Y2158004D01*
X3169126Y2157261D01*
X3169869Y2156518D01*
X3170018Y2156370D01*
X3170464Y2156073D01*
X3171058Y2155478D01*
X3171949Y2154735D01*
X3173881Y2153101D01*
X3176259Y2151466D01*
Y2199461D01*
X3187700D01*
Y2134824D01*
D02*
G37*
G36*
Y2105255D02*
X3174030D01*
Y2118925D01*
X3187700D01*
Y2105255D01*
D02*
G37*
G36*
Y2055923D02*
X3111325D01*
X3111473Y2055774D01*
X3112068Y2055180D01*
X3112811Y2054140D01*
X3113851Y2052803D01*
X3115188Y2051168D01*
X3116525Y2049236D01*
X3118160Y2047008D01*
X3119646Y2044482D01*
Y2044333D01*
X3119794Y2044184D01*
X3120389Y2043293D01*
X3121132Y2041956D01*
X3122023Y2040321D01*
X3123063Y2038389D01*
X3123955Y2036309D01*
X3124995Y2034080D01*
X3125887Y2032000D01*
X3114148D01*
Y2032149D01*
X3113999Y2032446D01*
X3113702Y2033040D01*
X3113256Y2033634D01*
X3112811Y2034526D01*
X3112365Y2035566D01*
X3111028Y2037944D01*
X3109393Y2040618D01*
X3107461Y2043590D01*
X3105233Y2046562D01*
X3102855Y2049385D01*
X3102707Y2049534D01*
X3102558Y2049682D01*
X3101666Y2050574D01*
X3100329Y2051911D01*
X3098695Y2053546D01*
X3096614Y2055329D01*
X3094385Y2057112D01*
X3092008Y2058746D01*
X3089631Y2060084D01*
Y2067959D01*
X3187700D01*
Y2055923D01*
D02*
G37*
%LPC*%
G36*
X2737466Y1717613D02*
X2733157D01*
X2732860D01*
X2732117D01*
X2730928D01*
X2729293Y1717464D01*
X2727362D01*
X2725133Y1717316D01*
X2722756Y1717167D01*
X2720081Y1716870D01*
X2714732Y1716275D01*
X2709531Y1715235D01*
X2707005Y1714641D01*
X2704776Y1713898D01*
X2702844Y1713006D01*
X2701210Y1711966D01*
X2701061D01*
X2700913Y1711669D01*
X2700021Y1710926D01*
X2698684Y1709737D01*
X2697198Y1708103D01*
X2695712Y1706023D01*
X2694375Y1703645D01*
X2693483Y1700971D01*
X2693335Y1699485D01*
X2693186Y1697999D01*
Y1697256D01*
X2693335Y1696662D01*
X2693483Y1695176D01*
X2694078Y1693244D01*
X2694969Y1691164D01*
X2696158Y1688935D01*
X2697941Y1686706D01*
X2699130Y1685666D01*
X2700318Y1684774D01*
X2700467D01*
X2700764Y1684477D01*
X2701359Y1684180D01*
X2702102Y1683883D01*
X2703142Y1683437D01*
X2704330Y1682843D01*
X2705965Y1682248D01*
X2707748Y1681803D01*
X2709828Y1681208D01*
X2712206Y1680614D01*
X2714880Y1680168D01*
X2718001Y1679574D01*
X2721270Y1679277D01*
X2724836Y1678979D01*
X2728848Y1678682D01*
X2733157D01*
X2733454D01*
X2734197D01*
X2735386D01*
X2737020Y1678831D01*
X2738952D01*
X2741181Y1678979D01*
X2743707Y1679128D01*
X2746233Y1679425D01*
X2751582Y1680019D01*
X2756931Y1681060D01*
X2759309Y1681654D01*
X2761538Y1682397D01*
X2763618Y1683288D01*
X2765252Y1684180D01*
X2765401D01*
X2765549Y1684477D01*
X2766441Y1685220D01*
X2767778Y1686409D01*
X2769116Y1688043D01*
X2770602Y1690124D01*
X2771939Y1692501D01*
X2772830Y1695176D01*
X2772979Y1696662D01*
X2773128Y1698147D01*
Y1698890D01*
X2772979Y1699485D01*
X2772682Y1700971D01*
X2772087Y1702902D01*
X2771196Y1705131D01*
X2769859Y1707360D01*
X2768967Y1708549D01*
X2767778Y1709737D01*
X2766590Y1710926D01*
X2765252Y1711966D01*
X2765104D01*
X2764807Y1712264D01*
X2764361Y1712561D01*
X2763618Y1712858D01*
X2762726Y1713304D01*
X2761389Y1713749D01*
X2759903Y1714195D01*
X2758269Y1714790D01*
X2756188Y1715384D01*
X2753959Y1715830D01*
X2751285Y1716275D01*
X2748313Y1716721D01*
X2745044Y1717167D01*
X2741478Y1717316D01*
X2737466Y1717613D01*
D02*
G37*
G36*
Y1641832D02*
X2733157D01*
X2732860D01*
X2732117D01*
X2730928D01*
X2729293Y1641683D01*
X2727362D01*
X2725133Y1641535D01*
X2722756Y1641386D01*
X2720081Y1641089D01*
X2714732Y1640495D01*
X2709531Y1639454D01*
X2707005Y1638860D01*
X2704776Y1638117D01*
X2702844Y1637226D01*
X2701210Y1636185D01*
X2701061D01*
X2700913Y1635888D01*
X2700021Y1635145D01*
X2698684Y1633957D01*
X2697198Y1632322D01*
X2695712Y1630242D01*
X2694375Y1627864D01*
X2693483Y1625190D01*
X2693335Y1623704D01*
X2693186Y1622218D01*
Y1621475D01*
X2693335Y1620881D01*
X2693483Y1619395D01*
X2694078Y1617463D01*
X2694969Y1615383D01*
X2696158Y1613154D01*
X2697941Y1610925D01*
X2699130Y1609885D01*
X2700318Y1608993D01*
X2700467D01*
X2700764Y1608696D01*
X2701359Y1608399D01*
X2702102Y1608102D01*
X2703142Y1607656D01*
X2704330Y1607062D01*
X2705965Y1606467D01*
X2707748Y1606022D01*
X2709828Y1605427D01*
X2712206Y1604833D01*
X2714880Y1604387D01*
X2718001Y1603793D01*
X2721270Y1603496D01*
X2724836Y1603198D01*
X2728848Y1602901D01*
X2733157D01*
X2733454D01*
X2734197D01*
X2735386D01*
X2737020Y1603050D01*
X2738952D01*
X2741181Y1603198D01*
X2743707Y1603347D01*
X2746233Y1603644D01*
X2751582Y1604239D01*
X2756931Y1605279D01*
X2759309Y1605873D01*
X2761538Y1606616D01*
X2763618Y1607508D01*
X2765252Y1608399D01*
X2765401D01*
X2765549Y1608696D01*
X2766441Y1609439D01*
X2767778Y1610628D01*
X2769116Y1612262D01*
X2770602Y1614343D01*
X2771939Y1616720D01*
X2772830Y1619395D01*
X2772979Y1620881D01*
X2773128Y1622367D01*
Y1623110D01*
X2772979Y1623704D01*
X2772682Y1625190D01*
X2772087Y1627121D01*
X2771196Y1629350D01*
X2769859Y1631579D01*
X2768967Y1632768D01*
X2767778Y1633957D01*
X2766590Y1635145D01*
X2765252Y1636185D01*
X2765104D01*
X2764807Y1636483D01*
X2764361Y1636780D01*
X2763618Y1637077D01*
X2762726Y1637523D01*
X2761389Y1637969D01*
X2759903Y1638414D01*
X2758269Y1639009D01*
X2756188Y1639603D01*
X2753959Y1640049D01*
X2751285Y1640495D01*
X2748313Y1640940D01*
X2745044Y1641386D01*
X2741478Y1641535D01*
X2737466Y1641832D01*
D02*
G37*
G36*
X1990099Y1408914D02*
X1989356D01*
X1988762Y1408765D01*
X1987276Y1408617D01*
X1985344Y1408022D01*
X1983264Y1407131D01*
X1981035Y1405942D01*
X1978806Y1404159D01*
X1977766Y1402970D01*
X1976874Y1401782D01*
Y1401633D01*
X1976577Y1401336D01*
X1976280Y1400741D01*
X1975983Y1399998D01*
X1975537Y1398958D01*
X1974943Y1397770D01*
X1974348Y1396135D01*
X1973903Y1394352D01*
X1973308Y1392272D01*
X1972714Y1389894D01*
X1972268Y1387220D01*
X1971674Y1384099D01*
X1971377Y1380830D01*
X1971079Y1377264D01*
X1970782Y1373252D01*
Y1368943D01*
Y1368646D01*
Y1367903D01*
Y1366714D01*
X1970931Y1365080D01*
Y1363148D01*
X1971079Y1360919D01*
X1971228Y1358393D01*
X1971525Y1355867D01*
X1972119Y1350518D01*
X1973160Y1345169D01*
X1973754Y1342791D01*
X1974497Y1340562D01*
X1975388Y1338482D01*
X1976280Y1336848D01*
Y1336699D01*
X1976577Y1336551D01*
X1977320Y1335659D01*
X1978509Y1334322D01*
X1980143Y1332984D01*
X1982224Y1331498D01*
X1984601Y1330161D01*
X1987276Y1329270D01*
X1988762Y1329121D01*
X1990247Y1328972D01*
X1990990D01*
X1991585Y1329121D01*
X1993071Y1329418D01*
X1995002Y1330013D01*
X1997231Y1330904D01*
X1999460Y1332241D01*
X2000649Y1333133D01*
X2001837Y1334322D01*
X2003026Y1335510D01*
X2004066Y1336848D01*
Y1336996D01*
X2004364Y1337293D01*
X2004661Y1337739D01*
X2004958Y1338482D01*
X2005404Y1339374D01*
X2005849Y1340711D01*
X2006295Y1342197D01*
X2006890Y1343831D01*
X2007484Y1345912D01*
X2007930Y1348141D01*
X2008375Y1350815D01*
X2008821Y1353787D01*
X2009267Y1357056D01*
X2009416Y1360622D01*
X2009713Y1364634D01*
Y1368943D01*
Y1369240D01*
Y1369983D01*
Y1371172D01*
X2009564Y1372806D01*
Y1374738D01*
X2009416Y1376967D01*
X2009267Y1379344D01*
X2008970Y1382019D01*
X2008375Y1387368D01*
X2007335Y1392569D01*
X2006741Y1395095D01*
X2005998Y1397324D01*
X2005106Y1399256D01*
X2004066Y1400890D01*
Y1401039D01*
X2003769Y1401187D01*
X2003026Y1402079D01*
X2001837Y1403416D01*
X2000203Y1404902D01*
X1998123Y1406388D01*
X1995745Y1407725D01*
X1993071Y1408617D01*
X1991585Y1408765D01*
X1990099Y1408914D01*
D02*
G37*
%LPD*%
D10*
X2814663Y647700D02*
X2838800D01*
X2336800Y1981200D02*
X2340800Y1977200D01*
X3513900D02*
X3517900Y1973200D01*
X3526600Y1964500D01*
D11*
X1574800Y2743200D02*
D03*
X2387600Y215900D02*
D03*
D12*
X1574800Y2489200D02*
D03*
Y2235200D02*
D03*
Y1981200D02*
D03*
X2336800Y2743200D02*
D03*
Y2489200D02*
D03*
Y2235200D02*
D03*
Y1981200D02*
D03*
X2387600Y469900D02*
D03*
Y723900D02*
D03*
Y977900D02*
D03*
X1625600Y215900D02*
D03*
Y469900D02*
D03*
Y723900D02*
D03*
Y977900D02*
D03*
D13*
X1455800Y1384300D02*
D03*
D14*
X2455800D02*
D03*
X3136900Y1557400D02*
D03*
X2743200Y2290700D02*
D03*
X3517900Y973200D02*
D03*
D15*
X596900Y774700D02*
D03*
X530400Y2522900D02*
D03*
D16*
X596900Y424700D02*
D03*
X1030400Y2172900D02*
D03*
X530400Y1822900D02*
D03*
D17*
X3136900Y2557400D02*
D03*
X2743200Y1290700D02*
D03*
X3517900Y1973200D02*
D03*
D18*
X4025900Y444500D02*
D03*
Y698500D02*
D03*
Y1460500D02*
D03*
Y1968500D02*
D03*
Y2476500D02*
D03*
Y2222500D02*
D03*
Y1714500D02*
D03*
Y1206500D02*
D03*
Y952500D02*
D03*
D19*
Y2730500D02*
D03*
D20*
X3098800Y647700D02*
D03*
X2838800D02*
D03*
D21*
X3358800D02*
D03*
%TF.MD5,4f4f78a4215a9b2b1e8e88293f9baffa*%
M02*
