%TF.GenerationSoftware,Altium Limited,Altium Designer,24.10.1 (45)*%
G04 Layer_Physical_Order=2*
G04 Layer_Color=16711680*
%FSLAX45Y45*%
%MOMM*%
%TF.SameCoordinates,84579A9D-6CBE-44F1-8994-53D447095AA9*%
%TF.FilePolarity,Positive*%
%TF.FileFunction,Copper,L2,Bot,Signal*%
%TF.Part,Single*%
G01*
G75*
%TA.AperFunction,Conductor*%
%ADD10C,0.50800*%
%TA.AperFunction,ComponentPad*%
%ADD11R,1.50000X1.50000*%
%ADD12C,1.50000*%
%ADD13R,1.25000X1.25000*%
%ADD14C,1.25000*%
%ADD15R,1.50800X1.50800*%
%ADD16C,1.50800*%
%ADD17R,1.25000X1.25000*%
%ADD18C,1.60000*%
G04:AMPARAMS|DCode=19|XSize=1.6mm|YSize=1.6mm|CornerRadius=0.4mm|HoleSize=0mm|Usage=FLASHONLY|Rotation=270.000|XOffset=0mm|YOffset=0mm|HoleType=Round|Shape=RoundedRectangle|*
%AMROUNDEDRECTD19*
21,1,1.60000,0.80000,0,0,270.0*
21,1,0.80000,1.60000,0,0,270.0*
1,1,0.80000,-0.40000,-0.40000*
1,1,0.80000,-0.40000,0.40000*
1,1,0.80000,0.40000,0.40000*
1,1,0.80000,0.40000,-0.40000*
%
%ADD19ROUNDEDRECTD19*%
%ADD20C,1.40000*%
%ADD21R,1.40000X1.40000*%
G36*
X4279900Y0D02*
X0D01*
Y3251200D01*
X4279900D01*
Y0D01*
D02*
G37*
%LPC*%
G36*
X1675200Y2843600D02*
X1474400D01*
Y2794995D01*
X528058D01*
X508237Y2791053D01*
X491433Y2779825D01*
X367575Y2655967D01*
X356347Y2639163D01*
X352405Y2619342D01*
Y2426458D01*
X356347Y2406637D01*
X367575Y2389833D01*
X621133Y2136275D01*
X637937Y2125047D01*
X657758Y2121105D01*
X943910D01*
X949740Y2111007D01*
X968508Y2092240D01*
X991493Y2078969D01*
X1017130Y2072100D01*
X1043671D01*
X1069307Y2078969D01*
X1092292Y2092240D01*
X1111060Y2111007D01*
X1124330Y2133993D01*
X1131200Y2159629D01*
Y2160731D01*
X1142933Y2165591D01*
X1363949Y1944575D01*
X1380752Y1933347D01*
X1400574Y1929405D01*
X1488772D01*
X1494460Y1919553D01*
X1513153Y1900860D01*
X1536047Y1887642D01*
X1561582Y1880800D01*
X1588018D01*
X1613553Y1887642D01*
X1636447Y1900860D01*
X1655140Y1919553D01*
X1668358Y1942447D01*
X1675200Y1967982D01*
Y1994418D01*
X1668358Y2019953D01*
X1655140Y2042847D01*
X1636447Y2061540D01*
X1613553Y2074758D01*
X1588018Y2081600D01*
X1561582D01*
X1536047Y2074758D01*
X1513153Y2061540D01*
X1494460Y2042847D01*
X1488772Y2032995D01*
X1422028D01*
X1119298Y2335725D01*
X1102495Y2346953D01*
X1082674Y2350895D01*
X775654D01*
X631200Y2495350D01*
Y2623700D01*
X498401D01*
X493541Y2635433D01*
X549512Y2691405D01*
X1474400D01*
Y2642800D01*
X1675200D01*
Y2843600D01*
D02*
G37*
G36*
X3059301Y2920795D02*
X2284692D01*
X2264871Y2916853D01*
X2248067Y2905625D01*
X2174375Y2831933D01*
X2163147Y2815129D01*
X2159205Y2795308D01*
Y2691092D01*
X2163147Y2671271D01*
X2174375Y2654467D01*
X2250467Y2578375D01*
X2259795Y2572143D01*
X2261871Y2556258D01*
X2256460Y2550847D01*
X2243242Y2527953D01*
X2236400Y2502418D01*
Y2475982D01*
X2243242Y2450447D01*
X2256460Y2427553D01*
X2275153Y2408860D01*
X2285005Y2403172D01*
Y2321228D01*
X2275153Y2315540D01*
X2256460Y2296847D01*
X2243242Y2273953D01*
X2236400Y2248418D01*
Y2221982D01*
X2243242Y2196447D01*
X2256460Y2173553D01*
X2275153Y2154860D01*
X2298047Y2141642D01*
X2323582Y2134800D01*
X2350018D01*
X2375553Y2141642D01*
X2398447Y2154860D01*
X2417140Y2173553D01*
X2422828Y2183405D01*
X2667622D01*
X2687443Y2187347D01*
X2704246Y2198575D01*
X2713365Y2207694D01*
X2731628Y2202800D01*
X2754772D01*
X2777128Y2208790D01*
X2797172Y2220363D01*
X2813537Y2236728D01*
X2825110Y2256772D01*
X2831100Y2279128D01*
Y2302272D01*
X2825110Y2324628D01*
X2813537Y2344672D01*
X2797172Y2361037D01*
X2777128Y2372610D01*
X2754772Y2378600D01*
X2731628D01*
X2729200Y2377950D01*
X2455525Y2651625D01*
X2438721Y2662853D01*
X2420104Y2666556D01*
X2416800Y2671865D01*
X2414062Y2678475D01*
X2417140Y2681553D01*
X2422828Y2691405D01*
X2929646D01*
X3049000Y2572051D01*
Y2469500D01*
X3151550D01*
X3447875Y2173175D01*
X3464679Y2161947D01*
X3484500Y2158005D01*
X3941431D01*
X3941559Y2157783D01*
X3961183Y2138159D01*
X3985217Y2124283D01*
X4012024Y2117100D01*
X4039776D01*
X4066583Y2124283D01*
X4090617Y2138159D01*
X4093172Y2140714D01*
X4104905Y2135853D01*
Y2055147D01*
X4093172Y2050286D01*
X4090617Y2052841D01*
X4066583Y2066717D01*
X4039776Y2073900D01*
X4012024D01*
X3985217Y2066717D01*
X3961183Y2052841D01*
X3941559Y2033217D01*
X3935455Y2022645D01*
X3605800D01*
Y2061100D01*
X3430000D01*
Y2028995D01*
X2425137D01*
X2417140Y2042847D01*
X2398447Y2061540D01*
X2375553Y2074758D01*
X2350018Y2081600D01*
X2323582D01*
X2298047Y2074758D01*
X2275153Y2061540D01*
X2256460Y2042847D01*
X2243242Y2019953D01*
X2236400Y1994418D01*
Y1967982D01*
X2243242Y1942447D01*
X2256460Y1919553D01*
X2275153Y1900860D01*
X2298047Y1887642D01*
X2323582Y1880800D01*
X2350018D01*
X2375553Y1887642D01*
X2398447Y1900860D01*
X2417140Y1919553D01*
X2420519Y1925405D01*
X3430000D01*
Y1885300D01*
X3605800D01*
Y1919055D01*
X3932742D01*
X3941559Y1903783D01*
X3961183Y1884159D01*
X3985217Y1870283D01*
X4012024Y1863100D01*
X4039776D01*
X4066583Y1870283D01*
X4090617Y1884159D01*
X4093172Y1886714D01*
X4104905Y1881853D01*
Y1801147D01*
X4093172Y1796286D01*
X4090617Y1798841D01*
X4066583Y1812717D01*
X4039776Y1819900D01*
X4012024D01*
X3985217Y1812717D01*
X3961183Y1798841D01*
X3941559Y1779217D01*
X3927683Y1755183D01*
X3920500Y1728376D01*
Y1700624D01*
X3927683Y1673817D01*
X3941559Y1649783D01*
X3961183Y1630159D01*
X3985217Y1616283D01*
X4012024Y1609100D01*
X4039776D01*
X4066583Y1616283D01*
X4090617Y1630159D01*
X4093172Y1632714D01*
X4104905Y1627853D01*
Y1547147D01*
X4093172Y1542286D01*
X4090617Y1544841D01*
X4066583Y1558717D01*
X4039776Y1565900D01*
X4012024D01*
X3985217Y1558717D01*
X3961183Y1544841D01*
X3941559Y1525217D01*
X3927683Y1501183D01*
X3920500Y1474376D01*
Y1446624D01*
X3927683Y1419817D01*
X3941559Y1395783D01*
X3961183Y1376159D01*
X3985217Y1362283D01*
X4012024Y1355100D01*
X4039776D01*
X4066583Y1362283D01*
X4090617Y1376159D01*
X4093172Y1378714D01*
X4104905Y1373853D01*
Y1293147D01*
X4093172Y1288286D01*
X4090617Y1290841D01*
X4066583Y1304717D01*
X4039776Y1311900D01*
X4012024D01*
X3985217Y1304717D01*
X3961183Y1290841D01*
X3941559Y1271217D01*
X3927683Y1247183D01*
X3920500Y1220376D01*
Y1192624D01*
X3927683Y1165817D01*
X3941559Y1141783D01*
X3961183Y1122159D01*
X3985217Y1108283D01*
X4012024Y1101100D01*
X4039776D01*
X4066583Y1108283D01*
X4090617Y1122159D01*
X4093172Y1124714D01*
X4104905Y1119853D01*
Y1039147D01*
X4093172Y1034286D01*
X4090617Y1036841D01*
X4066583Y1050717D01*
X4039776Y1057900D01*
X4012024D01*
X3985217Y1050717D01*
X3961183Y1036841D01*
X3941559Y1017217D01*
X3927683Y993183D01*
X3920500Y966376D01*
Y938624D01*
X3927683Y911817D01*
X3941559Y887783D01*
X3961183Y868159D01*
X3985217Y854283D01*
X4012024Y847100D01*
X4039776D01*
X4066583Y854283D01*
X4090617Y868159D01*
X4093172Y870714D01*
X4104905Y865853D01*
Y785147D01*
X4093172Y780286D01*
X4090617Y782841D01*
X4066583Y796717D01*
X4039776Y803900D01*
X4012024D01*
X3985217Y796717D01*
X3961183Y782841D01*
X3941559Y763217D01*
X3927683Y739183D01*
X3920500Y712376D01*
Y684624D01*
X3927683Y657817D01*
X3941559Y633783D01*
X3961183Y614159D01*
X3985217Y600283D01*
X4012024Y593100D01*
X4039776D01*
X4066583Y600283D01*
X4090617Y614159D01*
X4093172Y616714D01*
X4104905Y611853D01*
Y531147D01*
X4093172Y526286D01*
X4090617Y528841D01*
X4066583Y542717D01*
X4039776Y549900D01*
X4038600D01*
Y444500D01*
X4025900D01*
Y431800D01*
X3920500D01*
Y430624D01*
X3927683Y403817D01*
X3941559Y379783D01*
X3944114Y377228D01*
X3939253Y365495D01*
X3454254D01*
X3279183Y540567D01*
X3284043Y552300D01*
X3346100D01*
Y635000D01*
X3263400D01*
Y572943D01*
X3251667Y568083D01*
X3192173Y627576D01*
X3194200Y635140D01*
Y660260D01*
X3187698Y684523D01*
X3175139Y706277D01*
X3157377Y724039D01*
X3135623Y736598D01*
X3111360Y743100D01*
X3086240D01*
X3061977Y736598D01*
X3040223Y724039D01*
X3022461Y706277D01*
X3009902Y684523D01*
X3003400Y660260D01*
Y635140D01*
X3009902Y610877D01*
X3022461Y589123D01*
X3040223Y571361D01*
X3061977Y558802D01*
X3086240Y552300D01*
X3111360D01*
X3118924Y554327D01*
X3396175Y277075D01*
X3412979Y265847D01*
X3432800Y261904D01*
X3432801Y261905D01*
X4080079D01*
X4099900Y265847D01*
X4116704Y277075D01*
X4193325Y353696D01*
X4204553Y370500D01*
X4208495Y390321D01*
Y2345700D01*
X4204553Y2365521D01*
X4193325Y2382325D01*
X4127438Y2448212D01*
X4131300Y2462624D01*
Y2490376D01*
X4124117Y2517183D01*
X4110241Y2541217D01*
X4090617Y2560841D01*
X4066583Y2574717D01*
X4039776Y2581900D01*
X4012024D01*
X3985217Y2574717D01*
X3961183Y2560841D01*
X3941559Y2541217D01*
X3927683Y2517183D01*
X3920500Y2490376D01*
Y2462624D01*
X3927683Y2435817D01*
X3941559Y2411783D01*
X3961183Y2392159D01*
X3985217Y2378283D01*
X4012024Y2371100D01*
X4039776D01*
X4054188Y2374962D01*
X4104905Y2324246D01*
Y2309147D01*
X4093172Y2304286D01*
X4090617Y2306841D01*
X4066583Y2320717D01*
X4039776Y2327900D01*
X4012024D01*
X3985217Y2320717D01*
X3961183Y2306841D01*
X3941559Y2287217D01*
X3927683Y2263183D01*
X3927258Y2261595D01*
X3505954D01*
X3224800Y2542750D01*
Y2645300D01*
X3122249D01*
X2987725Y2779825D01*
X2970921Y2791053D01*
X2951100Y2794995D01*
X2422828D01*
X2417140Y2804847D01*
X2416515Y2805472D01*
X2421376Y2817205D01*
X3037847D01*
X3161177Y2693875D01*
X3177980Y2682647D01*
X3197802Y2678705D01*
X3921489D01*
X3922183Y2673427D01*
X3928773Y2657518D01*
X3939256Y2643856D01*
X3952918Y2633373D01*
X3968827Y2626783D01*
X3985900Y2624536D01*
X4065900D01*
X4082973Y2626783D01*
X4098882Y2633373D01*
X4112544Y2643856D01*
X4123027Y2657518D01*
X4129617Y2673427D01*
X4131864Y2690500D01*
Y2770500D01*
X4129617Y2787573D01*
X4123027Y2803482D01*
X4112544Y2817144D01*
X4098882Y2827627D01*
X4082973Y2834217D01*
X4065900Y2836464D01*
X3985900D01*
X3968827Y2834217D01*
X3952918Y2827627D01*
X3939256Y2817144D01*
X3928773Y2803482D01*
X3922183Y2787573D01*
X3921489Y2782295D01*
X3219256D01*
X3095926Y2905625D01*
X3079123Y2916853D01*
X3059301Y2920795D01*
D02*
G37*
G36*
X1588018Y2589600D02*
X1587500D01*
Y2501900D01*
X1675200D01*
Y2502418D01*
X1668358Y2527953D01*
X1655140Y2550847D01*
X1636447Y2569540D01*
X1613553Y2582758D01*
X1588018Y2589600D01*
D02*
G37*
G36*
X1562100D02*
X1561582D01*
X1536047Y2582758D01*
X1513153Y2569540D01*
X1494460Y2550847D01*
X1481242Y2527953D01*
X1474400Y2502418D01*
Y2501900D01*
X1562100D01*
Y2589600D01*
D02*
G37*
G36*
X1675200Y2476500D02*
X1587500D01*
Y2388800D01*
X1588018D01*
X1613553Y2395642D01*
X1636447Y2408860D01*
X1655140Y2427553D01*
X1668358Y2450447D01*
X1675200Y2475982D01*
Y2476500D01*
D02*
G37*
G36*
X1562100D02*
X1474400D01*
Y2475982D01*
X1481242Y2450447D01*
X1494460Y2427553D01*
X1513153Y2408860D01*
X1536047Y2395642D01*
X1561582Y2388800D01*
X1562100D01*
Y2476500D01*
D02*
G37*
G36*
X1588018Y2335600D02*
X1587500D01*
Y2247900D01*
X1675200D01*
Y2248418D01*
X1668358Y2273953D01*
X1655140Y2296847D01*
X1636447Y2315540D01*
X1613553Y2328758D01*
X1588018Y2335600D01*
D02*
G37*
G36*
X1562100D02*
X1561582D01*
X1536047Y2328758D01*
X1513153Y2315540D01*
X1494460Y2296847D01*
X1481242Y2273953D01*
X1474400Y2248418D01*
Y2247900D01*
X1562100D01*
Y2335600D01*
D02*
G37*
G36*
X1675200Y2222500D02*
X1587500D01*
Y2134800D01*
X1588018D01*
X1613553Y2141642D01*
X1636447Y2154860D01*
X1655140Y2173553D01*
X1668358Y2196447D01*
X1675200Y2221982D01*
Y2222500D01*
D02*
G37*
G36*
X1562100D02*
X1474400D01*
Y2221982D01*
X1481242Y2196447D01*
X1494460Y2173553D01*
X1513153Y2154860D01*
X1536047Y2141642D01*
X1561582Y2134800D01*
X1562100D01*
Y2222500D01*
D02*
G37*
G36*
X3149600Y1644998D02*
Y1570100D01*
X3224498D01*
X3218810Y1591328D01*
X3207237Y1611372D01*
X3190872Y1627737D01*
X3170828Y1639310D01*
X3149600Y1644998D01*
D02*
G37*
G36*
X3124200D02*
X3102972Y1639310D01*
X3082928Y1627737D01*
X3066563Y1611372D01*
X3054990Y1591328D01*
X3049302Y1570100D01*
X3124200D01*
Y1644998D01*
D02*
G37*
G36*
X3224498Y1544700D02*
X3149600D01*
Y1469802D01*
X3170828Y1475490D01*
X3190872Y1487063D01*
X3207237Y1503428D01*
X3218810Y1523472D01*
X3224498Y1544700D01*
D02*
G37*
G36*
X3124200D02*
X3049302D01*
X3054990Y1523472D01*
X3066563Y1503428D01*
X3082928Y1487063D01*
X3102972Y1475490D01*
X3124200Y1469802D01*
Y1544700D01*
D02*
G37*
G36*
X2468500Y1471898D02*
Y1397000D01*
X2543398D01*
X2537710Y1418228D01*
X2526137Y1438272D01*
X2509772Y1454637D01*
X2489728Y1466210D01*
X2468500Y1471898D01*
D02*
G37*
G36*
X2443100D02*
X2421872Y1466210D01*
X2401828Y1454637D01*
X2385463Y1438272D01*
X2373890Y1418228D01*
X2368202Y1397000D01*
X2443100D01*
Y1471898D01*
D02*
G37*
G36*
X2543398Y1371600D02*
X2468500D01*
Y1296702D01*
X2489728Y1302390D01*
X2509772Y1313963D01*
X2526137Y1330328D01*
X2537710Y1350372D01*
X2543398Y1371600D01*
D02*
G37*
G36*
X2443100D02*
X2368202D01*
X2373890Y1350372D01*
X2385463Y1330328D01*
X2401828Y1313963D01*
X2421872Y1302390D01*
X2443100Y1296702D01*
Y1371600D01*
D02*
G37*
G36*
X2831100Y1378600D02*
X2655300D01*
Y1276050D01*
X2441794Y1062543D01*
X2426353Y1071458D01*
X2400818Y1078300D01*
X2374382D01*
X2348847Y1071458D01*
X2325953Y1058240D01*
X2307260Y1039547D01*
X2294042Y1016653D01*
X2287200Y991118D01*
Y964682D01*
X2294042Y939147D01*
X2307260Y916253D01*
X2325953Y897560D01*
X2348847Y884342D01*
X2374382Y877500D01*
X2400818D01*
X2426353Y884342D01*
X2449247Y897560D01*
X2467940Y916253D01*
X2481158Y939147D01*
X2487110Y961360D01*
X2728550Y1202800D01*
X2831100D01*
Y1378600D01*
D02*
G37*
G36*
X3530600Y1060798D02*
Y985900D01*
X3605498D01*
X3599810Y1007128D01*
X3588237Y1027172D01*
X3571872Y1043537D01*
X3551828Y1055110D01*
X3530600Y1060798D01*
D02*
G37*
G36*
X3505200D02*
X3483972Y1055110D01*
X3463928Y1043537D01*
X3447563Y1027172D01*
X3435990Y1007128D01*
X3430302Y985900D01*
X3505200D01*
Y1060798D01*
D02*
G37*
G36*
X3605498Y960500D02*
X3530600D01*
Y885602D01*
X3551828Y891290D01*
X3571872Y902863D01*
X3588237Y919228D01*
X3599810Y939272D01*
X3605498Y960500D01*
D02*
G37*
G36*
X3505200D02*
X3430302D01*
X3435990Y939272D01*
X3447563Y919228D01*
X3463928Y902863D01*
X3483972Y891290D01*
X3505200Y885602D01*
Y960500D01*
D02*
G37*
G36*
X543670Y1923700D02*
X517130D01*
X491493Y1916831D01*
X468508Y1903560D01*
X449740Y1884793D01*
X436470Y1861807D01*
X429600Y1836171D01*
Y1809630D01*
X436470Y1783993D01*
X449740Y1761008D01*
X468508Y1742240D01*
X491493Y1728970D01*
X517130Y1722100D01*
X543670D01*
X569307Y1728970D01*
X592292Y1742240D01*
X611060Y1761008D01*
X616890Y1771105D01*
X995746D01*
X1367900Y1398950D01*
Y1296400D01*
X1404005D01*
Y1147700D01*
X1407947Y1127879D01*
X1419175Y1111075D01*
X1528144Y1002106D01*
X1525200Y991118D01*
Y964682D01*
X1532042Y939147D01*
X1545260Y916253D01*
X1563953Y897560D01*
X1586847Y884342D01*
X1612382Y877500D01*
X1638818D01*
X1664353Y884342D01*
X1687247Y897560D01*
X1705940Y916253D01*
X1719158Y939147D01*
X1726000Y964682D01*
Y991118D01*
X1719158Y1016653D01*
X1705940Y1039547D01*
X1687247Y1058240D01*
X1664353Y1071458D01*
X1638818Y1078300D01*
X1612382D01*
X1601394Y1075356D01*
X1507595Y1169154D01*
Y1296400D01*
X1543700D01*
Y1472200D01*
X1441150D01*
X1053825Y1859525D01*
X1037021Y1870753D01*
X1017200Y1874695D01*
X616890D01*
X611060Y1884793D01*
X592292Y1903560D01*
X569307Y1916831D01*
X543670Y1923700D01*
D02*
G37*
G36*
X697700Y875500D02*
X609600D01*
Y787400D01*
X697700D01*
Y875500D01*
D02*
G37*
G36*
X584200D02*
X496100D01*
Y787400D01*
X584200D01*
Y875500D01*
D02*
G37*
G36*
X697700Y762000D02*
X609600D01*
Y673900D01*
X697700D01*
Y762000D01*
D02*
G37*
G36*
X584200D02*
X496100D01*
Y673900D01*
X584200D01*
Y762000D01*
D02*
G37*
G36*
X3454200Y743100D02*
X3371500D01*
Y660400D01*
X3454200D01*
Y743100D01*
D02*
G37*
G36*
X3346100D02*
X3263400D01*
Y660400D01*
X3346100D01*
Y743100D01*
D02*
G37*
G36*
X1638818Y824300D02*
X1612382D01*
X1586847Y817458D01*
X1563953Y804240D01*
X1545260Y785547D01*
X1532042Y762653D01*
X1525200Y737118D01*
Y710682D01*
X1528144Y699694D01*
X1304946Y476495D01*
X683390D01*
X677560Y486593D01*
X658792Y505360D01*
X635807Y518631D01*
X610170Y525500D01*
X583630D01*
X557993Y518631D01*
X535008Y505360D01*
X516240Y486593D01*
X502970Y463607D01*
X496100Y437971D01*
Y411430D01*
X502970Y385793D01*
X516240Y362808D01*
X535008Y344040D01*
X557993Y330770D01*
X583630Y323900D01*
X610170D01*
X635807Y330770D01*
X658792Y344040D01*
X677560Y362808D01*
X683390Y372905D01*
X1326400D01*
X1346221Y376848D01*
X1363025Y388075D01*
X1601394Y626444D01*
X1612382Y623500D01*
X1638818D01*
X1664353Y630342D01*
X1687247Y643560D01*
X1705940Y662253D01*
X1719158Y685147D01*
X1726000Y710682D01*
Y737118D01*
X1719158Y762653D01*
X1705940Y785547D01*
X1687247Y804240D01*
X1664353Y817458D01*
X1638818Y824300D01*
D02*
G37*
G36*
X3454200Y635000D02*
X3371500D01*
Y552300D01*
X3454200D01*
Y635000D01*
D02*
G37*
G36*
X2400818Y824300D02*
X2374382D01*
X2348847Y817458D01*
X2325953Y804240D01*
X2307260Y785547D01*
X2294042Y762653D01*
X2287200Y737118D01*
Y710682D01*
X2294042Y685147D01*
X2307260Y662253D01*
X2325953Y643560D01*
X2348847Y630342D01*
X2374382Y623500D01*
X2400818D01*
X2426353Y630342D01*
X2449247Y643560D01*
X2467940Y662253D01*
X2473628Y672105D01*
X2717008D01*
X2743400Y645713D01*
Y635140D01*
X2749902Y610877D01*
X2762461Y589123D01*
X2780223Y571361D01*
X2801977Y558802D01*
X2826240Y552300D01*
X2851360D01*
X2875623Y558802D01*
X2897377Y571361D01*
X2915139Y589123D01*
X2927698Y610877D01*
X2934200Y635140D01*
Y660260D01*
X2927698Y684523D01*
X2915139Y706277D01*
X2897377Y724039D01*
X2875623Y736598D01*
X2851360Y743100D01*
X2826240D01*
X2801977Y736598D01*
X2800098Y735514D01*
X2775087Y760525D01*
X2758284Y771753D01*
X2738463Y775695D01*
X2473628D01*
X2467940Y785547D01*
X2449247Y804240D01*
X2426353Y817458D01*
X2400818Y824300D01*
D02*
G37*
G36*
X4013200Y549900D02*
X4012024D01*
X3985217Y542717D01*
X3961183Y528841D01*
X3941559Y509217D01*
X3927683Y485183D01*
X3920500Y458376D01*
Y457200D01*
X4013200D01*
Y549900D01*
D02*
G37*
G36*
X2400818Y570300D02*
X2374382D01*
X2348847Y563458D01*
X2325953Y550240D01*
X2307260Y531547D01*
X2294042Y508653D01*
X2287200Y483118D01*
Y456682D01*
X2294042Y431147D01*
X2307260Y408253D01*
X2325953Y389560D01*
X2348847Y376342D01*
X2374382Y369500D01*
X2400818D01*
X2426353Y376342D01*
X2449247Y389560D01*
X2467940Y408253D01*
X2481158Y431147D01*
X2488000Y456682D01*
Y483118D01*
X2481158Y508653D01*
X2467940Y531547D01*
X2449247Y550240D01*
X2426353Y563458D01*
X2400818Y570300D01*
D02*
G37*
G36*
X1638818D02*
X1612382D01*
X1586847Y563458D01*
X1563953Y550240D01*
X1545260Y531547D01*
X1532042Y508653D01*
X1525200Y483118D01*
Y456682D01*
X1532042Y431147D01*
X1545260Y408253D01*
X1563953Y389560D01*
X1586847Y376342D01*
X1612382Y369500D01*
X1638818D01*
X1664353Y376342D01*
X1687247Y389560D01*
X1705940Y408253D01*
X1719158Y431147D01*
X1726000Y456682D01*
Y483118D01*
X1719158Y508653D01*
X1705940Y531547D01*
X1687247Y550240D01*
X1664353Y563458D01*
X1638818Y570300D01*
D02*
G37*
G36*
X2488000Y316300D02*
X2287200D01*
Y115500D01*
X2488000D01*
Y316300D01*
D02*
G37*
G36*
X1638818D02*
X1612382D01*
X1586847Y309458D01*
X1563953Y296240D01*
X1545260Y277547D01*
X1532042Y254653D01*
X1525200Y229118D01*
Y202682D01*
X1532042Y177147D01*
X1545260Y154253D01*
X1563953Y135560D01*
X1586847Y122342D01*
X1612382Y115500D01*
X1638818D01*
X1664353Y122342D01*
X1687247Y135560D01*
X1705940Y154253D01*
X1719158Y177147D01*
X1726000Y202682D01*
Y229118D01*
X1719158Y254653D01*
X1705940Y277547D01*
X1687247Y296240D01*
X1664353Y309458D01*
X1638818Y316300D01*
D02*
G37*
%LPD*%
G36*
X717575Y2262475D02*
X734379Y2251247D01*
X754200Y2247305D01*
X945659D01*
X950519Y2235572D01*
X949740Y2234792D01*
X943910Y2224695D01*
X679212D01*
X493541Y2410367D01*
X498401Y2422100D01*
X557950D01*
X717575Y2262475D01*
D02*
G37*
G36*
X2655950Y2304700D02*
X2655300Y2302272D01*
Y2296128D01*
X2646167Y2286995D01*
X2422828D01*
X2417140Y2296847D01*
X2398447Y2315540D01*
X2388595Y2321228D01*
Y2403172D01*
X2398447Y2408860D01*
X2417140Y2427553D01*
X2430358Y2450447D01*
X2437200Y2475982D01*
Y2502418D01*
X2436075Y2506614D01*
X2447462Y2513189D01*
X2655950Y2304700D01*
D02*
G37*
D10*
X2418900Y2615000D02*
X2743200Y2290700D01*
X2211000Y2691092D02*
X2287092Y2615000D01*
X2211000Y2691092D02*
Y2795308D01*
X2284692Y2869000D01*
X3059301D01*
X2287092Y2615000D02*
X2418900D01*
X3059301Y2869000D02*
X3197802Y2730500D01*
X4025900D01*
Y2476500D02*
X4156700Y2345700D01*
Y390321D02*
Y2345700D01*
X4080079Y313700D02*
X4156700Y390321D01*
X3432800Y313700D02*
X4080079D01*
X3098800Y647700D02*
X3432800Y313700D01*
X2340800Y1977200D02*
X3513900D01*
X2336800Y1981200D02*
X2340800Y1977200D01*
X3513900D02*
X3517900Y1973200D01*
X2387600Y723900D02*
X2738463D01*
X2814663Y647700D02*
X2838800D01*
X2738463Y723900D02*
X2814663Y647700D01*
X2387600Y977900D02*
X2406581Y996881D01*
X2449381D01*
X1030400Y2172900D02*
Y2198800D01*
X1400574Y1981200D02*
X1574800D01*
X1082674Y2299100D02*
X1400574Y1981200D01*
X3517900Y1973200D02*
X3520250Y1970850D01*
X2336800Y2235200D02*
Y2489200D01*
Y2235200D02*
X2667622D01*
X2705722Y2273300D01*
X4013200Y2209800D02*
X4025900Y2222500D01*
X4023550Y1970850D02*
X4025900Y1968500D01*
X3484500Y2209800D02*
X4013200D01*
X3520250Y1970850D02*
X4023550D01*
X1455800Y1147700D02*
Y1384300D01*
Y1147700D02*
X1625600Y977900D01*
X1326400Y424700D02*
X1625600Y723900D01*
X2449381Y996881D02*
X2743200Y1290700D01*
X528058Y2743200D02*
X1574800D01*
X404200Y2426458D02*
Y2619342D01*
X3136900Y2557400D02*
X3484500Y2209800D01*
X754200Y2299100D02*
X1082674D01*
X530400Y2522900D02*
X754200Y2299100D01*
X404200Y2426458D02*
X657758Y2172900D01*
X404200Y2619342D02*
X528058Y2743200D01*
X657758Y2172900D02*
X1030400D01*
X1017200Y1822900D02*
X1455800Y1384300D01*
X530400Y1822900D02*
X1017200D01*
X596900Y424700D02*
X1326400D01*
X2336800Y2743200D02*
X2951100D01*
X3136900Y2557400D01*
D11*
X1574800Y2743200D02*
D03*
X2387600Y215900D02*
D03*
D12*
X1574800Y2489200D02*
D03*
Y2235200D02*
D03*
Y1981200D02*
D03*
X2336800Y2743200D02*
D03*
Y2489200D02*
D03*
Y2235200D02*
D03*
Y1981200D02*
D03*
X2387600Y469900D02*
D03*
Y723900D02*
D03*
Y977900D02*
D03*
X1625600Y215900D02*
D03*
Y469900D02*
D03*
Y723900D02*
D03*
Y977900D02*
D03*
D13*
X1455800Y1384300D02*
D03*
D14*
X2455800D02*
D03*
X3136900Y1557400D02*
D03*
X2743200Y2290700D02*
D03*
X3517900Y973200D02*
D03*
D15*
X596900Y774700D02*
D03*
X530400Y2522900D02*
D03*
D16*
X596900Y424700D02*
D03*
X1030400Y2172900D02*
D03*
X530400Y1822900D02*
D03*
D17*
X3136900Y2557400D02*
D03*
X2743200Y1290700D02*
D03*
X3517900Y1973200D02*
D03*
D18*
X4025900Y444500D02*
D03*
Y698500D02*
D03*
Y1460500D02*
D03*
Y1968500D02*
D03*
Y2476500D02*
D03*
Y2222500D02*
D03*
Y1714500D02*
D03*
Y1206500D02*
D03*
Y952500D02*
D03*
D19*
Y2730500D02*
D03*
D20*
X3098800Y647700D02*
D03*
X2838800D02*
D03*
D21*
X3358800D02*
D03*
%TF.MD5,65a99bac5f3d20e1dc6efde49aae5654*%
M02*
