%TF.GenerationSoftware,Altium Limited,Altium Designer,24.10.1 (45)*%
G04 Layer_Color=65535*
%FSLAX45Y45*%
%MOMM*%
%TF.SameCoordinates,84579A9D-6CBE-44F1-8994-53D447095AA9*%
%TF.FilePolarity,Positive*%
%TF.FileFunction,Legend,Top*%
%TF.Part,Single*%
G01*
G75*
%TA.AperFunction,NonConductor*%
%ADD22C,0.20000*%
%ADD23C,0.25000*%
%ADD24C,0.60000*%
%ADD25C,0.12700*%
%ADD26C,0.25400*%
D22*
X1892300Y2862200D02*
G03*
X2019300Y2862200I63500J0D01*
G01*
X2070100Y96900D02*
G03*
X1943100Y96900I-63500J0D01*
G01*
X606900Y1149700D02*
G03*
X606900Y1149700I-10000J0D01*
G01*
X540400Y2897900D02*
G03*
X540400Y2897900I-10000J0D01*
G01*
X2885870Y548273D02*
G03*
X3306466Y537700I212930J99427D01*
G01*
X2905401Y781202D02*
G03*
X2885851Y747090I193399J-133502D01*
G01*
X3306486Y757664D02*
G03*
X3292199Y781202I-207686J-109964D01*
G01*
X1690800Y1862200D02*
Y2862200D01*
X2220800Y1862200D02*
Y2862200D01*
X1690800D02*
X1892300D01*
X2019300D02*
X2220800D01*
X1690800Y1862200D02*
X2220800D01*
X1630800Y1509300D02*
X2280800D01*
Y1259300D02*
Y1509300D01*
X1630800Y1259300D02*
X2280800D01*
X1630800D02*
Y1509300D01*
X1558300Y1384300D02*
X1630800D01*
X2280800D02*
X2353300D01*
X2271600Y96900D02*
Y1096900D01*
X1741600Y96900D02*
Y1096900D01*
X2070100Y96900D02*
X2271600D01*
X1741600D02*
X1943100D01*
X1741600Y1096900D02*
X2271600D01*
X3261900Y1732400D02*
Y2382400D01*
X3011900Y1732400D02*
X3261900D01*
X3011900D02*
Y2382400D01*
X3261900D01*
X3136900D02*
Y2454900D01*
Y1659900D02*
Y1732400D01*
X2618200Y1465700D02*
Y2115700D01*
X2868200D01*
Y1465700D02*
Y2115700D01*
X2618200Y1465700D02*
X2868200D01*
X2743200Y1393200D02*
Y1465700D01*
Y2115700D02*
Y2188200D01*
X3642900Y1148200D02*
Y1798200D01*
X3392900Y1148200D02*
X3642900D01*
X3392900D02*
Y1798200D01*
X3642900D01*
X3517900D02*
Y1870700D01*
Y1075700D02*
Y1148200D01*
X3891400Y302500D02*
Y2872500D01*
X4160400D01*
Y302500D02*
Y2872500D01*
X3891400Y302500D02*
X4160400D01*
X2905400Y781200D02*
X3292200D01*
D23*
X1587300Y2873200D02*
G03*
X1587300Y2873200I-12500J0D01*
G01*
X2400100Y85900D02*
G03*
X2400100Y85900I-12500J0D01*
G01*
X4038400Y2917500D02*
G03*
X4038400Y2917500I-12500J0D01*
G01*
X3496300Y647700D02*
G03*
X3496300Y647700I-12500J0D01*
G01*
D24*
X1820800Y2762200D02*
G03*
X1820800Y2762200I-30000J0D01*
G01*
X2201600Y196900D02*
G03*
X2201600Y196900I-30000J0D01*
G01*
D25*
X126900Y249700D02*
Y1099700D01*
Y249700D02*
X1326900D01*
Y1099700D01*
X126900D02*
X1326900D01*
X1260400Y1647900D02*
Y2847900D01*
X60400Y1647900D02*
X1260400D01*
X60400D02*
Y2847900D01*
X1260400D01*
D26*
X1816154Y3124175D02*
X1765370D01*
X1739978Y3098783D01*
Y2997217D01*
X1765370Y2971825D01*
X1816154D01*
X1841545Y2997217D01*
Y3098783D01*
X1816154Y3124175D01*
X1993896Y3073392D02*
X1917721D01*
X1892329Y3048000D01*
Y2997217D01*
X1917721Y2971825D01*
X1993896D01*
X2070072Y3098783D02*
Y3073392D01*
X2044680D01*
X2095463D01*
X2070072D01*
Y2997217D01*
X2095463Y2971825D01*
X2171639D02*
X2222422D01*
X2197030D01*
Y3124175D01*
X2171639Y3098783D01*
X1866941Y1600225D02*
Y1752575D01*
X1943117D01*
X1968508Y1727183D01*
Y1676400D01*
X1943117Y1651008D01*
X1866941D01*
X1917725D02*
X1968508Y1600225D01*
X2095467D02*
Y1752575D01*
X2019292Y1676400D01*
X2120859D01*
X2679762Y253975D02*
X2628978D01*
X2603586Y228583D01*
Y127017D01*
X2628978Y101625D01*
X2679762D01*
X2705154Y127017D01*
Y228583D01*
X2679762Y253975D01*
X2857504Y203192D02*
X2781329D01*
X2755937Y177800D01*
Y127017D01*
X2781329Y101625D01*
X2857504D01*
X2933680Y228583D02*
Y203192D01*
X2908288D01*
X2959071D01*
X2933680D01*
Y127017D01*
X2959071Y101625D01*
X3136814D02*
X3035247D01*
X3136814Y203192D01*
Y228583D01*
X3111422Y253975D01*
X3060639D01*
X3035247Y228583D01*
X124460Y1247140D02*
Y1399491D01*
X200635D01*
X226027Y1374099D01*
Y1323315D01*
X200635Y1297923D01*
X124460D01*
X302203Y1247140D02*
X352986D01*
X378378Y1272532D01*
Y1323315D01*
X352986Y1348707D01*
X302203D01*
X276811Y1323315D01*
Y1272532D01*
X302203Y1247140D01*
X429161Y1348707D02*
Y1272532D01*
X454553Y1247140D01*
X479945Y1272532D01*
X505337Y1247140D01*
X530729Y1272532D01*
Y1348707D01*
X657688Y1247140D02*
X606904D01*
X581512Y1272532D01*
Y1323315D01*
X606904Y1348707D01*
X657688D01*
X683079Y1323315D01*
Y1297923D01*
X581512D01*
X733863Y1348707D02*
Y1247140D01*
Y1297923D01*
X759255Y1323315D01*
X784646Y1348707D01*
X810038D01*
X3009941Y2717825D02*
Y2870175D01*
X3086117D01*
X3111508Y2844783D01*
Y2794000D01*
X3086117Y2768608D01*
X3009941D01*
X3060725D02*
X3111508Y2717825D01*
X3263859D02*
X3162292D01*
X3263859Y2819392D01*
Y2844783D01*
X3238467Y2870175D01*
X3187684D01*
X3162292Y2844783D01*
X58420Y2994660D02*
Y3096227D01*
X109203Y3147011D01*
X159987Y3096227D01*
Y2994660D01*
Y3070835D01*
X58420D01*
X210771Y3096227D02*
Y2994660D01*
Y3045443D01*
X236163Y3070835D01*
X261554Y3096227D01*
X286946D01*
X464689Y3147011D02*
Y2994660D01*
X388513D01*
X363121Y3020052D01*
Y3070835D01*
X388513Y3096227D01*
X464689D01*
X515472D02*
Y3020052D01*
X540864Y2994660D01*
X617039D01*
Y3096227D01*
X667823Y2994660D02*
X718606D01*
X693215D01*
Y3096227D01*
X667823D01*
X794782Y2994660D02*
Y3096227D01*
X870957D01*
X896349Y3070835D01*
Y2994660D01*
X972524D02*
X1023308D01*
X1048700Y3020052D01*
Y3070835D01*
X1023308Y3096227D01*
X972524D01*
X947132Y3070835D01*
Y3020052D01*
X972524Y2994660D01*
X2616241Y2463825D02*
Y2616175D01*
X2692417D01*
X2717808Y2590783D01*
Y2540000D01*
X2692417Y2514608D01*
X2616241D01*
X2667025D02*
X2717808Y2463825D01*
X2768592Y2590783D02*
X2793984Y2616175D01*
X2844767D01*
X2870159Y2590783D01*
Y2565392D01*
X2844767Y2540000D01*
X2819375D01*
X2844767D01*
X2870159Y2514608D01*
Y2489217D01*
X2844767Y2463825D01*
X2793984D01*
X2768592Y2489217D01*
X3398520Y2131060D02*
Y2283411D01*
X3474695D01*
X3500087Y2258019D01*
Y2207235D01*
X3474695Y2181843D01*
X3398520D01*
X3449303D02*
X3500087Y2131060D01*
X3550871D02*
X3601654D01*
X3576263D01*
Y2283411D01*
X3550871Y2258019D01*
X3657682Y3162275D02*
Y3009925D01*
Y3086100D01*
X3759250D01*
Y3162275D01*
Y3009925D01*
X3810033Y3162275D02*
Y3009925D01*
X3886208D01*
X3911600Y3035317D01*
Y3136883D01*
X3886208Y3162275D01*
X3810033D01*
X3962384Y3009925D02*
Y3162275D01*
X4013167Y3111492D01*
X4063951Y3162275D01*
Y3009925D01*
X4114734Y3162275D02*
X4165518D01*
X4140126D01*
Y3009925D01*
X4114734D01*
X4165518D01*
X2882867Y894072D02*
Y995639D01*
X2857475Y1021031D01*
X2806692D01*
X2781300Y995639D01*
Y894072D01*
X2806692Y868680D01*
X2857475D01*
X2832083Y919463D02*
X2882867Y868680D01*
X2857475D02*
X2882867Y894072D01*
X2933651Y868680D02*
X2984434D01*
X2959043D01*
Y1021031D01*
X2933651Y995639D01*
%TF.MD5,083760547d00479e38cb253336207d76*%
M02*
