%TF.GenerationSoftware,Altium Limited,Altium Designer,24.10.1 (45)*%
G04 Layer_Color=65535*
%FSLAX45Y45*%
%MOMM*%
%TF.SameCoordinates,47669921-03A9-45D4-BEC5-7B78C51FF8BB*%
%TF.FilePolarity,Positive*%
%TF.FileFunction,Legend,Top*%
%TF.Part,Single*%
G01*
G75*
%TA.AperFunction,NonConductor*%
%ADD22C,0.25000*%
%ADD23C,0.20000*%
%ADD24C,0.60000*%
%ADD25C,0.25400*%
D22*
X279200Y4187500D02*
G03*
X279200Y4187500I-12500J0D01*
G01*
X3297800Y482600D02*
G03*
X3297800Y482600I-12500J0D01*
G01*
X1697600Y469900D02*
G03*
X1697600Y469900I-12500J0D01*
G01*
X2425500Y1292400D02*
G03*
X2425500Y1292400I-12500J0D01*
G01*
X4089200Y4035100D02*
G03*
X4089200Y4035100I-12500J0D01*
G01*
X1079300Y4143200D02*
G03*
X1079300Y4143200I-12500J0D01*
G01*
D23*
X3462614Y372636D02*
G03*
X3476901Y349098I207686J109964D01*
G01*
X3863699D02*
G03*
X3883249Y383210I-193399J133502D01*
G01*
X3883230Y582027D02*
G03*
X3462634Y592600I-212930J-99427D01*
G01*
X1862414Y359936D02*
G03*
X1876701Y336398I207686J109964D01*
G01*
X2263499D02*
G03*
X2283049Y370510I-193399J133502D01*
G01*
X2283030Y569327D02*
G03*
X1862434Y579900I-212930J-99427D01*
G01*
X2095500Y1303400D02*
G03*
X1968500Y1303400I-63500J0D01*
G01*
X1384300Y4132200D02*
G03*
X1511300Y4132200I63500J0D01*
G01*
X132200Y3096500D02*
X401200D01*
Y4142500D01*
X132200D02*
X401200D01*
X132200Y3096500D02*
Y4142500D01*
X233400Y1071500D02*
X833400D01*
X118400D02*
X193400D01*
X233400D02*
X245900Y1131500D01*
X180900D02*
X193400Y1071500D01*
X180900Y1131500D02*
X245900D01*
X873400Y1071500D02*
X948400D01*
X873400D02*
X885900Y1131500D01*
X820900D02*
X833400Y1071500D01*
X820900Y1131500D02*
X885900D01*
X118400Y71501D02*
X948400D01*
X118400D02*
Y1071500D01*
X948400Y71501D02*
Y1071500D01*
X3476900Y349100D02*
X3863700D01*
X1876700Y336400D02*
X2263500D01*
X1767000Y2303400D02*
X2297000D01*
X1767000Y1303400D02*
X1968500D01*
X2095500D02*
X2297000D01*
X1767000D02*
Y2303400D01*
X2297000Y1303400D02*
Y2303400D01*
X2877700Y2717800D02*
X2950200D01*
X2155200D02*
X2227700D01*
Y2592800D02*
Y2842800D01*
Y2592800D02*
X2877700D01*
Y2842800D01*
X2227700D02*
X2877700D01*
X3048000Y1278900D02*
Y1351400D01*
Y2001400D02*
Y2073900D01*
X2923000Y2001400D02*
X3173000D01*
X2923000Y1351400D02*
Y2001400D01*
Y1351400D02*
X3173000D01*
Y2001400D01*
X3942200Y1420100D02*
X4211200D01*
Y3990100D01*
X3942200D02*
X4211200D01*
X3942200Y1420100D02*
Y3990100D01*
X3487300Y4013200D02*
X3559800D01*
X2764800D02*
X2837300D01*
Y3888200D02*
Y4138200D01*
Y3888200D02*
X3487300D01*
Y4138200D01*
X2837300D02*
X3487300D01*
X1182800Y3132200D02*
X1712800D01*
X1511300Y4132200D02*
X1712800D01*
X1182800D02*
X1384300D01*
X1712800Y3132200D02*
Y4132200D01*
X1182800Y3132200D02*
Y4132200D01*
X275600Y1422400D02*
X348100D01*
X998100D02*
X1070600D01*
X998100Y1297400D02*
Y1547400D01*
X348100D02*
X998100D01*
X348100Y1297400D02*
Y1547400D01*
Y1297400D02*
X998100D01*
X262900Y2184400D02*
X335400D01*
X985400D02*
X1057900D01*
X985400Y2059400D02*
Y2309400D01*
X335400D02*
X985400D01*
X335400Y2059400D02*
Y2309400D01*
Y2059400D02*
X985400D01*
X3517900Y2358400D02*
Y2430900D01*
Y3080900D02*
Y3153400D01*
X3392900Y3080900D02*
X3642900D01*
X3392900Y2430900D02*
Y3080900D01*
Y2430900D02*
X3642900D01*
Y3080900D01*
D24*
X2227000Y1403400D02*
G03*
X2227000Y1403400I-30000J0D01*
G01*
X1312800Y4032200D02*
G03*
X1312800Y4032200I-30000J0D01*
G01*
D25*
X152560Y4216425D02*
Y4317992D01*
X203344Y4368775D01*
X254128Y4317992D01*
Y4216425D01*
Y4292600D01*
X152560D01*
X304911Y4317992D02*
Y4216425D01*
Y4267208D01*
X330303Y4292600D01*
X355694Y4317992D01*
X381086D01*
X558829Y4368775D02*
Y4216425D01*
X482654D01*
X457262Y4241817D01*
Y4292600D01*
X482654Y4317992D01*
X558829D01*
X609612D02*
Y4241817D01*
X635004Y4216425D01*
X711180D01*
Y4317992D01*
X761963Y4216425D02*
X812747D01*
X787355D01*
Y4317992D01*
X761963D01*
X888922Y4216425D02*
Y4317992D01*
X965097D01*
X990489Y4292600D01*
Y4216425D01*
X1066665D02*
X1117448D01*
X1142840Y4241817D01*
Y4292600D01*
X1117448Y4317992D01*
X1066665D01*
X1041273Y4292600D01*
Y4241817D01*
X1066665Y4216425D01*
X1079611Y101625D02*
Y253975D01*
X1155786D01*
X1181178Y228583D01*
Y177800D01*
X1155786Y152408D01*
X1079611D01*
X1257354Y101625D02*
X1308137D01*
X1333529Y127017D01*
Y177800D01*
X1308137Y203192D01*
X1257354D01*
X1231962Y177800D01*
Y127017D01*
X1257354Y101625D01*
X1384312Y203192D02*
Y127017D01*
X1409704Y101625D01*
X1435096Y127017D01*
X1460488Y101625D01*
X1485880Y127017D01*
Y203192D01*
X1612839Y101625D02*
X1562055D01*
X1536663Y127017D01*
Y177800D01*
X1562055Y203192D01*
X1612839D01*
X1638230Y177800D01*
Y152408D01*
X1536663D01*
X1689014Y203192D02*
Y101625D01*
Y152408D01*
X1714406Y177800D01*
X1739797Y203192D01*
X1765189D01*
X3388327Y830572D02*
Y932139D01*
X3362935Y957531D01*
X3312152D01*
X3286760Y932139D01*
Y830572D01*
X3312152Y805180D01*
X3362935D01*
X3337543Y855963D02*
X3388327Y805180D01*
X3362935D02*
X3388327Y830572D01*
X3540678Y805180D02*
X3439111D01*
X3540678Y906747D01*
Y932139D01*
X3515286Y957531D01*
X3464503D01*
X3439111Y932139D01*
X1788127Y817872D02*
Y919439D01*
X1762735Y944831D01*
X1711952D01*
X1686560Y919439D01*
Y817872D01*
X1711952Y792480D01*
X1762735D01*
X1737343Y843263D02*
X1788127Y792480D01*
X1762735D02*
X1788127Y817872D01*
X1838911Y792480D02*
X1889694D01*
X1864303D01*
Y944831D01*
X1838911Y919439D01*
X116840Y1643380D02*
Y1795731D01*
X193015D01*
X218407Y1770339D01*
Y1719555D01*
X193015Y1694163D01*
X116840D01*
X167623D02*
X218407Y1643380D01*
X370758Y1795731D02*
X319974Y1770339D01*
X269191Y1719555D01*
Y1668772D01*
X294583Y1643380D01*
X345366D01*
X370758Y1668772D01*
Y1694163D01*
X345366Y1719555D01*
X269191D01*
X104140Y2405380D02*
Y2557731D01*
X180315D01*
X205707Y2532339D01*
Y2481555D01*
X180315Y2456163D01*
X104140D01*
X154923D02*
X205707Y2405380D01*
X358058Y2557731D02*
X256491D01*
Y2481555D01*
X307274Y2506947D01*
X332666D01*
X358058Y2481555D01*
Y2430772D01*
X332666Y2405380D01*
X281883D01*
X256491Y2430772D01*
X3251241Y1727225D02*
Y1879575D01*
X3327417D01*
X3352808Y1854183D01*
Y1803400D01*
X3327417Y1778008D01*
X3251241D01*
X3302025D02*
X3352808Y1727225D01*
X3479767D02*
Y1879575D01*
X3403592Y1803400D01*
X3505159D01*
X2451141Y2895625D02*
Y3047975D01*
X2527317D01*
X2552708Y3022583D01*
Y2971800D01*
X2527317Y2946408D01*
X2451141D01*
X2501925D02*
X2552708Y2895625D01*
X2603492Y3022583D02*
X2628884Y3047975D01*
X2679667D01*
X2705059Y3022583D01*
Y2997192D01*
X2679667Y2971800D01*
X2654275D01*
X2679667D01*
X2705059Y2946408D01*
Y2921017D01*
X2679667Y2895625D01*
X2628884D01*
X2603492Y2921017D01*
X2603541Y3657625D02*
Y3809975D01*
X2679717D01*
X2705108Y3784583D01*
Y3733800D01*
X2679717Y3708408D01*
X2603541D01*
X2654325D02*
X2705108Y3657625D01*
X2857459D02*
X2755892D01*
X2857459Y3759192D01*
Y3784583D01*
X2832067Y3809975D01*
X2781284D01*
X2755892Y3784583D01*
X3398520Y3413760D02*
Y3566111D01*
X3474695D01*
X3500087Y3540719D01*
Y3489935D01*
X3474695Y3464543D01*
X3398520D01*
X3449303D02*
X3500087Y3413760D01*
X3550871D02*
X3601654D01*
X3576263D01*
Y3566111D01*
X3550871Y3540719D01*
X1612962Y2539975D02*
X1562178D01*
X1536786Y2514583D01*
Y2413017D01*
X1562178Y2387625D01*
X1612962D01*
X1638354Y2413017D01*
Y2514583D01*
X1612962Y2539975D01*
X1790704Y2489192D02*
X1714529D01*
X1689137Y2463800D01*
Y2413017D01*
X1714529Y2387625D01*
X1790704D01*
X1866880Y2514583D02*
Y2489192D01*
X1841488D01*
X1892271D01*
X1866880D01*
Y2413017D01*
X1892271Y2387625D01*
X2070014D02*
X1968447D01*
X2070014Y2489192D01*
Y2514583D01*
X2044622Y2539975D01*
X1993839D01*
X1968447Y2514583D01*
X1168454Y3035275D02*
X1117670D01*
X1092278Y3009883D01*
Y2908317D01*
X1117670Y2882925D01*
X1168454D01*
X1193845Y2908317D01*
Y3009883D01*
X1168454Y3035275D01*
X1346196Y2984492D02*
X1270021D01*
X1244629Y2959100D01*
Y2908317D01*
X1270021Y2882925D01*
X1346196D01*
X1422372Y3009883D02*
Y2984492D01*
X1396980D01*
X1447763D01*
X1422372D01*
Y2908317D01*
X1447763Y2882925D01*
X1523939D02*
X1574722D01*
X1549330D01*
Y3035275D01*
X1523939Y3009883D01*
X3911682Y4305275D02*
Y4152925D01*
Y4229100D01*
X4013250D01*
Y4305275D01*
Y4152925D01*
X4064033Y4305275D02*
Y4152925D01*
X4140208D01*
X4165600Y4178317D01*
Y4279883D01*
X4140208Y4305275D01*
X4064033D01*
X4216384Y4152925D02*
Y4305275D01*
X4267167Y4254492D01*
X4317951Y4305275D01*
Y4152925D01*
X4368734Y4305275D02*
X4419518D01*
X4394126D01*
Y4152925D01*
X4368734D01*
X4419518D01*
%TF.MD5,8dec93158c3bb25965a1555a585e2764*%
M02*
