%TF.GenerationSoftware,Altium Limited,Altium Designer,24.10.1 (45)*%
G04 Layer_Color=65535*
%FSLAX45Y45*%
%MOMM*%
%TF.SameCoordinates,5D496F93-7052-41A5-B1B5-48F2770EFFD0*%
%TF.FilePolarity,Positive*%
%TF.FileFunction,Legend,Top*%
%TF.Part,Single*%
G01*
G75*
%TA.AperFunction,NonConductor*%
%ADD22C,0.25400*%
%ADD23C,0.25000*%
%ADD24C,0.20000*%
%ADD25C,0.60000*%
D22*
X83820Y1214120D02*
Y1366471D01*
X159995D01*
X185387Y1341079D01*
Y1290295D01*
X159995Y1264903D01*
X83820D01*
X261563Y1214120D02*
X312346D01*
X337738Y1239512D01*
Y1290295D01*
X312346Y1315687D01*
X261563D01*
X236171Y1290295D01*
Y1239512D01*
X261563Y1214120D01*
X388521Y1315687D02*
Y1239512D01*
X413913Y1214120D01*
X439305Y1239512D01*
X464697Y1214120D01*
X490089Y1239512D01*
Y1315687D01*
X617048Y1214120D02*
X566264D01*
X540872Y1239512D01*
Y1290295D01*
X566264Y1315687D01*
X617048D01*
X642439Y1290295D01*
Y1264903D01*
X540872D01*
X693223Y1315687D02*
Y1214120D01*
Y1264903D01*
X718615Y1290295D01*
X744006Y1315687D01*
X769398D01*
X3289267Y551172D02*
Y652739D01*
X3263875Y678131D01*
X3213092D01*
X3187700Y652739D01*
Y551172D01*
X3213092Y525780D01*
X3263875D01*
X3238483Y576563D02*
X3289267Y525780D01*
X3263875D02*
X3289267Y551172D01*
X3441618Y525780D02*
X3340051D01*
X3441618Y627347D01*
Y652739D01*
X3416226Y678131D01*
X3365443D01*
X3340051Y652739D01*
X1892267Y551172D02*
Y652739D01*
X1866875Y678131D01*
X1816092D01*
X1790700Y652739D01*
Y551172D01*
X1816092Y525780D01*
X1866875D01*
X1841483Y576563D02*
X1892267Y525780D01*
X1866875D02*
X1892267Y551172D01*
X1943051Y525780D02*
X1993834D01*
X1968443D01*
Y678131D01*
X1943051Y652739D01*
X91440Y1795780D02*
Y1948131D01*
X167615D01*
X193007Y1922739D01*
Y1871955D01*
X167615Y1846563D01*
X91440D01*
X142223D02*
X193007Y1795780D01*
X345358Y1948131D02*
X294574Y1922739D01*
X243791Y1871955D01*
Y1821172D01*
X269183Y1795780D01*
X319966D01*
X345358Y1821172D01*
Y1846563D01*
X319966Y1871955D01*
X243791D01*
X91440Y2494280D02*
Y2646631D01*
X167615D01*
X193007Y2621239D01*
Y2570455D01*
X167615Y2545063D01*
X91440D01*
X142223D02*
X193007Y2494280D01*
X345358Y2646631D02*
X243791D01*
Y2570455D01*
X294574Y2595847D01*
X319966D01*
X345358Y2570455D01*
Y2519672D01*
X319966Y2494280D01*
X269183D01*
X243791Y2519672D01*
X3136941Y1485925D02*
Y1638275D01*
X3213117D01*
X3238508Y1612883D01*
Y1562100D01*
X3213117Y1536708D01*
X3136941D01*
X3187725D02*
X3238508Y1485925D01*
X3365467D02*
Y1638275D01*
X3289292Y1562100D01*
X3390859D01*
X2336841Y2654325D02*
Y2806675D01*
X2413017D01*
X2438408Y2781283D01*
Y2730500D01*
X2413017Y2705108D01*
X2336841D01*
X2387625D02*
X2438408Y2654325D01*
X2489192Y2781283D02*
X2514584Y2806675D01*
X2565367D01*
X2590759Y2781283D01*
Y2755892D01*
X2565367Y2730500D01*
X2539975D01*
X2565367D01*
X2590759Y2705108D01*
Y2679717D01*
X2565367Y2654325D01*
X2514584D01*
X2489192Y2679717D01*
X2489241Y3416325D02*
Y3568675D01*
X2565417D01*
X2590808Y3543283D01*
Y3492500D01*
X2565417Y3467108D01*
X2489241D01*
X2540025D02*
X2590808Y3416325D01*
X2743159D02*
X2641592D01*
X2743159Y3517892D01*
Y3543283D01*
X2717767Y3568675D01*
X2666984D01*
X2641592Y3543283D01*
X3284220Y3172460D02*
Y3324811D01*
X3360395D01*
X3385787Y3299419D01*
Y3248635D01*
X3360395Y3223243D01*
X3284220D01*
X3335003D02*
X3385787Y3172460D01*
X3436571D02*
X3487354D01*
X3461963D01*
Y3324811D01*
X3436571Y3299419D01*
X1498662Y2298675D02*
X1447878D01*
X1422486Y2273283D01*
Y2171717D01*
X1447878Y2146325D01*
X1498662D01*
X1524054Y2171717D01*
Y2273283D01*
X1498662Y2298675D01*
X1676404Y2247892D02*
X1600229D01*
X1574837Y2222500D01*
Y2171717D01*
X1600229Y2146325D01*
X1676404D01*
X1752580Y2273283D02*
Y2247892D01*
X1727188D01*
X1777971D01*
X1752580D01*
Y2171717D01*
X1777971Y2146325D01*
X1955714D02*
X1854147D01*
X1955714Y2247892D01*
Y2273283D01*
X1930322Y2298675D01*
X1879539D01*
X1854147Y2273283D01*
X1270054Y2806675D02*
X1219270D01*
X1193878Y2781283D01*
Y2679717D01*
X1219270Y2654325D01*
X1270054D01*
X1295445Y2679717D01*
Y2781283D01*
X1270054Y2806675D01*
X1447796Y2755892D02*
X1371621D01*
X1346229Y2730500D01*
Y2679717D01*
X1371621Y2654325D01*
X1447796D01*
X1523972Y2781283D02*
Y2755892D01*
X1498580D01*
X1549363D01*
X1523972D01*
Y2679717D01*
X1549363Y2654325D01*
X1625539D02*
X1676322D01*
X1650930D01*
Y2806675D01*
X1625539Y2781283D01*
X3683082Y4038575D02*
Y3886225D01*
Y3962400D01*
X3784650D01*
Y4038575D01*
Y3886225D01*
X3835433Y4038575D02*
Y3886225D01*
X3911608D01*
X3937000Y3911617D01*
Y4013183D01*
X3911608Y4038575D01*
X3835433D01*
X3987784Y3886225D02*
Y4038575D01*
X4038567Y3987792D01*
X4089351Y4038575D01*
Y3886225D01*
X4140134Y4038575D02*
X4190918D01*
X4165526D01*
Y3886225D01*
X4140134D01*
X4190918D01*
X127160Y3987825D02*
Y4089392D01*
X177944Y4140175D01*
X228728Y4089392D01*
Y3987825D01*
Y4064000D01*
X127160D01*
X279511Y4089392D02*
Y3987825D01*
Y4038608D01*
X304903Y4064000D01*
X330294Y4089392D01*
X355686D01*
X533429Y4140175D02*
Y3987825D01*
X457254D01*
X431862Y4013217D01*
Y4064000D01*
X457254Y4089392D01*
X533429D01*
X584212D02*
Y4013217D01*
X609604Y3987825D01*
X685780D01*
Y4089392D01*
X736563Y3987825D02*
X787347D01*
X761955D01*
Y4089392D01*
X736563D01*
X863522Y3987825D02*
Y4089392D01*
X939697D01*
X965089Y4064000D01*
Y3987825D01*
X1041265D02*
X1092048D01*
X1117440Y4013217D01*
Y4064000D01*
X1092048Y4089392D01*
X1041265D01*
X1015873Y4064000D01*
Y4013217D01*
X1041265Y3987825D01*
D23*
X241100Y3920800D02*
G03*
X241100Y3920800I-12500J0D01*
G01*
X3902700Y304800D02*
G03*
X3902700Y304800I-12500J0D01*
G01*
X2505700D02*
G03*
X2505700Y304800I-12500J0D01*
G01*
X2311200Y1051100D02*
G03*
X2311200Y1051100I-12500J0D01*
G01*
X3974900Y3793800D02*
G03*
X3974900Y3793800I-12500J0D01*
G01*
X965000Y3901900D02*
G03*
X965000Y3901900I-12500J0D01*
G01*
D24*
X3712886Y414764D02*
G03*
X3698599Y438302I-207686J-109964D01*
G01*
X3311801D02*
G03*
X3292251Y404190I193399J-133502D01*
G01*
X3292270Y205373D02*
G03*
X3712866Y194800I212930J99427D01*
G01*
X2315886Y414764D02*
G03*
X2301599Y438302I-207686J-109964D01*
G01*
X1914801D02*
G03*
X1895251Y404190I193399J-133502D01*
G01*
X1895270Y205373D02*
G03*
X2315866Y194800I212930J99427D01*
G01*
X1981200Y1062100D02*
G03*
X1854200Y1062100I-63500J0D01*
G01*
X1270000Y3890900D02*
G03*
X1397000Y3890900I63500J0D01*
G01*
X94100Y2829800D02*
X363100D01*
Y3875800D01*
X94100D02*
X363100D01*
X94100Y2829800D02*
Y3875800D01*
X195300Y1054800D02*
X795300D01*
X80300D02*
X155300D01*
X195300D02*
X207800Y1114799D01*
X142800D02*
X155300Y1054800D01*
X142800Y1114799D02*
X207800D01*
X835300Y1054800D02*
X910300D01*
X835300D02*
X847800Y1114799D01*
X782800D02*
X795300Y1054800D01*
X782800Y1114799D02*
X847800D01*
X80300Y54800D02*
X910300D01*
X80300D02*
Y1054800D01*
X910300Y54800D02*
Y1054800D01*
X322700Y2148300D02*
X972700D01*
X322700D02*
Y2398300D01*
X972700D01*
Y2148300D02*
Y2398300D01*
Y2273300D02*
X1045200D01*
X250200D02*
X322700D01*
X3311800Y438300D02*
X3698600D01*
X1914800D02*
X2301600D01*
X1652700Y2062100D02*
X2182700D01*
X1652700Y1062100D02*
X1854200D01*
X1981200D02*
X2182700D01*
X1652700D02*
Y2062100D01*
X2182700Y1062100D02*
Y2062100D01*
X2763400Y2476500D02*
X2835900D01*
X2040900D02*
X2113400D01*
Y2351500D02*
Y2601500D01*
Y2351500D02*
X2763400D01*
Y2601500D01*
X2113400D02*
X2763400D01*
X2933700Y1037600D02*
Y1110100D01*
Y1760100D02*
Y1832600D01*
X2808700Y1760100D02*
X3058700D01*
X2808700Y1110100D02*
Y1760100D01*
Y1110100D02*
X3058700D01*
Y1760100D01*
X3827900Y1178800D02*
X4096900D01*
Y3748800D01*
X3827900D02*
X4096900D01*
X3827900Y1178800D02*
Y3748800D01*
X3373000Y3771900D02*
X3445500D01*
X2650500D02*
X2723000D01*
Y3646900D02*
Y3896900D01*
Y3646900D02*
X3373000D01*
Y3896900D01*
X2723000D02*
X3373000D01*
X1068500Y2890900D02*
X1598500D01*
X1397000Y3890900D02*
X1598500D01*
X1068500D02*
X1270000D01*
X1598500Y2890900D02*
Y3890900D01*
X1068500Y2890900D02*
Y3890900D01*
X250200Y1574800D02*
X322700D01*
X972700D02*
X1045200D01*
X972700Y1449800D02*
Y1699800D01*
X322700D02*
X972700D01*
X322700Y1449800D02*
Y1699800D01*
Y1449800D02*
X972700D01*
X3403600Y2117100D02*
Y2189600D01*
Y2839600D02*
Y2912100D01*
X3278600Y2839600D02*
X3528600D01*
X3278600Y2189600D02*
Y2839600D01*
Y2189600D02*
X3528600D01*
Y2839600D01*
D25*
X2112700Y1162100D02*
G03*
X2112700Y1162100I-30000J0D01*
G01*
X1198500Y3790900D02*
G03*
X1198500Y3790900I-30000J0D01*
G01*
%TF.MD5,dceea1a92e51b47024e9d3d886c1f8fa*%
M02*
