%TF.GenerationSoftware,Altium Limited,Altium Designer,24.10.1 (45)*%
G04 Layer_Color=8388736*
%FSLAX45Y45*%
%MOMM*%
%TF.SameCoordinates,47669921-03A9-45D4-BEC5-7B78C51FF8BB*%
%TF.FilePolarity,Negative*%
%TF.FileFunction,Soldermask,Top*%
%TF.Part,Single*%
G01*
G75*
%TA.AperFunction,ComponentPad*%
%ADD19C,1.25000*%
%ADD20R,1.25000X1.25000*%
%ADD21R,1.25000X1.25000*%
%ADD26C,1.80320*%
G04:AMPARAMS|DCode=27|XSize=1.8032mm|YSize=1.8032mm|CornerRadius=0.5016mm|HoleSize=0mm|Usage=FLASHONLY|Rotation=270.000|XOffset=0mm|YOffset=0mm|HoleType=Round|Shape=RoundedRectangle|*
%AMROUNDEDRECTD27*
21,1,1.80320,0.80000,0,0,270.0*
21,1,0.80000,1.80320,0,0,270.0*
1,1,1.00320,-0.40000,-0.40000*
1,1,1.00320,-0.40000,0.40000*
1,1,1.00320,0.40000,0.40000*
1,1,1.00320,0.40000,-0.40000*
%
%ADD27ROUNDEDRECTD27*%
G04:AMPARAMS|DCode=28|XSize=2.1532mm|YSize=2.1532mm|CornerRadius=0.5891mm|HoleSize=0mm|Usage=FLASHONLY|Rotation=270.000|XOffset=0mm|YOffset=0mm|HoleType=Round|Shape=RoundedRectangle|*
%AMROUNDEDRECTD28*
21,1,2.15320,0.97500,0,0,270.0*
21,1,0.97500,2.15320,0,0,270.0*
1,1,1.17820,-0.48750,-0.48750*
1,1,1.17820,-0.48750,0.48750*
1,1,1.17820,0.48750,0.48750*
1,1,1.17820,0.48750,-0.48750*
%
%ADD28ROUNDEDRECTD28*%
%ADD29C,2.15320*%
%ADD30R,1.60320X1.60320*%
%ADD31C,1.60320*%
%ADD32C,1.70320*%
%ADD33R,1.70320X1.70320*%
D19*
X3052700Y2717800D02*
D03*
X3048000Y1176400D02*
D03*
X3662300Y4013200D02*
D03*
X173100Y1422400D02*
D03*
X160400Y2184400D02*
D03*
X3517900Y2255900D02*
D03*
D20*
X2052700Y2717800D02*
D03*
X2662300Y4013200D02*
D03*
X1173100Y1422400D02*
D03*
X1160400Y2184400D02*
D03*
D21*
X3048000Y2176400D02*
D03*
X3517900Y3255900D02*
D03*
D26*
X266700Y3238500D02*
D03*
Y3492500D02*
D03*
Y3746500D02*
D03*
X4076700Y2070100D02*
D03*
Y2324100D02*
D03*
Y2832100D02*
D03*
Y3340100D02*
D03*
Y3594100D02*
D03*
Y3086100D02*
D03*
Y2578100D02*
D03*
Y1816100D02*
D03*
Y1562100D02*
D03*
D27*
X266700Y4000500D02*
D03*
X4076700Y3848100D02*
D03*
D28*
X533400Y821500D02*
D03*
D29*
Y321501D02*
D03*
D30*
X3410300Y482600D02*
D03*
X1810100Y469900D02*
D03*
D31*
X3930300Y482600D02*
D03*
X3670300D02*
D03*
X2330100Y469900D02*
D03*
X2070100D02*
D03*
D32*
X1651000Y2184400D02*
D03*
Y1930400D02*
D03*
Y1676400D02*
D03*
Y1422400D02*
D03*
X2413000Y2184400D02*
D03*
Y1930400D02*
D03*
Y1676400D02*
D03*
X1828800Y3251200D02*
D03*
Y3505200D02*
D03*
Y3759200D02*
D03*
Y4013200D02*
D03*
X1066800Y3251200D02*
D03*
Y3505200D02*
D03*
Y3759200D02*
D03*
D33*
X2413000Y1422400D02*
D03*
X1066800Y4013200D02*
D03*
%TF.MD5,f7ffc5c0d5f55c87c08264ffbfb84116*%
M02*
