%TF.GenerationSoftware,Altium Limited,Altium Designer,24.10.1 (45)*%
G04 Layer_Physical_Order=2*
G04 Layer_Color=16711680*
%FSLAX45Y45*%
%MOMM*%
%TF.SameCoordinates,47669921-03A9-45D4-BEC5-7B78C51FF8BB*%
%TF.FilePolarity,Positive*%
%TF.FileFunction,Copper,L2,Bot,Signal*%
%TF.Part,Single*%
G01*
G75*
%TA.AperFunction,Conductor*%
%ADD10C,0.50800*%
%TA.AperFunction,ComponentPad*%
%ADD11C,1.60000*%
G04:AMPARAMS|DCode=12|XSize=1.6mm|YSize=1.6mm|CornerRadius=0.4mm|HoleSize=0mm|Usage=FLASHONLY|Rotation=270.000|XOffset=0mm|YOffset=0mm|HoleType=Round|Shape=RoundedRectangle|*
%AMROUNDEDRECTD12*
21,1,1.60000,0.80000,0,0,270.0*
21,1,0.80000,1.60000,0,0,270.0*
1,1,0.80000,-0.40000,-0.40000*
1,1,0.80000,-0.40000,0.40000*
1,1,0.80000,0.40000,0.40000*
1,1,0.80000,0.40000,-0.40000*
%
%ADD12ROUNDEDRECTD12*%
G04:AMPARAMS|DCode=13|XSize=1.95mm|YSize=1.95mm|CornerRadius=0.4875mm|HoleSize=0mm|Usage=FLASHONLY|Rotation=270.000|XOffset=0mm|YOffset=0mm|HoleType=Round|Shape=RoundedRectangle|*
%AMROUNDEDRECTD13*
21,1,1.95000,0.97500,0,0,270.0*
21,1,0.97500,1.95000,0,0,270.0*
1,1,0.97500,-0.48750,-0.48750*
1,1,0.97500,-0.48750,0.48750*
1,1,0.97500,0.48750,0.48750*
1,1,0.97500,0.48750,-0.48750*
%
%ADD13ROUNDEDRECTD13*%
%ADD14C,1.95000*%
%ADD15R,1.40000X1.40000*%
%ADD16C,1.40000*%
%ADD17C,1.50000*%
%ADD18R,1.50000X1.50000*%
%ADD19C,1.25000*%
%ADD20R,1.25000X1.25000*%
%ADD21R,1.25000X1.25000*%
G36*
X4483100Y0D02*
X0D01*
Y4445000D01*
X4483100D01*
Y0D01*
D02*
G37*
%LPC*%
G36*
X3675000Y4100798D02*
Y4025900D01*
X3749898D01*
X3744210Y4047128D01*
X3732637Y4067172D01*
X3716272Y4083537D01*
X3696228Y4095110D01*
X3675000Y4100798D01*
D02*
G37*
G36*
X3649600D02*
X3628372Y4095110D01*
X3608328Y4083537D01*
X3591963Y4067172D01*
X3580390Y4047128D01*
X3574702Y4025900D01*
X3649600D01*
Y4100798D01*
D02*
G37*
G36*
X3749898Y4000500D02*
X3675000D01*
Y3925602D01*
X3696228Y3931290D01*
X3716272Y3942863D01*
X3732637Y3959228D01*
X3744210Y3979272D01*
X3749898Y4000500D01*
D02*
G37*
G36*
X3649600D02*
X3574702D01*
X3580390Y3979272D01*
X3591963Y3959228D01*
X3608328Y3942863D01*
X3628372Y3931290D01*
X3649600Y3925602D01*
Y4000500D01*
D02*
G37*
G36*
X948700Y4183095D02*
X189089D01*
X169268Y4179153D01*
X152465Y4167925D01*
X99275Y4114735D01*
X88047Y4097932D01*
X84105Y4078111D01*
Y3877300D01*
X88047Y3857479D01*
X99275Y3840675D01*
X165162Y3774788D01*
X161300Y3760376D01*
Y3732624D01*
X168483Y3705817D01*
X182359Y3681783D01*
X201983Y3662159D01*
X226017Y3648283D01*
X252824Y3641100D01*
X280576D01*
X307383Y3648283D01*
X331417Y3662159D01*
X351041Y3681783D01*
X364917Y3705817D01*
X372100Y3732624D01*
Y3760376D01*
X364917Y3787183D01*
X351041Y3811217D01*
X331417Y3830841D01*
X307383Y3844717D01*
X280576Y3851900D01*
X252824D01*
X238412Y3848038D01*
X199018Y3887431D01*
X206212Y3898198D01*
X209627Y3896783D01*
X226700Y3894536D01*
X299415D01*
X960394Y3233556D01*
X969155Y3227703D01*
X973242Y3212447D01*
X986460Y3189553D01*
X1005153Y3170860D01*
X1028047Y3157642D01*
X1053582Y3150800D01*
X1080018D01*
X1105553Y3157642D01*
X1128447Y3170860D01*
X1147140Y3189553D01*
X1160358Y3212447D01*
X1167200Y3237982D01*
Y3264418D01*
X1160358Y3289953D01*
X1147140Y3312847D01*
X1128447Y3331540D01*
X1105553Y3344758D01*
X1080018Y3351600D01*
X1053582D01*
X1028047Y3344758D01*
X1007534Y3332915D01*
X372664Y3967785D01*
Y4040500D01*
X370417Y4057573D01*
X366593Y4066805D01*
X374398Y4079505D01*
X927246D01*
X966400Y4040350D01*
Y3912800D01*
X1167200D01*
Y4113600D01*
X1039650D01*
X985325Y4167925D01*
X968521Y4179153D01*
X948700Y4183095D01*
D02*
G37*
G36*
X1080018Y3859600D02*
X1079500D01*
Y3771900D01*
X1167200D01*
Y3772418D01*
X1160358Y3797953D01*
X1147140Y3820847D01*
X1128447Y3839540D01*
X1105553Y3852758D01*
X1080018Y3859600D01*
D02*
G37*
G36*
X1054100D02*
X1053582D01*
X1028047Y3852758D01*
X1005153Y3839540D01*
X986460Y3820847D01*
X973242Y3797953D01*
X966400Y3772418D01*
Y3771900D01*
X1054100D01*
Y3859600D01*
D02*
G37*
G36*
X3746500Y4230095D02*
X1731558D01*
X1711737Y4226153D01*
X1694933Y4214925D01*
X1694933Y4214924D01*
X1665175Y4185167D01*
X1653947Y4168363D01*
X1650005Y4148542D01*
Y3886200D01*
X1653947Y3866379D01*
X1665175Y3849575D01*
X1731344Y3783406D01*
X1728400Y3772418D01*
Y3745982D01*
X1735242Y3720447D01*
X1748460Y3697553D01*
X1767153Y3678860D01*
X1777005Y3673172D01*
Y3591228D01*
X1767153Y3585540D01*
X1748460Y3566847D01*
X1735242Y3543953D01*
X1728400Y3518418D01*
Y3491982D01*
X1731344Y3480994D01*
X1546517Y3296167D01*
X1535289Y3279363D01*
X1531347Y3259542D01*
Y3128558D01*
X1535289Y3108737D01*
X1546517Y3091933D01*
X1734276Y2904174D01*
X1751080Y2892946D01*
X1770901Y2889004D01*
X2005089D01*
X2076659Y2817433D01*
X2071799Y2805700D01*
X1964800D01*
Y2629900D01*
X2067350D01*
X2361205Y2336046D01*
Y2270428D01*
X2351353Y2264740D01*
X2332660Y2246047D01*
X2319442Y2223153D01*
X2312600Y2197618D01*
Y2171182D01*
X2319442Y2145647D01*
X2332660Y2122753D01*
X2351353Y2104060D01*
X2374247Y2090842D01*
X2399782Y2084000D01*
X2426218D01*
X2451753Y2090842D01*
X2474647Y2104060D01*
X2493340Y2122753D01*
X2506558Y2145647D01*
X2513400Y2171182D01*
Y2197618D01*
X2506558Y2223153D01*
X2493340Y2246047D01*
X2474647Y2264740D01*
X2464795Y2270428D01*
Y2357499D01*
X2464795Y2357500D01*
X2460853Y2377321D01*
X2449625Y2394125D01*
X2140600Y2703150D01*
Y2736899D01*
X2152333Y2741759D01*
X2212917Y2681175D01*
X2229721Y2669947D01*
X2249542Y2666005D01*
X2981106D01*
X2982363Y2663828D01*
X2998555Y2647636D01*
Y2264300D01*
X2960100D01*
Y2088500D01*
X3135900D01*
Y2264300D01*
X3102145D01*
Y2644849D01*
X3106672Y2647463D01*
X3123037Y2663828D01*
X3134610Y2683872D01*
X3140600Y2706228D01*
Y2729372D01*
X3134610Y2751728D01*
X3123037Y2771772D01*
X3106672Y2788137D01*
X3086628Y2799710D01*
X3064272Y2805700D01*
X3041128D01*
X3018772Y2799710D01*
X2998728Y2788137D01*
X2982363Y2771772D01*
X2981106Y2769595D01*
X2270996D01*
X2063168Y2977424D01*
X2046364Y2988651D01*
X2026543Y2992594D01*
X1792356D01*
X1634937Y3150012D01*
Y3238088D01*
X1804594Y3407744D01*
X1815582Y3404800D01*
X1842018D01*
X1867553Y3411642D01*
X1890447Y3424860D01*
X1909140Y3443553D01*
X1922358Y3466447D01*
X1929200Y3491982D01*
Y3518418D01*
X1922358Y3543953D01*
X1909140Y3566847D01*
X1890447Y3585540D01*
X1880595Y3591228D01*
Y3673172D01*
X1890447Y3678860D01*
X1909140Y3697553D01*
X1922358Y3720447D01*
X1929200Y3745982D01*
Y3772418D01*
X1922358Y3797953D01*
X1909140Y3820847D01*
X1890447Y3839540D01*
X1867553Y3852758D01*
X1842018Y3859600D01*
X1815582D01*
X1804594Y3856656D01*
X1753595Y3907654D01*
Y3929824D01*
X1765328Y3934685D01*
X1767153Y3932860D01*
X1790047Y3919642D01*
X1815582Y3912800D01*
X1842018D01*
X1867553Y3919642D01*
X1890447Y3932860D01*
X1909140Y3951553D01*
X1914828Y3961405D01*
X2574400D01*
Y3925300D01*
X2750200D01*
Y3961405D01*
X3255146D01*
X3834405Y3382146D01*
Y3022600D01*
X3838347Y3002779D01*
X3849575Y2985975D01*
X3975162Y2860388D01*
X3971300Y2845976D01*
Y2818224D01*
X3978483Y2791417D01*
X3992359Y2767383D01*
X4011983Y2747759D01*
X4036017Y2733883D01*
X4062824Y2726700D01*
X4090576D01*
X4117383Y2733883D01*
X4141417Y2747759D01*
X4161041Y2767383D01*
X4164605Y2773556D01*
X4177305Y2770153D01*
Y2640047D01*
X4164605Y2636644D01*
X4161041Y2642817D01*
X4141417Y2662441D01*
X4117383Y2676317D01*
X4090576Y2683500D01*
X4062824D01*
X4036017Y2676317D01*
X4011983Y2662441D01*
X3992359Y2642817D01*
X3978483Y2618783D01*
X3971300Y2591976D01*
Y2564224D01*
X3978483Y2537417D01*
X3992359Y2513383D01*
X4011983Y2493759D01*
X4036017Y2479883D01*
X4062824Y2472700D01*
X4090576D01*
X4117383Y2479883D01*
X4141417Y2493759D01*
X4161041Y2513383D01*
X4164605Y2519556D01*
X4177305Y2516153D01*
Y2386047D01*
X4164605Y2382644D01*
X4161041Y2388817D01*
X4141417Y2408441D01*
X4117383Y2422317D01*
X4090576Y2429500D01*
X4062824D01*
X4036017Y2422317D01*
X4011983Y2408441D01*
X3992359Y2388817D01*
X3978483Y2364783D01*
X3971300Y2337976D01*
Y2310224D01*
X3978483Y2283417D01*
X3992359Y2259383D01*
X4011983Y2239759D01*
X4036017Y2225883D01*
X4062824Y2218700D01*
X4090576D01*
X4117383Y2225883D01*
X4141417Y2239759D01*
X4161041Y2259383D01*
X4164605Y2265556D01*
X4177305Y2262153D01*
Y2132047D01*
X4164605Y2128644D01*
X4161041Y2134817D01*
X4141417Y2154441D01*
X4117383Y2168317D01*
X4090576Y2175500D01*
X4062824D01*
X4036017Y2168317D01*
X4011983Y2154441D01*
X3992359Y2134817D01*
X3978483Y2110783D01*
X3971300Y2083976D01*
Y2056224D01*
X3978483Y2029417D01*
X3992359Y2005383D01*
X4011983Y1985759D01*
X4036017Y1971883D01*
X4062824Y1964700D01*
X4090576D01*
X4117383Y1971883D01*
X4141417Y1985759D01*
X4161041Y2005383D01*
X4164605Y2011556D01*
X4177305Y2008153D01*
Y1878047D01*
X4164605Y1874644D01*
X4161041Y1880817D01*
X4141417Y1900441D01*
X4117383Y1914317D01*
X4090576Y1921500D01*
X4062824D01*
X4036017Y1914317D01*
X4011983Y1900441D01*
X3992359Y1880817D01*
X3978483Y1856783D01*
X3971300Y1829976D01*
Y1802224D01*
X3978483Y1775417D01*
X3992359Y1751383D01*
X4011983Y1731759D01*
X4036017Y1717883D01*
X4062824Y1710700D01*
X4090576D01*
X4117383Y1717883D01*
X4141417Y1731759D01*
X4161041Y1751383D01*
X4164605Y1757556D01*
X4177305Y1754153D01*
Y1624047D01*
X4164605Y1620644D01*
X4161041Y1626817D01*
X4141417Y1646441D01*
X4117383Y1660317D01*
X4090576Y1667500D01*
X4089400D01*
Y1562100D01*
Y1456700D01*
X4090576D01*
X4117383Y1463883D01*
X4141417Y1477759D01*
X4161041Y1497383D01*
X4164605Y1503556D01*
X4177305Y1500153D01*
Y1220195D01*
X3996554D01*
X3816845Y1399904D01*
Y3008750D01*
X3812903Y3028571D01*
X3801675Y3045375D01*
X3605800Y3241250D01*
Y3343800D01*
X3430000D01*
Y3305345D01*
X1913471D01*
X1909140Y3312847D01*
X1890447Y3331540D01*
X1867553Y3344758D01*
X1842018Y3351600D01*
X1815582D01*
X1790047Y3344758D01*
X1767153Y3331540D01*
X1748460Y3312847D01*
X1735242Y3289953D01*
X1728400Y3264418D01*
Y3237982D01*
X1735242Y3212447D01*
X1748460Y3189553D01*
X1767153Y3170860D01*
X1790047Y3157642D01*
X1815582Y3150800D01*
X1842018D01*
X1867553Y3157642D01*
X1890447Y3170860D01*
X1909140Y3189553D01*
X1916185Y3201755D01*
X3430000D01*
Y3168000D01*
X3532550D01*
X3713255Y2987296D01*
Y1378450D01*
X3717198Y1358629D01*
X3728425Y1341825D01*
X3938475Y1131775D01*
X3955279Y1120547D01*
X3975100Y1116605D01*
X4199342D01*
X4219163Y1120547D01*
X4235967Y1131775D01*
X4241772Y1137580D01*
X4253505Y1132720D01*
Y879054D01*
X3950424Y575973D01*
X3942860Y578000D01*
X3917740D01*
X3893477Y571498D01*
X3871723Y558939D01*
X3853961Y541177D01*
X3841402Y519423D01*
X3834900Y495160D01*
Y470040D01*
X3841402Y445777D01*
X3852649Y426295D01*
X3848277Y413595D01*
X3752323D01*
X3747951Y426295D01*
X3759198Y445777D01*
X3765700Y470040D01*
Y495160D01*
X3759198Y519423D01*
X3746639Y541177D01*
X3728877Y558939D01*
X3709395Y570187D01*
Y1143000D01*
X3705453Y1162821D01*
X3694225Y1179625D01*
X2906825Y1967025D01*
X2890021Y1978253D01*
X2870200Y1982195D01*
X2499028D01*
X2493340Y1992047D01*
X2474647Y2010740D01*
X2451753Y2023958D01*
X2426218Y2030800D01*
X2399782D01*
X2374247Y2023958D01*
X2351353Y2010740D01*
X2332660Y1992047D01*
X2319442Y1969153D01*
X2312600Y1943618D01*
Y1917182D01*
X2319442Y1891647D01*
X2332660Y1868753D01*
X2351353Y1850060D01*
X2374247Y1836842D01*
X2399782Y1830000D01*
X2426218D01*
X2451753Y1836842D01*
X2474647Y1850060D01*
X2493340Y1868753D01*
X2499028Y1878605D01*
X2848746D01*
X3605805Y1121546D01*
Y553021D01*
X3593961Y541177D01*
X3581402Y519423D01*
X3574900Y495160D01*
Y470040D01*
X3581402Y445777D01*
X3592649Y426295D01*
X3588277Y413595D01*
X3505700D01*
Y469900D01*
X3410300D01*
X3314900D01*
Y413595D01*
X2459654D01*
X2423473Y449776D01*
X2425500Y457340D01*
Y482460D01*
X2418998Y506723D01*
X2406439Y528477D01*
X2388677Y546239D01*
X2366923Y558798D01*
X2342660Y565300D01*
X2317540D01*
X2293277Y558798D01*
X2271523Y546239D01*
X2253761Y528477D01*
X2241202Y506723D01*
X2234700Y482460D01*
Y457340D01*
X2241202Y433077D01*
X2253761Y411323D01*
X2271523Y393561D01*
X2293277Y381002D01*
X2317540Y374500D01*
X2342660D01*
X2350224Y376527D01*
X2401575Y325176D01*
X2401575Y325175D01*
X2418379Y313947D01*
X2438200Y310004D01*
X2438201Y310005D01*
X3980337D01*
X4000158Y313947D01*
X4016962Y325175D01*
X4418124Y726338D01*
X4418125Y726338D01*
X4429353Y743142D01*
X4433295Y762963D01*
Y3289300D01*
X4429353Y3309121D01*
X4418125Y3325925D01*
X4178238Y3565812D01*
X4182100Y3580224D01*
Y3607976D01*
X4174917Y3634783D01*
X4161041Y3658817D01*
X4141417Y3678441D01*
X4117383Y3692317D01*
X4090576Y3699500D01*
X4062824D01*
X4036017Y3692317D01*
X4011983Y3678441D01*
X3992359Y3658817D01*
X3978483Y3634783D01*
X3971300Y3607976D01*
Y3580224D01*
X3978483Y3553417D01*
X3992359Y3529383D01*
X4011983Y3509759D01*
X4036017Y3495883D01*
X4062824Y3488700D01*
X4090576D01*
X4104988Y3492562D01*
X4329705Y3267846D01*
Y3176938D01*
X4317972Y3172078D01*
X4178238Y3311812D01*
X4182100Y3326224D01*
Y3353976D01*
X4174917Y3380783D01*
X4161041Y3404817D01*
X4141417Y3424441D01*
X4117383Y3438317D01*
X4090576Y3445500D01*
X4062824D01*
X4036017Y3438317D01*
X4011983Y3424441D01*
X3992359Y3404817D01*
X3978483Y3380783D01*
X3971300Y3353976D01*
Y3326224D01*
X3978483Y3299417D01*
X3992359Y3275383D01*
X4011983Y3255759D01*
X4036017Y3241883D01*
X4062824Y3234700D01*
X4090576D01*
X4104988Y3238562D01*
X4253505Y3090046D01*
Y2999138D01*
X4241772Y2994278D01*
X4178238Y3057812D01*
X4182100Y3072224D01*
Y3099976D01*
X4174917Y3126783D01*
X4161041Y3150817D01*
X4141417Y3170441D01*
X4117383Y3184317D01*
X4090576Y3191500D01*
X4062824D01*
X4036017Y3184317D01*
X4011983Y3170441D01*
X3992359Y3150817D01*
X3978483Y3126783D01*
X3971300Y3099976D01*
Y3072224D01*
X3978483Y3045417D01*
X3992359Y3021383D01*
X4011983Y3001759D01*
X4036017Y2987883D01*
X4062824Y2980700D01*
X4090576D01*
X4104988Y2984562D01*
X4177305Y2912246D01*
Y2894047D01*
X4164605Y2890644D01*
X4161041Y2896817D01*
X4141417Y2916441D01*
X4117383Y2930317D01*
X4090576Y2937500D01*
X4062824D01*
X4048412Y2933638D01*
X3937995Y3044054D01*
Y3403599D01*
X3937995Y3403600D01*
X3934053Y3423421D01*
X3922825Y3440225D01*
X3922824Y3440225D01*
X3313225Y4049825D01*
X3296421Y4061053D01*
X3276600Y4064995D01*
X2750200D01*
Y4101100D01*
X2574400D01*
Y4064995D01*
X1914828D01*
X1909140Y4074847D01*
X1890447Y4093540D01*
X1867553Y4106758D01*
X1842018Y4113600D01*
X1815582D01*
X1790047Y4106758D01*
X1767153Y4093540D01*
X1765328Y4091715D01*
X1753595Y4096576D01*
Y4126505D01*
X3725046D01*
X3970736Y3880815D01*
Y3808100D01*
X3972983Y3791027D01*
X3979573Y3775118D01*
X3990056Y3761456D01*
X4003718Y3750973D01*
X4019627Y3744383D01*
X4036700Y3742136D01*
X4116700D01*
X4133773Y3744383D01*
X4149682Y3750973D01*
X4163344Y3761456D01*
X4173827Y3775118D01*
X4180417Y3791027D01*
X4182664Y3808100D01*
Y3888100D01*
X4180417Y3905173D01*
X4173827Y3921082D01*
X4163344Y3934744D01*
X4149682Y3945227D01*
X4133773Y3951817D01*
X4116700Y3954064D01*
X4043985D01*
X3783125Y4214925D01*
X3766321Y4226153D01*
X3746500Y4230095D01*
D02*
G37*
G36*
X1167200Y3746500D02*
X1079500D01*
Y3658800D01*
X1080018D01*
X1105553Y3665642D01*
X1128447Y3678860D01*
X1147140Y3697553D01*
X1160358Y3720447D01*
X1167200Y3745982D01*
Y3746500D01*
D02*
G37*
G36*
X1054100D02*
X966400D01*
Y3745982D01*
X973242Y3720447D01*
X986460Y3697553D01*
X1005153Y3678860D01*
X1028047Y3665642D01*
X1053582Y3658800D01*
X1054100D01*
Y3746500D01*
D02*
G37*
G36*
X1080018Y3605600D02*
X1079500D01*
Y3517900D01*
X1167200D01*
Y3518418D01*
X1160358Y3543953D01*
X1147140Y3566847D01*
X1128447Y3585540D01*
X1105553Y3598758D01*
X1080018Y3605600D01*
D02*
G37*
G36*
X1054100D02*
X1053582D01*
X1028047Y3598758D01*
X1005153Y3585540D01*
X986460Y3566847D01*
X973242Y3543953D01*
X966400Y3518418D01*
Y3517900D01*
X1054100D01*
Y3605600D01*
D02*
G37*
G36*
X1167200Y3492500D02*
X1079500D01*
Y3404800D01*
X1080018D01*
X1105553Y3411642D01*
X1128447Y3424860D01*
X1147140Y3443553D01*
X1160358Y3466447D01*
X1167200Y3491982D01*
Y3492500D01*
D02*
G37*
G36*
X1054100D02*
X966400D01*
Y3491982D01*
X973242Y3466447D01*
X986460Y3443553D01*
X1005153Y3424860D01*
X1028047Y3411642D01*
X1053582Y3404800D01*
X1054100D01*
Y3492500D01*
D02*
G37*
G36*
X280576Y3597900D02*
X252824D01*
X226017Y3590717D01*
X201983Y3576841D01*
X182359Y3557217D01*
X168483Y3533183D01*
X161300Y3506376D01*
Y3478624D01*
X165162Y3464212D01*
X99275Y3398325D01*
X88047Y3381521D01*
X84105Y3361700D01*
Y2914425D01*
X88047Y2894604D01*
X99275Y2877800D01*
X1121305Y1855771D01*
Y1510300D01*
X1085200D01*
Y1334500D01*
X1261000D01*
Y1370605D01*
X1564972D01*
X1570660Y1360753D01*
X1589353Y1342060D01*
X1612247Y1328842D01*
X1637782Y1322000D01*
X1664218D01*
X1689753Y1328842D01*
X1712647Y1342060D01*
X1713272Y1342685D01*
X1725005Y1337824D01*
Y896554D01*
X1210446Y381995D01*
X640386D01*
X631744Y396963D01*
X608862Y419845D01*
X580838Y436025D01*
X549580Y444400D01*
X517220D01*
X485962Y436025D01*
X457938Y419845D01*
X435056Y396963D01*
X418875Y368938D01*
X410500Y337681D01*
Y305320D01*
X418875Y274063D01*
X435056Y246038D01*
X457938Y223156D01*
X485962Y206976D01*
X517220Y198601D01*
X549580D01*
X580838Y206976D01*
X608862Y223156D01*
X631744Y246038D01*
X647925Y274063D01*
X649088Y278405D01*
X1231900D01*
X1251721Y282347D01*
X1268525Y293575D01*
X1813425Y838475D01*
X1824653Y855279D01*
X1828595Y875100D01*
Y1550600D01*
X1824653Y1570421D01*
X1813425Y1587225D01*
X1748456Y1652194D01*
X1751400Y1663182D01*
Y1689618D01*
X1744558Y1715153D01*
X1731340Y1738047D01*
X1712647Y1756740D01*
X1702795Y1762428D01*
Y1844372D01*
X1712647Y1850060D01*
X1731340Y1868753D01*
X1744558Y1891647D01*
X1751400Y1917182D01*
Y1943618D01*
X1744558Y1969153D01*
X1731340Y1992047D01*
X1712647Y2010740D01*
X1689753Y2023958D01*
X1664218Y2030800D01*
X1637782D01*
X1612247Y2023958D01*
X1589353Y2010740D01*
X1570660Y1992047D01*
X1557442Y1969153D01*
X1550600Y1943618D01*
Y1917182D01*
X1557442Y1891647D01*
X1570660Y1868753D01*
X1589353Y1850060D01*
X1599205Y1844372D01*
Y1762428D01*
X1589353Y1756740D01*
X1570660Y1738047D01*
X1557442Y1715153D01*
X1550600Y1689618D01*
Y1663182D01*
X1557442Y1637647D01*
X1570660Y1614753D01*
X1589353Y1596060D01*
X1612247Y1582842D01*
X1637782Y1576000D01*
X1664218D01*
X1675206Y1578944D01*
X1725005Y1529146D01*
Y1506976D01*
X1713272Y1502115D01*
X1712647Y1502740D01*
X1689753Y1515958D01*
X1664218Y1522800D01*
X1637782D01*
X1612247Y1515958D01*
X1589353Y1502740D01*
X1570660Y1484047D01*
X1564972Y1474195D01*
X1261000D01*
Y1510300D01*
X1224895D01*
Y1877224D01*
X1224895Y1877225D01*
X1220953Y1897046D01*
X1209725Y1913850D01*
X187695Y2935880D01*
Y3151853D01*
X199428Y3156714D01*
X201983Y3154159D01*
X226017Y3140283D01*
X252824Y3133100D01*
X280576D01*
X294988Y3136962D01*
X1108605Y2323346D01*
Y2272300D01*
X1072500D01*
Y2096500D01*
X1248300D01*
Y2132605D01*
X1564972D01*
X1570660Y2122753D01*
X1589353Y2104060D01*
X1612247Y2090842D01*
X1637782Y2084000D01*
X1664218D01*
X1689753Y2090842D01*
X1712647Y2104060D01*
X1731340Y2122753D01*
X1744558Y2145647D01*
X1751400Y2171182D01*
Y2197618D01*
X1744558Y2223153D01*
X1731340Y2246047D01*
X1712647Y2264740D01*
X1689753Y2277958D01*
X1664218Y2284800D01*
X1637782D01*
X1612247Y2277958D01*
X1589353Y2264740D01*
X1570660Y2246047D01*
X1564972Y2236195D01*
X1248300D01*
Y2272300D01*
X1212195D01*
Y2344800D01*
X1208253Y2364621D01*
X1197025Y2381425D01*
X368238Y3210212D01*
X372100Y3224624D01*
Y3252376D01*
X364917Y3279183D01*
X351041Y3303217D01*
X331417Y3322841D01*
X307383Y3336717D01*
X280576Y3343900D01*
X252824D01*
X226017Y3336717D01*
X201983Y3322841D01*
X199428Y3320286D01*
X187695Y3325147D01*
Y3340246D01*
X238412Y3390962D01*
X252824Y3387100D01*
X280576D01*
X307383Y3394283D01*
X331417Y3408159D01*
X351041Y3427783D01*
X364917Y3451817D01*
X372100Y3478624D01*
Y3506376D01*
X364917Y3533183D01*
X351041Y3557217D01*
X331417Y3576841D01*
X307383Y3590717D01*
X280576Y3597900D01*
D02*
G37*
G36*
X3530600Y2343498D02*
Y2268600D01*
X3605498D01*
X3599810Y2289828D01*
X3588237Y2309872D01*
X3571872Y2326237D01*
X3551828Y2337810D01*
X3530600Y2343498D01*
D02*
G37*
G36*
X3505200D02*
X3483972Y2337810D01*
X3463928Y2326237D01*
X3447563Y2309872D01*
X3435990Y2289828D01*
X3430302Y2268600D01*
X3505200D01*
Y2343498D01*
D02*
G37*
G36*
X173100Y2271998D02*
Y2197100D01*
X247998D01*
X242310Y2218328D01*
X230737Y2238372D01*
X214372Y2254737D01*
X194328Y2266310D01*
X173100Y2271998D01*
D02*
G37*
G36*
X147700D02*
X126472Y2266310D01*
X106428Y2254737D01*
X90063Y2238372D01*
X78490Y2218328D01*
X72802Y2197100D01*
X147700D01*
Y2271998D01*
D02*
G37*
G36*
X3605498Y2243200D02*
X3530600D01*
Y2168302D01*
X3551828Y2173990D01*
X3571872Y2185563D01*
X3588237Y2201928D01*
X3599810Y2221972D01*
X3605498Y2243200D01*
D02*
G37*
G36*
X3505200D02*
X3430302D01*
X3435990Y2221972D01*
X3447563Y2201928D01*
X3463928Y2185563D01*
X3483972Y2173990D01*
X3505200Y2168302D01*
Y2243200D01*
D02*
G37*
G36*
X247998Y2171700D02*
X173100D01*
Y2096802D01*
X194328Y2102490D01*
X214372Y2114063D01*
X230737Y2130428D01*
X242310Y2150472D01*
X247998Y2171700D01*
D02*
G37*
G36*
X147700D02*
X72802D01*
X78490Y2150472D01*
X90063Y2130428D01*
X106428Y2114063D01*
X126472Y2102490D01*
X147700Y2096802D01*
Y2171700D01*
D02*
G37*
G36*
X2426218Y1776800D02*
X2399782D01*
X2374247Y1769958D01*
X2351353Y1756740D01*
X2332660Y1738047D01*
X2319442Y1715153D01*
X2312600Y1689618D01*
Y1663182D01*
X2315544Y1652194D01*
X2033475Y1370125D01*
X2022247Y1353321D01*
X2018305Y1333500D01*
Y550154D01*
X2011523Y546239D01*
X1993761Y528477D01*
X1981202Y506723D01*
X1974700Y482460D01*
Y457340D01*
X1981202Y433077D01*
X1993761Y411323D01*
X2011523Y393561D01*
X2033277Y381002D01*
X2057540Y374500D01*
X2082660D01*
X2106923Y381002D01*
X2128677Y393561D01*
X2146439Y411323D01*
X2158998Y433077D01*
X2165500Y457340D01*
Y482460D01*
X2158998Y506723D01*
X2146439Y528477D01*
X2128677Y546239D01*
X2121895Y550154D01*
Y1312046D01*
X2300867Y1491017D01*
X2312600Y1486157D01*
Y1322000D01*
X2513400D01*
Y1370605D01*
X2780546D01*
X2960750Y1190400D01*
X2960100Y1187972D01*
Y1164828D01*
X2966090Y1142472D01*
X2977663Y1122428D01*
X2994028Y1106063D01*
X3014072Y1094490D01*
X3036428Y1088500D01*
X3059572D01*
X3081928Y1094490D01*
X3101972Y1106063D01*
X3118337Y1122428D01*
X3129910Y1142472D01*
X3135900Y1164828D01*
Y1187972D01*
X3129910Y1210328D01*
X3118337Y1230372D01*
X3101972Y1246737D01*
X3081928Y1258310D01*
X3059572Y1264300D01*
X3036428D01*
X3034000Y1263649D01*
X2838625Y1459025D01*
X2821821Y1470253D01*
X2802000Y1474195D01*
X2513400D01*
Y1522800D01*
X2349243D01*
X2344383Y1534533D01*
X2388794Y1578944D01*
X2399782Y1576000D01*
X2426218D01*
X2451753Y1582842D01*
X2474647Y1596060D01*
X2493340Y1614753D01*
X2506558Y1637647D01*
X2513400Y1663182D01*
Y1689618D01*
X2506558Y1715153D01*
X2493340Y1738047D01*
X2474647Y1756740D01*
X2451753Y1769958D01*
X2426218Y1776800D01*
D02*
G37*
G36*
X4064000Y1667500D02*
X4062824D01*
X4036017Y1660317D01*
X4011983Y1646441D01*
X3992359Y1626817D01*
X3978483Y1602783D01*
X3971300Y1575976D01*
Y1574800D01*
X4064000D01*
Y1667500D01*
D02*
G37*
G36*
Y1549400D02*
X3971300D01*
Y1548224D01*
X3978483Y1521417D01*
X3992359Y1497383D01*
X4011983Y1477759D01*
X4036017Y1463883D01*
X4062824Y1456700D01*
X4064000D01*
Y1549400D01*
D02*
G37*
G36*
X185800Y1509998D02*
Y1435100D01*
X260698D01*
X255010Y1456328D01*
X243437Y1476372D01*
X227072Y1492737D01*
X207028Y1504310D01*
X185800Y1509998D01*
D02*
G37*
G36*
X160400D02*
X139172Y1504310D01*
X119128Y1492737D01*
X102763Y1476372D01*
X91190Y1456328D01*
X85502Y1435100D01*
X160400D01*
Y1509998D01*
D02*
G37*
G36*
X260698Y1409700D02*
X185800D01*
Y1334802D01*
X207028Y1340490D01*
X227072Y1352063D01*
X243437Y1368428D01*
X255010Y1388472D01*
X260698Y1409700D01*
D02*
G37*
G36*
X160400D02*
X85502D01*
X91190Y1388472D01*
X102763Y1368428D01*
X119128Y1352063D01*
X139172Y1340490D01*
X160400Y1334802D01*
Y1409700D01*
D02*
G37*
G36*
X582150Y945039D02*
X546100D01*
Y834199D01*
X656940D01*
Y870249D01*
X654391Y889607D01*
X646920Y907644D01*
X635034Y923134D01*
X619545Y935019D01*
X601507Y942491D01*
X582150Y945039D01*
D02*
G37*
G36*
X520700D02*
X484650D01*
X465293Y942491D01*
X447255Y935019D01*
X431766Y923134D01*
X419880Y907644D01*
X412409Y889607D01*
X409860Y870249D01*
Y834199D01*
X520700D01*
Y945039D01*
D02*
G37*
G36*
X656940Y808799D02*
X546100D01*
Y697960D01*
X582150D01*
X601507Y700508D01*
X619545Y707980D01*
X635034Y719865D01*
X646920Y735355D01*
X654391Y753392D01*
X656940Y772750D01*
Y808799D01*
D02*
G37*
G36*
X520700D02*
X409860D01*
Y772750D01*
X412409Y753392D01*
X419880Y735355D01*
X431766Y719865D01*
X447255Y707980D01*
X465293Y700508D01*
X484650Y697960D01*
X520700D01*
Y808799D01*
D02*
G37*
G36*
X3505700Y578000D02*
X3423000D01*
Y495300D01*
X3505700D01*
Y578000D01*
D02*
G37*
G36*
X3397600D02*
X3314900D01*
Y495300D01*
X3397600D01*
Y578000D01*
D02*
G37*
G36*
X1905500Y565300D02*
X1822800D01*
Y482600D01*
X1905500D01*
Y565300D01*
D02*
G37*
G36*
X1797400D02*
X1714700D01*
Y482600D01*
X1797400D01*
Y565300D01*
D02*
G37*
G36*
X1905500Y457200D02*
X1822800D01*
Y374500D01*
X1905500D01*
Y457200D01*
D02*
G37*
G36*
X1797400D02*
X1714700D01*
Y374500D01*
X1797400D01*
Y457200D01*
D02*
G37*
%LPD*%
D10*
X2330100Y469900D02*
X2438200Y361800D01*
X3980337D01*
X4381500Y762963D01*
Y3289300D01*
X4076700Y3594100D02*
X4381500Y3289300D01*
X3930300Y482600D02*
X4305300Y857600D01*
Y3111500D01*
X4076700Y3340100D02*
X4305300Y3111500D01*
X1173100Y1422400D02*
Y1877225D01*
X135900Y2914425D02*
X1173100Y1877225D01*
X135900Y3361700D02*
X266700Y3492500D01*
X135900Y2914425D02*
Y3361700D01*
X1160400Y2184400D02*
Y2344800D01*
X266700Y3238500D02*
X1160400Y2344800D01*
X948700Y4131300D02*
X1066800Y4013200D01*
X189089Y4131300D02*
X948700D01*
X135900Y4078111D02*
X189089Y4131300D01*
X135900Y3877300D02*
Y4078111D01*
Y3877300D02*
X266700Y3746500D01*
X997019Y3270181D02*
X1047819D01*
X1066800Y3251200D01*
X266700Y4000500D02*
X997019Y3270181D01*
X1160400Y2184400D02*
X1651000D01*
X1173100Y1422400D02*
X1651000D01*
X3886200Y3022600D02*
Y3403600D01*
Y3022600D02*
X4076700Y2832100D01*
X2662300Y4013200D02*
X3276600D01*
X3886200Y3403600D01*
X1828800Y4013200D02*
X2662300D01*
X3746500Y4178300D02*
X4076700Y3848100D01*
X1731558Y4178300D02*
X3746500D01*
X1701800Y3886200D02*
Y4148542D01*
X1731558Y4178300D01*
X1701800Y3886200D02*
X1828800Y3759200D01*
X3975100Y1168400D02*
X4199342D01*
X4076700Y3086100D02*
X4229100Y2933700D01*
Y1198158D02*
Y2933700D01*
X4199342Y1168400D02*
X4229100Y1198158D01*
X3765050Y1378450D02*
X3975100Y1168400D01*
X3765050Y1378450D02*
Y3008750D01*
X3517900Y3255900D02*
X3765050Y3008750D01*
X2870200Y1930400D02*
X3657600Y1143000D01*
Y495300D02*
Y1143000D01*
Y495300D02*
X3670300Y482600D01*
X1828800Y3251200D02*
X1831150Y3253550D01*
X3515550D01*
X1828800Y3505200D02*
Y3759200D01*
X1583142Y3128558D02*
Y3259542D01*
Y3128558D02*
X1770901Y2940799D01*
X1583142Y3259542D02*
X1828800Y3505200D01*
X2026543Y2940799D02*
X2249542Y2717800D01*
X1770901Y2940799D02*
X2026543D01*
X2249542Y2717800D02*
X3052700D01*
X3048000Y2176400D02*
X3050350Y2178750D01*
Y2715450D01*
X3052700Y2717800D01*
X2413000Y1930400D02*
X2870200D01*
X2802000Y1422400D02*
X3048000Y1176400D01*
X2413000Y1422400D02*
X2802000D01*
X2070100Y469900D02*
Y1333500D01*
X2413000Y1676400D01*
X2052700Y2717800D02*
X2413000Y2357500D01*
Y2184400D02*
Y2357500D01*
X1644650Y2178050D02*
X1651000Y2184400D01*
X1644650Y1428750D02*
X1651000Y1422400D01*
X539884Y342924D02*
X539908Y342900D01*
Y330200D02*
X1231900D01*
X1776800Y875100D02*
Y1550600D01*
X1231900Y330200D02*
X1776800Y875100D01*
X1651000Y1676400D02*
X1776800Y1550600D01*
X1651000Y1676400D02*
Y1930400D01*
D11*
X266700Y3238500D02*
D03*
Y3492500D02*
D03*
Y3746500D02*
D03*
X4076700Y2070100D02*
D03*
Y2324100D02*
D03*
Y2832100D02*
D03*
Y3340100D02*
D03*
Y3594100D02*
D03*
Y3086100D02*
D03*
Y2578100D02*
D03*
Y1816100D02*
D03*
Y1562100D02*
D03*
D12*
X266700Y4000500D02*
D03*
X4076700Y3848100D02*
D03*
D13*
X533400Y821500D02*
D03*
D14*
Y321501D02*
D03*
D15*
X3410300Y482600D02*
D03*
X1810100Y469900D02*
D03*
D16*
X3930300Y482600D02*
D03*
X3670300D02*
D03*
X2330100Y469900D02*
D03*
X2070100D02*
D03*
D17*
X1651000Y2184400D02*
D03*
Y1930400D02*
D03*
Y1676400D02*
D03*
Y1422400D02*
D03*
X2413000Y2184400D02*
D03*
Y1930400D02*
D03*
Y1676400D02*
D03*
X1828800Y3251200D02*
D03*
Y3505200D02*
D03*
Y3759200D02*
D03*
Y4013200D02*
D03*
X1066800Y3251200D02*
D03*
Y3505200D02*
D03*
Y3759200D02*
D03*
D18*
X2413000Y1422400D02*
D03*
X1066800Y4013200D02*
D03*
D19*
X3052700Y2717800D02*
D03*
X3048000Y1176400D02*
D03*
X3662300Y4013200D02*
D03*
X173100Y1422400D02*
D03*
X160400Y2184400D02*
D03*
X3517900Y2255900D02*
D03*
D20*
X2052700Y2717800D02*
D03*
X2662300Y4013200D02*
D03*
X1173100Y1422400D02*
D03*
X1160400Y2184400D02*
D03*
D21*
X3048000Y2176400D02*
D03*
X3517900Y3255900D02*
D03*
%TF.MD5,2181124e5258dcf90a383ac155840869*%
M02*
