%TF.GenerationSoftware,Altium Limited,Altium Designer,24.10.1 (45)*%
G04 Layer_Physical_Order=1*
G04 Layer_Color=255*
%FSLAX45Y45*%
%MOMM*%
%TF.SameCoordinates,5D496F93-7052-41A5-B1B5-48F2770EFFD0*%
%TF.FilePolarity,Positive*%
%TF.FileFunction,Copper,L1,Top,Signal*%
%TF.Part,Single*%
G01*
G75*
%TA.AperFunction,Conductor*%
%ADD10C,0.50800*%
%TA.AperFunction,ComponentPad*%
%ADD11C,1.60000*%
G04:AMPARAMS|DCode=12|XSize=1.6mm|YSize=1.6mm|CornerRadius=0.4mm|HoleSize=0mm|Usage=FLASHONLY|Rotation=270.000|XOffset=0mm|YOffset=0mm|HoleType=Round|Shape=RoundedRectangle|*
%AMROUNDEDRECTD12*
21,1,1.60000,0.80000,0,0,270.0*
21,1,0.80000,1.60000,0,0,270.0*
1,1,0.80000,-0.40000,-0.40000*
1,1,0.80000,-0.40000,0.40000*
1,1,0.80000,0.40000,0.40000*
1,1,0.80000,0.40000,-0.40000*
%
%ADD12ROUNDEDRECTD12*%
G04:AMPARAMS|DCode=13|XSize=1.95mm|YSize=1.95mm|CornerRadius=0.4875mm|HoleSize=0mm|Usage=FLASHONLY|Rotation=270.000|XOffset=0mm|YOffset=0mm|HoleType=Round|Shape=RoundedRectangle|*
%AMROUNDEDRECTD13*
21,1,1.95000,0.97500,0,0,270.0*
21,1,0.97500,1.95000,0,0,270.0*
1,1,0.97500,-0.48750,-0.48750*
1,1,0.97500,-0.48750,0.48750*
1,1,0.97500,0.48750,0.48750*
1,1,0.97500,0.48750,-0.48750*
%
%ADD13ROUNDEDRECTD13*%
%ADD14C,1.95000*%
%ADD15R,1.25000X1.25000*%
%ADD16C,1.25000*%
%ADD17R,1.40000X1.40000*%
%ADD18C,1.40000*%
%ADD19C,1.50000*%
%ADD20R,1.50000X1.50000*%
%ADD21R,1.25000X1.25000*%
D10*
X3962400Y3098800D02*
X4093200Y2968000D01*
Y892800D02*
Y2968000D01*
X3505200Y304800D02*
X4093200Y892800D01*
X2959100Y304800D02*
X3245200D01*
X2603500Y660400D02*
X2959100Y304800D01*
X2603500Y660400D02*
Y1384300D01*
X2298700Y1689100D02*
X2603500Y1384300D01*
X1848200Y304800D02*
Y984600D01*
X2298700Y1435100D01*
X1147700Y1574800D02*
Y1944525D01*
X1034400Y2057825D02*
X1147700Y1944525D01*
X228600Y3225800D02*
X1034400Y2420000D01*
Y2057825D02*
Y2420000D01*
X660400Y3479800D02*
X952500Y3771900D01*
X228600Y3479800D02*
X660400D01*
X1458919Y1962081D02*
X1517719D01*
X1147700Y2273300D02*
X1458919Y1962081D01*
X1517719D02*
X1536700Y1943100D01*
X495300Y304800D02*
X495324Y304824D01*
X749324D01*
X1117600Y673100D01*
Y1016000D01*
X1536700Y1435100D01*
X3403600Y3014600D02*
X3792600D01*
X3962400Y2844800D01*
X3865599Y3517900D02*
X3954499Y3606800D01*
X1714500Y3517900D02*
X3865599D01*
X3954499Y3606800D02*
X3962400D01*
X2936050Y1937450D02*
Y2474150D01*
X2933700Y1935100D02*
X2936050Y1937450D01*
Y2474150D02*
X2938400Y2476500D01*
X1938400D02*
X2298700Y2116200D01*
Y1943100D02*
Y2116200D01*
X3401250Y3012250D02*
X3403600Y3014600D01*
X1714500Y3009900D02*
X1716850Y3012250D01*
X3401250D01*
X1714500Y3771900D02*
X2548000D01*
X2298700Y1943100D02*
X2305500Y1949900D01*
X1714500Y3263900D02*
Y3517900D01*
X1536700Y1435100D02*
Y1689100D01*
X1530350Y1187450D02*
X1536700Y1181100D01*
X1530350Y1936750D02*
X1536700Y1943100D01*
D11*
X228600Y2971800D02*
D03*
Y3225800D02*
D03*
Y3479800D02*
D03*
X3962400Y1828800D02*
D03*
Y2082800D02*
D03*
Y2590800D02*
D03*
Y3098800D02*
D03*
Y3352800D02*
D03*
Y2844800D02*
D03*
Y2336800D02*
D03*
Y1574800D02*
D03*
Y1320800D02*
D03*
D12*
X228600Y3733800D02*
D03*
X3962400Y3606800D02*
D03*
D13*
X495300Y804799D02*
D03*
D14*
Y304800D02*
D03*
D15*
X1147700Y2273300D02*
D03*
X1938400Y2476500D02*
D03*
X2548000Y3771900D02*
D03*
X1147700Y1574800D02*
D03*
D16*
X147700Y2273300D02*
D03*
X2938400Y2476500D02*
D03*
X2933700Y935100D02*
D03*
X3548000Y3771900D02*
D03*
X147700Y1574800D02*
D03*
X3403600Y2014600D02*
D03*
D17*
X3765200Y304800D02*
D03*
X2368200D02*
D03*
D18*
X3245200D02*
D03*
X3505200D02*
D03*
X1848200D02*
D03*
X2108200D02*
D03*
D19*
X1536700Y1943100D02*
D03*
Y1689100D02*
D03*
Y1435100D02*
D03*
Y1181100D02*
D03*
X2298700Y1943100D02*
D03*
Y1689100D02*
D03*
Y1435100D02*
D03*
X1714500Y3009900D02*
D03*
Y3263900D02*
D03*
Y3517900D02*
D03*
Y3771900D02*
D03*
X952500Y3009900D02*
D03*
Y3263900D02*
D03*
Y3517900D02*
D03*
D20*
X2298700Y1181100D02*
D03*
X952500Y3771900D02*
D03*
D21*
X2933700Y1935100D02*
D03*
X3403600Y3014600D02*
D03*
%TF.MD5,2afcd9b39cc5bcf97485abb2f3f0131a*%
M02*
