%TF.GenerationSoftware,Altium Limited,Altium Designer,24.10.1 (45)*%
G04 Layer_Color=0*
%FSLAX45Y45*%
%MOMM*%
%TF.SameCoordinates,47669921-03A9-45D4-BEC5-7B78C51FF8BB*%
%TF.FilePolarity,Positive*%
%TF.FileFunction,Plated,1,2,PTH,Drill*%
%TF.Part,Single*%
G01*
G75*
%TA.AperFunction,ComponentDrill*%
%ADD35C,1.10000*%
%ADD36C,1.30000*%
%ADD37C,0.90000*%
%ADD38C,0.90000*%
%ADD39C,0.75000*%
%ADD40C,0.75000*%
D35*
X266700Y3238500D02*
D03*
Y3492500D02*
D03*
Y4000500D02*
D03*
Y3746500D02*
D03*
X4076700Y2070100D02*
D03*
Y2324100D02*
D03*
Y2832100D02*
D03*
Y3340100D02*
D03*
Y3848100D02*
D03*
Y3594100D02*
D03*
Y3086100D02*
D03*
Y2578100D02*
D03*
Y1816100D02*
D03*
Y1562100D02*
D03*
D36*
X533400Y821500D02*
D03*
Y321501D02*
D03*
D37*
X3410300Y482600D02*
D03*
X3930300D02*
D03*
X3670300D02*
D03*
X1810100Y469900D02*
D03*
X2330100D02*
D03*
X2070100D02*
D03*
D38*
X1651000Y2184400D02*
D03*
Y1930400D02*
D03*
Y1676400D02*
D03*
Y1422400D02*
D03*
X2413000Y2184400D02*
D03*
Y1930400D02*
D03*
Y1676400D02*
D03*
Y1422400D02*
D03*
X1828800Y3251200D02*
D03*
Y3505200D02*
D03*
Y3759200D02*
D03*
Y4013200D02*
D03*
X1066800Y3251200D02*
D03*
Y3505200D02*
D03*
Y3759200D02*
D03*
Y4013200D02*
D03*
D39*
X3052700Y2717800D02*
D03*
X2052700D02*
D03*
X3662300Y4013200D02*
D03*
X2662300D02*
D03*
X173100Y1422400D02*
D03*
X1173100D02*
D03*
X160400Y2184400D02*
D03*
X1160400D02*
D03*
D40*
X3048000Y1176400D02*
D03*
Y2176400D02*
D03*
X3517900Y2255900D02*
D03*
Y3255900D02*
D03*
%TF.MD5,c3f1f580a2767896a534b1c11c723ef6*%
M02*
