%TF.GenerationSoftware,Altium Limited,Altium Designer,24.10.1 (45)*%
G04 Layer_Color=8388736*
%FSLAX45Y45*%
%MOMM*%
%TF.SameCoordinates,60A24816-13A2-4E53-95B9-A8CDB98880B0*%
%TF.FilePolarity,Negative*%
%TF.FileFunction,Soldermask,Top*%
%TF.Part,Single*%
G01*
G75*
%TA.AperFunction,ComponentPad*%
%ADD12R,1.20000X1.20000*%
%ADD13C,1.20000*%
%ADD14C,2.35000*%
%ADD15R,2.35000X2.35000*%
%ADD25R,1.44320X1.44320*%
G04:AMPARAMS|DCode=26|XSize=1.8032mm|YSize=1.8032mm|CornerRadius=0.5016mm|HoleSize=0mm|Usage=FLASHONLY|Rotation=180.000|XOffset=0mm|YOffset=0mm|HoleType=Round|Shape=RoundedRectangle|*
%AMROUNDEDRECTD26*
21,1,1.80320,0.80000,0,0,180.0*
21,1,0.80000,1.80320,0,0,180.0*
1,1,1.00320,-0.40000,0.40000*
1,1,1.00320,0.40000,0.40000*
1,1,1.00320,0.40000,-0.40000*
1,1,1.00320,-0.40000,-0.40000*
%
%ADD26ROUNDEDRECTD26*%
%ADD27C,1.80320*%
%ADD28C,2.00320*%
G04:AMPARAMS|DCode=29|XSize=2.0032mm|YSize=2.0032mm|CornerRadius=0.5516mm|HoleSize=0mm|Usage=FLASHONLY|Rotation=90.000|XOffset=0mm|YOffset=0mm|HoleType=Round|Shape=RoundedRectangle|*
%AMROUNDEDRECTD29*
21,1,2.00320,0.90000,0,0,90.0*
21,1,0.90000,2.00320,0,0,90.0*
1,1,1.10320,0.45000,0.45000*
1,1,1.10320,0.45000,-0.45000*
1,1,1.10320,-0.45000,-0.45000*
1,1,1.10320,-0.45000,0.45000*
%
%ADD29ROUNDEDRECTD29*%
G04:AMPARAMS|DCode=30|XSize=1.8032mm|YSize=1.8032mm|CornerRadius=0.5016mm|HoleSize=0mm|Usage=FLASHONLY|Rotation=90.000|XOffset=0mm|YOffset=0mm|HoleType=Round|Shape=RoundedRectangle|*
%AMROUNDEDRECTD30*
21,1,1.80320,0.80000,0,0,90.0*
21,1,0.80000,1.80320,0,0,90.0*
1,1,1.00320,0.40000,0.40000*
1,1,1.00320,0.40000,-0.40000*
1,1,1.00320,-0.40000,-0.40000*
1,1,1.00320,-0.40000,0.40000*
%
%ADD30ROUNDEDRECTD30*%
D12*
X736300Y5118100D02*
D03*
D13*
X1498900D02*
D03*
D14*
X1270000Y6515100D02*
D03*
D15*
Y6007100D02*
D03*
D25*
X6121400Y2992120D02*
D03*
Y4826000D02*
D03*
X2169160D02*
D03*
X4866640Y2176780D02*
D03*
Y342900D02*
D03*
X2169160Y2992120D02*
D03*
X914400Y342900D02*
D03*
Y2176780D02*
D03*
D26*
X3136900Y5791200D02*
D03*
X3898900D02*
D03*
X2590800Y6604000D02*
D03*
D27*
X2882900Y5791200D02*
D03*
X2628900D02*
D03*
X4152900D02*
D03*
X4406900D02*
D03*
X4368800Y6604000D02*
D03*
X4114800D02*
D03*
X3606800D02*
D03*
X3098800D02*
D03*
X2844800D02*
D03*
X3352800D02*
D03*
X3860800D02*
D03*
X4622800D02*
D03*
X4876800D02*
D03*
X5918200Y5981700D02*
D03*
Y6235700D02*
D03*
Y6489700D02*
D03*
D28*
X6318116Y1511276D02*
D03*
X730384Y3937024D02*
D03*
D29*
X6318116Y1130276D02*
D03*
X730384Y4318024D02*
D03*
D30*
X5918200Y5727700D02*
D03*
%TF.MD5,6bef83b0e5182a7409a74cab3ba766d0*%
M02*
