%TF.GenerationSoftware,Altium Limited,Altium Designer,24.10.1 (45)*%
G04 Layer_Physical_Order=2*
G04 Layer_Color=16711680*
%FSLAX45Y45*%
%MOMM*%
%TF.SameCoordinates,60A24816-13A2-4E53-95B9-A8CDB98880B0*%
%TF.FilePolarity,Positive*%
%TF.FileFunction,Copper,L2,Bot,Signal*%
%TF.Part,Single*%
G01*
G75*
%TA.AperFunction,Conductor*%
%ADD10C,0.50800*%
%TA.AperFunction,ComponentPad*%
%ADD11R,1.24000X1.24000*%
%ADD12R,1.20000X1.20000*%
%ADD13C,1.20000*%
%ADD14C,2.35000*%
%ADD15R,2.35000X2.35000*%
G04:AMPARAMS|DCode=16|XSize=1.6mm|YSize=1.6mm|CornerRadius=0.4mm|HoleSize=0mm|Usage=FLASHONLY|Rotation=180.000|XOffset=0mm|YOffset=0mm|HoleType=Round|Shape=RoundedRectangle|*
%AMROUNDEDRECTD16*
21,1,1.60000,0.80000,0,0,180.0*
21,1,0.80000,1.60000,0,0,180.0*
1,1,0.80000,-0.40000,0.40000*
1,1,0.80000,0.40000,0.40000*
1,1,0.80000,0.40000,-0.40000*
1,1,0.80000,-0.40000,-0.40000*
%
%ADD16ROUNDEDRECTD16*%
%ADD17C,1.60000*%
%ADD18C,1.80000*%
G04:AMPARAMS|DCode=19|XSize=1.8mm|YSize=1.8mm|CornerRadius=0.45mm|HoleSize=0mm|Usage=FLASHONLY|Rotation=90.000|XOffset=0mm|YOffset=0mm|HoleType=Round|Shape=RoundedRectangle|*
%AMROUNDEDRECTD19*
21,1,1.80000,0.90000,0,0,90.0*
21,1,0.90000,1.80000,0,0,90.0*
1,1,0.90000,0.45000,0.45000*
1,1,0.90000,0.45000,-0.45000*
1,1,0.90000,-0.45000,-0.45000*
1,1,0.90000,-0.45000,0.45000*
%
%ADD19ROUNDEDRECTD19*%
G04:AMPARAMS|DCode=20|XSize=1.6mm|YSize=1.6mm|CornerRadius=0.4mm|HoleSize=0mm|Usage=FLASHONLY|Rotation=90.000|XOffset=0mm|YOffset=0mm|HoleType=Round|Shape=RoundedRectangle|*
%AMROUNDEDRECTD20*
21,1,1.60000,0.80000,0,0,90.0*
21,1,0.80000,1.60000,0,0,90.0*
1,1,0.80000,0.40000,0.40000*
1,1,0.80000,0.40000,-0.40000*
1,1,0.80000,-0.40000,-0.40000*
1,1,0.80000,-0.40000,0.40000*
%
%ADD20ROUNDEDRECTD20*%
G36*
X7073900Y0D02*
X0D01*
Y7073900D01*
X7073900D01*
Y0D01*
D02*
G37*
%LPC*%
G36*
X3136900Y6947895D02*
X3117079Y6943953D01*
X3100275Y6932725D01*
X2873088Y6705538D01*
X2858676Y6709400D01*
X2830924D01*
X2804117Y6702217D01*
X2780083Y6688341D01*
X2760459Y6668717D01*
X2746583Y6644683D01*
X2739400Y6617876D01*
Y6590124D01*
X2746583Y6563317D01*
X2760459Y6539283D01*
X2780083Y6519659D01*
X2804117Y6505783D01*
X2830924Y6498600D01*
X2858676D01*
X2885483Y6505783D01*
X2909517Y6519659D01*
X2929141Y6539283D01*
X2943017Y6563317D01*
X2950200Y6590124D01*
Y6617876D01*
X2946338Y6632288D01*
X3158354Y6844305D01*
X5693546D01*
X5930051Y6607800D01*
X5924790Y6595100D01*
X5904324D01*
X5889912Y6591238D01*
X5709725Y6771425D01*
X5692921Y6782653D01*
X5673100Y6786595D01*
X3229600D01*
X3209779Y6782653D01*
X3192975Y6771425D01*
X3127088Y6705538D01*
X3112676Y6709400D01*
X3084924D01*
X3058117Y6702217D01*
X3034083Y6688341D01*
X3014459Y6668717D01*
X3000583Y6644683D01*
X2993400Y6617876D01*
Y6590124D01*
X3000583Y6563317D01*
X3014459Y6539283D01*
X3034083Y6519659D01*
X3058117Y6505783D01*
X3084924Y6498600D01*
X3112676D01*
X3139483Y6505783D01*
X3163517Y6519659D01*
X3183141Y6539283D01*
X3197017Y6563317D01*
X3204200Y6590124D01*
Y6617876D01*
X3200338Y6632288D01*
X3251054Y6683005D01*
X3266153D01*
X3271014Y6671272D01*
X3268459Y6668717D01*
X3254583Y6644683D01*
X3247400Y6617876D01*
Y6590124D01*
X3254583Y6563317D01*
X3268459Y6539283D01*
X3288083Y6519659D01*
X3301005Y6512199D01*
Y6028554D01*
X3169615Y5897164D01*
X3096900D01*
X3079827Y5894917D01*
X3063918Y5888327D01*
X3050256Y5877844D01*
X3039773Y5864182D01*
X3033183Y5848273D01*
X3030936Y5831200D01*
Y5751200D01*
X3033183Y5734127D01*
X3034598Y5730712D01*
X3023831Y5723518D01*
X2984438Y5762912D01*
X2988300Y5777324D01*
Y5805076D01*
X2981117Y5831883D01*
X2967241Y5855917D01*
X2947617Y5875541D01*
X2923583Y5889417D01*
X2896776Y5896600D01*
X2869024D01*
X2854612Y5892738D01*
X2642595Y6104754D01*
Y6499589D01*
X2647873Y6500283D01*
X2663782Y6506873D01*
X2677444Y6517356D01*
X2687927Y6531018D01*
X2694517Y6546927D01*
X2696764Y6564000D01*
Y6644000D01*
X2694517Y6661073D01*
X2687927Y6676982D01*
X2677444Y6690644D01*
X2663782Y6701127D01*
X2647873Y6707717D01*
X2630800Y6709964D01*
X2550800D01*
X2533727Y6707717D01*
X2517818Y6701127D01*
X2504156Y6690644D01*
X2493673Y6676982D01*
X2487083Y6661073D01*
X2484836Y6644000D01*
Y6579187D01*
X2472544Y6566895D01*
X1404062D01*
X1403162Y6570257D01*
X1384349Y6602843D01*
X1357743Y6629449D01*
X1325157Y6648262D01*
X1288813Y6658000D01*
X1251187D01*
X1214843Y6648262D01*
X1182257Y6629449D01*
X1155651Y6602843D01*
X1136838Y6570257D01*
X1127100Y6533913D01*
Y6496287D01*
X1136838Y6459943D01*
X1155651Y6427357D01*
X1182257Y6400751D01*
X1214843Y6381938D01*
X1251187Y6372200D01*
X1288813D01*
X1325157Y6381938D01*
X1357743Y6400751D01*
X1384349Y6427357D01*
X1403162Y6459943D01*
X1404062Y6463305D01*
X2493999D01*
X2513820Y6467247D01*
X2526305Y6475590D01*
X2539005Y6469899D01*
Y6083300D01*
X2542947Y6063479D01*
X2554175Y6046675D01*
X2781362Y5819488D01*
X2777500Y5805076D01*
Y5777324D01*
X2784683Y5750517D01*
X2798559Y5726483D01*
X2818183Y5706859D01*
X2842217Y5692983D01*
X2869024Y5685800D01*
X2896776D01*
X2911188Y5689662D01*
X3087575Y5513275D01*
X3104379Y5502047D01*
X3124200Y5498105D01*
X3911600D01*
X3931421Y5502047D01*
X3948225Y5513275D01*
X4124612Y5689662D01*
X4139024Y5685800D01*
X4166776D01*
X4181188Y5689662D01*
X5081475Y4789376D01*
X5081475Y4789375D01*
X5098279Y4778147D01*
X5118100Y4774205D01*
X5118101Y4774205D01*
X6034000D01*
Y4738600D01*
X6208800D01*
Y4913400D01*
X6034000D01*
Y4877795D01*
X5139554D01*
X4254438Y5762912D01*
X4258300Y5777324D01*
Y5805076D01*
X4251117Y5831883D01*
X4237241Y5855917D01*
X4217617Y5875541D01*
X4193583Y5889417D01*
X4166776Y5896600D01*
X4139024D01*
X4112217Y5889417D01*
X4088183Y5875541D01*
X4068559Y5855917D01*
X4054683Y5831883D01*
X4047500Y5805076D01*
Y5777324D01*
X4051362Y5762912D01*
X4011969Y5723518D01*
X4001202Y5730712D01*
X4002617Y5734127D01*
X4004864Y5751200D01*
Y5831200D01*
X4002617Y5848273D01*
X3996027Y5864182D01*
X3985544Y5877844D01*
X3971882Y5888327D01*
X3955973Y5894917D01*
X3938900Y5897164D01*
X3866185D01*
X3658595Y6104754D01*
Y6512199D01*
X3671517Y6519659D01*
X3691141Y6539283D01*
X3705017Y6563317D01*
X3712200Y6590124D01*
Y6617876D01*
X3705017Y6644683D01*
X3691141Y6668717D01*
X3688586Y6671272D01*
X3693447Y6683005D01*
X3774153D01*
X3779014Y6671272D01*
X3776459Y6668717D01*
X3762583Y6644683D01*
X3755400Y6617876D01*
Y6590124D01*
X3762583Y6563317D01*
X3776459Y6539283D01*
X3796083Y6519659D01*
X3820117Y6505783D01*
X3846924Y6498600D01*
X3874676D01*
X3901483Y6505783D01*
X3925517Y6519659D01*
X3945141Y6539283D01*
X3959017Y6563317D01*
X3966200Y6590124D01*
Y6617876D01*
X3959017Y6644683D01*
X3945141Y6668717D01*
X3942586Y6671272D01*
X3947447Y6683005D01*
X4028153D01*
X4033014Y6671272D01*
X4030459Y6668717D01*
X4016583Y6644683D01*
X4009400Y6617876D01*
Y6590124D01*
X4016583Y6563317D01*
X4030459Y6539283D01*
X4050083Y6519659D01*
X4074117Y6505783D01*
X4100924Y6498600D01*
X4128676D01*
X4155483Y6505783D01*
X4179517Y6519659D01*
X4199141Y6539283D01*
X4213017Y6563317D01*
X4220200Y6590124D01*
Y6617876D01*
X4213017Y6644683D01*
X4199141Y6668717D01*
X4196586Y6671272D01*
X4201447Y6683005D01*
X4282153D01*
X4287014Y6671272D01*
X4284459Y6668717D01*
X4270583Y6644683D01*
X4263400Y6617876D01*
Y6590124D01*
X4270583Y6563317D01*
X4284459Y6539283D01*
X4304083Y6519659D01*
X4328117Y6505783D01*
X4354924Y6498600D01*
X4382676D01*
X4409483Y6505783D01*
X4433517Y6519659D01*
X4453141Y6539283D01*
X4467017Y6563317D01*
X4474200Y6590124D01*
Y6617876D01*
X4467017Y6644683D01*
X4453141Y6668717D01*
X4450586Y6671272D01*
X4455447Y6683005D01*
X4536153D01*
X4541014Y6671272D01*
X4538459Y6668717D01*
X4524583Y6644683D01*
X4517400Y6617876D01*
Y6590124D01*
X4524583Y6563317D01*
X4538459Y6539283D01*
X4558083Y6519659D01*
X4582117Y6505783D01*
X4608924Y6498600D01*
X4636676D01*
X4663483Y6505783D01*
X4687517Y6519659D01*
X4707141Y6539283D01*
X4721017Y6563317D01*
X4728200Y6590124D01*
Y6617876D01*
X4721017Y6644683D01*
X4707141Y6668717D01*
X4704586Y6671272D01*
X4709447Y6683005D01*
X4790153D01*
X4795014Y6671272D01*
X4792459Y6668717D01*
X4778583Y6644683D01*
X4771400Y6617876D01*
Y6616700D01*
X4982200D01*
Y6617876D01*
X4975017Y6644683D01*
X4961141Y6668717D01*
X4958586Y6671272D01*
X4963447Y6683005D01*
X5651646D01*
X5816662Y6517988D01*
X5812800Y6503576D01*
Y6475824D01*
X5819983Y6449017D01*
X5833859Y6424983D01*
X5853483Y6405359D01*
X5877517Y6391483D01*
X5904324Y6384300D01*
X5932076D01*
X5958883Y6391483D01*
X5982917Y6405359D01*
X5985472Y6407914D01*
X5997205Y6403053D01*
Y6322347D01*
X5985472Y6317486D01*
X5982917Y6320041D01*
X5958883Y6333917D01*
X5932076Y6341100D01*
X5904324D01*
X5877517Y6333917D01*
X5853483Y6320041D01*
X5833859Y6300417D01*
X5819983Y6276383D01*
X5812800Y6249576D01*
Y6221824D01*
X5816662Y6207411D01*
X5665675Y6056425D01*
X5654447Y6039621D01*
X5650505Y6019800D01*
Y5537200D01*
X5654447Y5517379D01*
X5665675Y5500575D01*
X6272805Y4893446D01*
Y4136254D01*
X4830015Y2693465D01*
X4818787Y2676661D01*
X4814845Y2656840D01*
Y2264180D01*
X4779240D01*
Y2089380D01*
X4954040D01*
Y2264180D01*
X4918435D01*
Y2635386D01*
X6361225Y4078175D01*
X6372453Y4094979D01*
X6376395Y4114800D01*
Y4914900D01*
X6372453Y4934721D01*
X6361225Y4951525D01*
X5754095Y5558654D01*
Y5998346D01*
X5889911Y6134162D01*
X5904324Y6130300D01*
X5932076D01*
X5958883Y6137483D01*
X5982917Y6151359D01*
X5985472Y6153914D01*
X5997205Y6149053D01*
Y6133954D01*
X5946488Y6083238D01*
X5932076Y6087100D01*
X5904324D01*
X5877517Y6079917D01*
X5853483Y6066041D01*
X5833859Y6046417D01*
X5819983Y6022383D01*
X5812800Y5995576D01*
Y5967824D01*
X5819983Y5941017D01*
X5833859Y5916983D01*
X5853483Y5897359D01*
X5877517Y5883483D01*
X5904324Y5876300D01*
X5932076D01*
X5958883Y5883483D01*
X5982917Y5897359D01*
X6002541Y5916983D01*
X6016417Y5941017D01*
X6023600Y5967824D01*
Y5995576D01*
X6019738Y6009988D01*
X6085625Y6075875D01*
X6096853Y6092679D01*
X6100795Y6112500D01*
Y6562099D01*
X6100796Y6562100D01*
X6096853Y6581921D01*
X6085625Y6598725D01*
X5751625Y6932725D01*
X5734821Y6943953D01*
X5715000Y6947895D01*
X3136901D01*
X3136900Y6947895D01*
D02*
G37*
G36*
X4982200Y6591300D02*
X4889500D01*
Y6498600D01*
X4890676D01*
X4917483Y6505783D01*
X4941517Y6519659D01*
X4961141Y6539283D01*
X4975017Y6563317D01*
X4982200Y6590124D01*
Y6591300D01*
D02*
G37*
G36*
X4864100D02*
X4771400D01*
Y6590124D01*
X4778583Y6563317D01*
X4792459Y6539283D01*
X4812083Y6519659D01*
X4836117Y6505783D01*
X4862924Y6498600D01*
X4864100D01*
Y6591300D01*
D02*
G37*
G36*
X1412900Y6150000D02*
X1282700D01*
Y6019800D01*
X1412900D01*
Y6150000D01*
D02*
G37*
G36*
X1257300D02*
X1127100D01*
Y6019800D01*
X1257300D01*
Y6150000D01*
D02*
G37*
G36*
X1412900Y5994400D02*
X1282700D01*
Y5864200D01*
X1412900D01*
Y5994400D01*
D02*
G37*
G36*
X1257300D02*
X1127100D01*
Y5864200D01*
X1257300D01*
Y5994400D01*
D02*
G37*
G36*
X2642776Y5896600D02*
X2641600D01*
Y5803900D01*
X2734300D01*
Y5805076D01*
X2727117Y5831883D01*
X2713241Y5855917D01*
X2693617Y5875541D01*
X2669583Y5889417D01*
X2642776Y5896600D01*
D02*
G37*
G36*
X4420776D02*
X4419600D01*
Y5803900D01*
X4512300D01*
Y5805076D01*
X4505117Y5831883D01*
X4491241Y5855917D01*
X4471617Y5875541D01*
X4447583Y5889417D01*
X4420776Y5896600D01*
D02*
G37*
G36*
X4394200D02*
X4393024D01*
X4366217Y5889417D01*
X4342183Y5875541D01*
X4322559Y5855917D01*
X4308683Y5831883D01*
X4301500Y5805076D01*
Y5803900D01*
X4394200D01*
Y5896600D01*
D02*
G37*
G36*
X2616200D02*
X2615024D01*
X2588217Y5889417D01*
X2564183Y5875541D01*
X2544559Y5855917D01*
X2530683Y5831883D01*
X2523500Y5805076D01*
Y5803900D01*
X2616200D01*
Y5896600D01*
D02*
G37*
G36*
X5958200Y5833664D02*
X5930900D01*
Y5740400D01*
X6024164D01*
Y5767700D01*
X6021917Y5784773D01*
X6015327Y5800682D01*
X6004844Y5814344D01*
X5991182Y5824827D01*
X5975273Y5831417D01*
X5958200Y5833664D01*
D02*
G37*
G36*
X5905500D02*
X5878200D01*
X5861127Y5831417D01*
X5845218Y5824827D01*
X5831556Y5814344D01*
X5821073Y5800682D01*
X5814483Y5784773D01*
X5812236Y5767700D01*
Y5740400D01*
X5905500D01*
Y5833664D01*
D02*
G37*
G36*
X4512300Y5778500D02*
X4419600D01*
Y5685800D01*
X4420776D01*
X4447583Y5692983D01*
X4471617Y5706859D01*
X4491241Y5726483D01*
X4505117Y5750517D01*
X4512300Y5777324D01*
Y5778500D01*
D02*
G37*
G36*
X4394200D02*
X4301500D01*
Y5777324D01*
X4308683Y5750517D01*
X4322559Y5726483D01*
X4342183Y5706859D01*
X4366217Y5692983D01*
X4393024Y5685800D01*
X4394200D01*
Y5778500D01*
D02*
G37*
G36*
X2734300D02*
X2641600D01*
Y5685800D01*
X2642776D01*
X2669583Y5692983D01*
X2693617Y5706859D01*
X2713241Y5726483D01*
X2727117Y5750517D01*
X2734300Y5777324D01*
Y5778500D01*
D02*
G37*
G36*
X2616200D02*
X2523500D01*
Y5777324D01*
X2530683Y5750517D01*
X2544559Y5726483D01*
X2564183Y5706859D01*
X2588217Y5692983D01*
X2615024Y5685800D01*
X2616200D01*
Y5778500D01*
D02*
G37*
G36*
X6024164Y5715000D02*
X5930900D01*
Y5621736D01*
X5958200D01*
X5975273Y5623983D01*
X5991182Y5630573D01*
X6004844Y5641056D01*
X6015327Y5654718D01*
X6021917Y5670627D01*
X6024164Y5687700D01*
Y5715000D01*
D02*
G37*
G36*
X5905500D02*
X5812236D01*
Y5687700D01*
X5814483Y5670627D01*
X5821073Y5654718D01*
X5831556Y5641056D01*
X5845218Y5630573D01*
X5861127Y5623983D01*
X5878200Y5621736D01*
X5905500D01*
Y5715000D01*
D02*
G37*
G36*
X1510143Y5203500D02*
X1487657D01*
X1465937Y5197680D01*
X1446463Y5186437D01*
X1430563Y5170537D01*
X1419320Y5151063D01*
X1413500Y5129343D01*
Y5106857D01*
X1419320Y5085137D01*
X1430563Y5065663D01*
X1446463Y5049763D01*
X1447105Y5049393D01*
Y2782734D01*
X928550Y2264180D01*
X827000D01*
Y2089380D01*
X928550D01*
X1924280Y1093651D01*
X1941083Y1082423D01*
X1960904Y1078480D01*
X1960906Y1078480D01*
X6203003D01*
X6204528Y1066898D01*
X6211622Y1049772D01*
X6222906Y1035066D01*
X6237612Y1023782D01*
X6254738Y1016688D01*
X6273116Y1014268D01*
X6363116D01*
X6381494Y1016688D01*
X6398620Y1023782D01*
X6413326Y1035066D01*
X6424610Y1049772D01*
X6431704Y1066898D01*
X6434123Y1085276D01*
Y1175276D01*
X6431704Y1193654D01*
X6424610Y1210779D01*
X6413326Y1225485D01*
X6398620Y1236770D01*
X6381494Y1243863D01*
X6363116Y1246283D01*
X6273116D01*
X6254738Y1243863D01*
X6237612Y1236770D01*
X6222906Y1225485D01*
X6211622Y1210779D01*
X6204528Y1193654D01*
X6203003Y1182071D01*
X1982359D01*
X1001800Y2162630D01*
Y2190930D01*
X1535525Y2724655D01*
X1546753Y2741459D01*
X1550695Y2761280D01*
Y4976462D01*
X1562428Y4981322D01*
X1754375Y4789375D01*
X1771179Y4778147D01*
X1791000Y4774205D01*
X1791001Y4774205D01*
X2081760D01*
Y4738600D01*
X2256560D01*
Y4913400D01*
X2081760D01*
Y4877795D01*
X1812454D01*
X1584108Y5106141D01*
X1584300Y5106857D01*
Y5129343D01*
X1578480Y5151063D01*
X1567237Y5170537D01*
X1551337Y5186437D01*
X1531863Y5197680D01*
X1510143Y5203500D01*
D02*
G37*
G36*
X6208800Y3079520D02*
X6134100D01*
Y3004820D01*
X6208800D01*
Y3079520D01*
D02*
G37*
G36*
X6108700D02*
X6034000D01*
Y3004820D01*
X6108700D01*
Y3079520D01*
D02*
G37*
G36*
X6208800Y2979420D02*
X6134100D01*
Y2904720D01*
X6208800D01*
Y2979420D01*
D02*
G37*
G36*
X6108700D02*
X6034000D01*
Y2904720D01*
X6108700D01*
Y2979420D01*
D02*
G37*
G36*
X1447800Y5487395D02*
X1427979Y5483453D01*
X1411175Y5472225D01*
X1064828Y5125878D01*
X1053600Y5109074D01*
X1049658Y5089253D01*
Y4485066D01*
X858125Y4293533D01*
X846392Y4298393D01*
Y4363024D01*
X843972Y4381402D01*
X836878Y4398528D01*
X825594Y4413234D01*
X810888Y4424518D01*
X793762Y4431612D01*
X785137Y4432748D01*
Y5032700D01*
X821700D01*
Y5203500D01*
X650900D01*
Y5032700D01*
X681547D01*
Y4433527D01*
X667006Y4431612D01*
X649880Y4424518D01*
X635174Y4413234D01*
X623890Y4398528D01*
X616796Y4381402D01*
X614377Y4363024D01*
Y4273024D01*
X616796Y4254646D01*
X623890Y4237521D01*
X635174Y4222815D01*
X649880Y4211530D01*
X667006Y4204437D01*
X685384Y4202017D01*
X750015D01*
X754876Y4190284D01*
X704441Y4139849D01*
X693213Y4123046D01*
X689271Y4103224D01*
Y4045479D01*
X685841Y4044560D01*
X659527Y4029367D01*
X638041Y4007881D01*
X622849Y3981567D01*
X614984Y3952217D01*
Y3921832D01*
X620681Y3900571D01*
X407875Y3687765D01*
X396647Y3670961D01*
X392705Y3651140D01*
Y812800D01*
X396647Y792979D01*
X407875Y776175D01*
X827000Y357050D01*
Y255500D01*
X1001800D01*
Y430300D01*
X900250D01*
X496295Y834254D01*
Y3629686D01*
X693931Y3827321D01*
X715191Y3821625D01*
X745577D01*
X774927Y3829489D01*
X801241Y3844682D01*
X822727Y3866167D01*
X837920Y3892482D01*
X845784Y3921832D01*
Y3952217D01*
X837920Y3981567D01*
X822727Y4007881D01*
X801241Y4029367D01*
X792861Y4034206D01*
Y4081770D01*
X1138078Y4426987D01*
X1149306Y4443790D01*
X1153248Y4463612D01*
X1153248Y4463613D01*
Y5067799D01*
X1469254Y5383805D01*
X1997846D01*
X2513605Y4868046D01*
Y3409814D01*
X2183310Y3079520D01*
X2081760D01*
Y2904720D01*
X2183310D01*
X3613380Y1474651D01*
X3630183Y1463423D01*
X3650004Y1459480D01*
X6214768D01*
X6225773Y1440419D01*
X6247259Y1418933D01*
X6273573Y1403740D01*
X6302923Y1395876D01*
X6333309D01*
X6362659Y1403740D01*
X6388973Y1418933D01*
X6410459Y1440419D01*
X6425651Y1466733D01*
X6433516Y1496083D01*
Y1526468D01*
X6425651Y1555818D01*
X6410459Y1582133D01*
X6388973Y1603618D01*
X6362659Y1618811D01*
X6333309Y1626675D01*
X6302923D01*
X6273573Y1618811D01*
X6247259Y1603618D01*
X6225773Y1582133D01*
X6214768Y1563071D01*
X3671459D01*
X2256560Y2977970D01*
Y3006270D01*
X2602025Y3351735D01*
X2613253Y3368539D01*
X2617195Y3388360D01*
Y4889500D01*
X2613253Y4909321D01*
X2602025Y4926125D01*
X2055925Y5472225D01*
X2039121Y5483453D01*
X2019300Y5487395D01*
X1447801D01*
X1447800Y5487395D01*
D02*
G37*
G36*
X4954040Y430300D02*
X4879340D01*
Y355600D01*
X4954040D01*
Y430300D01*
D02*
G37*
G36*
X4853940D02*
X4779240D01*
Y355600D01*
X4853940D01*
Y430300D01*
D02*
G37*
G36*
X4954040Y330200D02*
X4879340D01*
Y255500D01*
X4954040D01*
Y330200D01*
D02*
G37*
G36*
X4853940D02*
X4779240D01*
Y255500D01*
X4853940D01*
Y330200D01*
D02*
G37*
%LPD*%
G36*
X3525014Y6671272D02*
X3522459Y6668717D01*
X3508583Y6644683D01*
X3501400Y6617876D01*
Y6590124D01*
X3508583Y6563317D01*
X3522459Y6539283D01*
X3542083Y6519659D01*
X3555005Y6512199D01*
Y6083300D01*
X3558947Y6063479D01*
X3570175Y6046675D01*
X3792936Y5823915D01*
Y5751200D01*
X3795183Y5734127D01*
X3801773Y5718218D01*
X3812256Y5704556D01*
X3825918Y5694073D01*
X3841827Y5687483D01*
X3858900Y5685236D01*
X3938900D01*
X3955973Y5687483D01*
X3959388Y5688898D01*
X3966582Y5678131D01*
X3890146Y5601695D01*
X3145654D01*
X3069218Y5678131D01*
X3076412Y5688898D01*
X3079827Y5687483D01*
X3096900Y5685236D01*
X3176900D01*
X3193973Y5687483D01*
X3209882Y5694073D01*
X3223544Y5704556D01*
X3234027Y5718218D01*
X3240617Y5734127D01*
X3242864Y5751200D01*
Y5823915D01*
X3389424Y5970475D01*
X3389425Y5970475D01*
X3400653Y5987279D01*
X3404595Y6007100D01*
X3404595Y6007101D01*
Y6512199D01*
X3417517Y6519659D01*
X3437141Y6539283D01*
X3451017Y6563317D01*
X3458200Y6590124D01*
Y6617876D01*
X3451017Y6644683D01*
X3437141Y6668717D01*
X3434586Y6671272D01*
X3439447Y6683005D01*
X3520153D01*
X3525014Y6671272D01*
D02*
G37*
D10*
X914400Y2176780D02*
X1960904Y1130276D01*
X6318116D01*
X1498900Y2761280D02*
Y5118100D01*
X914400Y2176780D02*
X1498900Y2761280D01*
X1791000Y4826000D02*
X2169160D01*
X1498900Y5118100D02*
X1791000Y4826000D01*
X3650004Y1511276D02*
X6318116D01*
X2169160Y2992120D02*
X3650004Y1511276D01*
X2169160Y2992120D02*
X2565400Y3388360D01*
Y4889500D01*
X1447800Y5435600D02*
X2019300D01*
X2565400Y4889500D01*
X741066Y4103224D02*
X1101453Y4463612D01*
Y5089253D01*
X1447800Y5435600D01*
X730384Y3937024D02*
X741066Y3947706D01*
Y4103224D01*
X444500Y3651140D02*
X730384Y3937024D01*
X444500Y812800D02*
Y3651140D01*
Y812800D02*
X914400Y342900D01*
X4866640Y2176780D02*
Y2656840D01*
X6324600Y4114800D01*
Y4914900D01*
X5702300Y5537200D02*
X6324600Y4914900D01*
X5702300Y6019800D02*
X5918200Y6235700D01*
X5702300Y5537200D02*
Y6019800D01*
X5715000Y6896100D02*
X6049000Y6562100D01*
Y6112500D02*
Y6562100D01*
X5918200Y5981700D02*
X6049000Y6112500D01*
X3136900Y6896100D02*
X5715000D01*
X2844800Y6604000D02*
X3136900Y6896100D01*
X5673100Y6734800D02*
X5918200Y6489700D01*
X3229600Y6734800D02*
X5673100D01*
X3098800Y6604000D02*
X3229600Y6734800D01*
X4152900Y5791200D02*
X5118100Y4826000D01*
X6121400D01*
X3606800Y6083300D02*
X3898900Y5791200D01*
X3606800Y6083300D02*
Y6604000D01*
X3136900Y5791200D02*
X3352800Y6007100D01*
Y6604000D01*
X3124200Y5549900D02*
X3911600D01*
X4152900Y5791200D01*
X2882900D02*
X3124200Y5549900D01*
X2590800Y6083300D02*
X2882900Y5791200D01*
X2590800Y6083300D02*
Y6604000D01*
X2493999Y6515100D02*
X2582899Y6604000D01*
X1270000Y6515100D02*
X2493999D01*
X2582899Y6604000D02*
X2590800D01*
X733342Y4320982D02*
Y5115142D01*
D11*
X6121400Y2992120D02*
D03*
Y4826000D02*
D03*
X2169160D02*
D03*
X4866640Y2176780D02*
D03*
Y342900D02*
D03*
X2169160Y2992120D02*
D03*
X914400Y342900D02*
D03*
Y2176780D02*
D03*
D12*
X736300Y5118100D02*
D03*
D13*
X1498900D02*
D03*
D14*
X1270000Y6515100D02*
D03*
D15*
Y6007100D02*
D03*
D16*
X3136900Y5791200D02*
D03*
X3898900D02*
D03*
X2590800Y6604000D02*
D03*
D17*
X2882900Y5791200D02*
D03*
X2628900D02*
D03*
X4152900D02*
D03*
X4406900D02*
D03*
X4368800Y6604000D02*
D03*
X4114800D02*
D03*
X3606800D02*
D03*
X3098800D02*
D03*
X2844800D02*
D03*
X3352800D02*
D03*
X3860800D02*
D03*
X4622800D02*
D03*
X4876800D02*
D03*
X5918200Y5981700D02*
D03*
Y6235700D02*
D03*
Y6489700D02*
D03*
D18*
X6318116Y1511276D02*
D03*
X730384Y3937024D02*
D03*
D19*
X6318116Y1130276D02*
D03*
X730384Y4318024D02*
D03*
D20*
X5918200Y5727700D02*
D03*
%TF.MD5,83527ed1bbcc4499c8cb599e5321bf02*%
M02*
