%TF.GenerationSoftware,Altium Limited,Altium Designer,24.10.1 (45)*%
G04 Layer_Color=8421504*
%FSLAX45Y45*%
%MOMM*%
%TF.SameCoordinates,60A24816-13A2-4E53-95B9-A8CDB98880B0*%
%TF.FilePolarity,Positive*%
%TF.FileFunction,Paste,Top*%
%TF.Part,Single*%
G01*
G75*
G36*
X816400Y368400D02*
X817100D01*
X817800Y368500D01*
X818400Y368600D01*
X819100Y368700D01*
X819800Y368800D01*
X820400Y369000D01*
X821100Y369300D01*
X821700Y369500D01*
X822300Y369800D01*
X822900Y370100D01*
X823500Y370500D01*
X824000Y370900D01*
X824600Y371300D01*
X825100Y371700D01*
X825600Y372200D01*
X826100Y372700D01*
X826500Y373200D01*
X826900Y373800D01*
X827300Y374300D01*
X827700Y374900D01*
X828000Y375500D01*
X828300Y376100D01*
X828500Y376700D01*
X828800Y377400D01*
X829000Y378000D01*
X829100Y378700D01*
X829200Y379400D01*
X829300Y380000D01*
X829400Y380700D01*
Y427900D01*
X999400D01*
Y257900D01*
X829400D01*
Y305100D01*
X829300Y305800D01*
X829200Y306400D01*
X829100Y307100D01*
X829000Y307800D01*
X828800Y308400D01*
X828500Y309100D01*
X828300Y309700D01*
X828000Y310300D01*
X827700Y310900D01*
X827300Y311500D01*
X826900Y312000D01*
X826500Y312600D01*
X826100Y313100D01*
X825600Y313600D01*
X825100Y314100D01*
X824600Y314500D01*
X824000Y314900D01*
X823500Y315300D01*
X822900Y315700D01*
X822300Y316000D01*
X821700Y316300D01*
X821100Y316500D01*
X820400Y316800D01*
X819800Y317000D01*
X819100Y317100D01*
X818400Y317200D01*
X817800Y317300D01*
X817100Y317400D01*
X816400D01*
X717400D01*
Y368400D01*
X816400D01*
D02*
G37*
G36*
Y2202280D02*
X817100D01*
X817800Y2202380D01*
X818400Y2202480D01*
X819100Y2202580D01*
X819800Y2202680D01*
X820400Y2202880D01*
X821100Y2203180D01*
X821700Y2203380D01*
X822300Y2203680D01*
X822900Y2203980D01*
X823500Y2204380D01*
X824000Y2204780D01*
X824600Y2205180D01*
X825100Y2205580D01*
X825600Y2206080D01*
X826100Y2206580D01*
X826500Y2207080D01*
X826900Y2207680D01*
X827300Y2208180D01*
X827700Y2208780D01*
X828000Y2209380D01*
X828300Y2209980D01*
X828500Y2210580D01*
X828800Y2211280D01*
X829000Y2211880D01*
X829100Y2212580D01*
X829200Y2213280D01*
X829300Y2213880D01*
X829400Y2214580D01*
Y2261780D01*
X999400D01*
Y2091780D01*
X829400D01*
Y2138980D01*
X829300Y2139680D01*
X829200Y2140280D01*
X829100Y2140980D01*
X829000Y2141680D01*
X828800Y2142280D01*
X828500Y2142980D01*
X828300Y2143580D01*
X828000Y2144180D01*
X827700Y2144780D01*
X827300Y2145380D01*
X826900Y2145880D01*
X826500Y2146480D01*
X826100Y2146980D01*
X825600Y2147480D01*
X825100Y2147980D01*
X824600Y2148380D01*
X824000Y2148780D01*
X823500Y2149180D01*
X822900Y2149580D01*
X822300Y2149880D01*
X821700Y2150180D01*
X821100Y2150380D01*
X820400Y2150680D01*
X819800Y2150880D01*
X819100Y2150980D01*
X818400Y2151080D01*
X817800Y2151180D01*
X817100Y2151280D01*
X816400D01*
X717400D01*
Y2202280D01*
X816400D01*
D02*
G37*
G36*
X2071160Y3017620D02*
X2071860D01*
X2072560Y3017720D01*
X2073160Y3017820D01*
X2073860Y3017920D01*
X2074560Y3018020D01*
X2075160Y3018220D01*
X2075860Y3018520D01*
X2076460Y3018720D01*
X2077060Y3019020D01*
X2077660Y3019320D01*
X2078260Y3019720D01*
X2078760Y3020120D01*
X2079360Y3020520D01*
X2079860Y3020920D01*
X2080360Y3021420D01*
X2080860Y3021920D01*
X2081260Y3022420D01*
X2081660Y3023020D01*
X2082060Y3023520D01*
X2082460Y3024120D01*
X2082760Y3024720D01*
X2083060Y3025320D01*
X2083260Y3025920D01*
X2083560Y3026620D01*
X2083760Y3027220D01*
X2083860Y3027920D01*
X2083960Y3028620D01*
X2084060Y3029220D01*
X2084160Y3029920D01*
Y3077120D01*
X2254160D01*
Y2907120D01*
X2084160D01*
Y2954320D01*
X2084060Y2955020D01*
X2083960Y2955620D01*
X2083860Y2956320D01*
X2083760Y2957020D01*
X2083560Y2957620D01*
X2083260Y2958320D01*
X2083060Y2958920D01*
X2082760Y2959520D01*
X2082460Y2960120D01*
X2082060Y2960720D01*
X2081660Y2961220D01*
X2081260Y2961820D01*
X2080860Y2962320D01*
X2080360Y2962820D01*
X2079860Y2963320D01*
X2079360Y2963720D01*
X2078760Y2964120D01*
X2078260Y2964520D01*
X2077660Y2964920D01*
X2077060Y2965220D01*
X2076460Y2965520D01*
X2075860Y2965720D01*
X2075160Y2966020D01*
X2074560Y2966220D01*
X2073860Y2966320D01*
X2073160Y2966420D01*
X2072560Y2966520D01*
X2071860Y2966620D01*
X2071160D01*
X1972160D01*
Y3017620D01*
X2071160D01*
D02*
G37*
G36*
Y4851500D02*
X2071860D01*
X2072560Y4851600D01*
X2073160Y4851700D01*
X2073860Y4851800D01*
X2074560Y4851900D01*
X2075160Y4852100D01*
X2075860Y4852400D01*
X2076460Y4852600D01*
X2077060Y4852900D01*
X2077660Y4853200D01*
X2078260Y4853600D01*
X2078760Y4854000D01*
X2079360Y4854400D01*
X2079860Y4854800D01*
X2080360Y4855300D01*
X2080860Y4855800D01*
X2081260Y4856300D01*
X2081660Y4856900D01*
X2082060Y4857400D01*
X2082460Y4858000D01*
X2082760Y4858600D01*
X2083060Y4859200D01*
X2083260Y4859800D01*
X2083560Y4860500D01*
X2083760Y4861100D01*
X2083860Y4861800D01*
X2083960Y4862500D01*
X2084060Y4863100D01*
X2084160Y4863800D01*
Y4911000D01*
X2254160D01*
Y4741000D01*
X2084160D01*
Y4788200D01*
X2084060Y4788900D01*
X2083960Y4789500D01*
X2083860Y4790200D01*
X2083760Y4790900D01*
X2083560Y4791500D01*
X2083260Y4792200D01*
X2083060Y4792800D01*
X2082760Y4793400D01*
X2082460Y4794000D01*
X2082060Y4794600D01*
X2081660Y4795100D01*
X2081260Y4795700D01*
X2080860Y4796200D01*
X2080360Y4796700D01*
X2079860Y4797200D01*
X2079360Y4797600D01*
X2078760Y4798000D01*
X2078260Y4798400D01*
X2077660Y4798800D01*
X2077060Y4799100D01*
X2076460Y4799400D01*
X2075860Y4799600D01*
X2075160Y4799900D01*
X2074560Y4800100D01*
X2073860Y4800200D01*
X2073160Y4800300D01*
X2072560Y4800400D01*
X2071860Y4800500D01*
X2071160D01*
X1972160D01*
Y4851500D01*
X2071160D01*
D02*
G37*
G36*
X4768640Y368400D02*
X4769340D01*
X4770040Y368500D01*
X4770640Y368600D01*
X4771340Y368700D01*
X4772040Y368800D01*
X4772640Y369000D01*
X4773340Y369300D01*
X4773940Y369500D01*
X4774540Y369800D01*
X4775140Y370100D01*
X4775740Y370500D01*
X4776240Y370900D01*
X4776840Y371300D01*
X4777340Y371700D01*
X4777840Y372200D01*
X4778340Y372700D01*
X4778740Y373200D01*
X4779140Y373800D01*
X4779540Y374300D01*
X4779940Y374900D01*
X4780240Y375500D01*
X4780540Y376100D01*
X4780740Y376700D01*
X4781040Y377400D01*
X4781240Y378000D01*
X4781340Y378700D01*
X4781440Y379400D01*
X4781540Y380000D01*
X4781640Y380700D01*
Y427900D01*
X4951640D01*
Y257900D01*
X4781640D01*
Y305100D01*
X4781540Y305800D01*
X4781440Y306400D01*
X4781340Y307100D01*
X4781240Y307800D01*
X4781040Y308400D01*
X4780740Y309100D01*
X4780540Y309700D01*
X4780240Y310300D01*
X4779940Y310900D01*
X4779540Y311500D01*
X4779140Y312000D01*
X4778740Y312600D01*
X4778340Y313100D01*
X4777840Y313600D01*
X4777340Y314100D01*
X4776840Y314500D01*
X4776240Y314900D01*
X4775740Y315300D01*
X4775140Y315700D01*
X4774540Y316000D01*
X4773940Y316300D01*
X4773340Y316500D01*
X4772640Y316800D01*
X4772040Y317000D01*
X4771340Y317100D01*
X4770640Y317200D01*
X4770040Y317300D01*
X4769340Y317400D01*
X4768640D01*
X4669640D01*
Y368400D01*
X4768640D01*
D02*
G37*
G36*
Y2202280D02*
X4769340D01*
X4770040Y2202380D01*
X4770640Y2202480D01*
X4771340Y2202580D01*
X4772040Y2202680D01*
X4772640Y2202880D01*
X4773340Y2203180D01*
X4773940Y2203380D01*
X4774540Y2203680D01*
X4775140Y2203980D01*
X4775740Y2204380D01*
X4776240Y2204780D01*
X4776840Y2205180D01*
X4777340Y2205580D01*
X4777840Y2206080D01*
X4778340Y2206580D01*
X4778740Y2207080D01*
X4779140Y2207680D01*
X4779540Y2208180D01*
X4779940Y2208780D01*
X4780240Y2209380D01*
X4780540Y2209980D01*
X4780740Y2210580D01*
X4781040Y2211280D01*
X4781240Y2211880D01*
X4781340Y2212580D01*
X4781440Y2213280D01*
X4781540Y2213880D01*
X4781640Y2214580D01*
Y2261780D01*
X4951640D01*
Y2091780D01*
X4781640D01*
Y2138980D01*
X4781540Y2139680D01*
X4781440Y2140280D01*
X4781340Y2140980D01*
X4781240Y2141680D01*
X4781040Y2142280D01*
X4780740Y2142980D01*
X4780540Y2143580D01*
X4780240Y2144180D01*
X4779940Y2144780D01*
X4779540Y2145380D01*
X4779140Y2145880D01*
X4778740Y2146480D01*
X4778340Y2146980D01*
X4777840Y2147480D01*
X4777340Y2147980D01*
X4776840Y2148380D01*
X4776240Y2148780D01*
X4775740Y2149180D01*
X4775140Y2149580D01*
X4774540Y2149880D01*
X4773940Y2150180D01*
X4773340Y2150380D01*
X4772640Y2150680D01*
X4772040Y2150880D01*
X4771340Y2150980D01*
X4770640Y2151080D01*
X4770040Y2151180D01*
X4769340Y2151280D01*
X4768640D01*
X4669640D01*
Y2202280D01*
X4768640D01*
D02*
G37*
G36*
X6023400Y3017620D02*
X6024100D01*
X6024800Y3017720D01*
X6025400Y3017820D01*
X6026100Y3017920D01*
X6026800Y3018020D01*
X6027400Y3018220D01*
X6028100Y3018520D01*
X6028700Y3018720D01*
X6029300Y3019020D01*
X6029900Y3019320D01*
X6030500Y3019720D01*
X6031000Y3020120D01*
X6031600Y3020520D01*
X6032100Y3020920D01*
X6032600Y3021420D01*
X6033100Y3021920D01*
X6033500Y3022420D01*
X6033900Y3023020D01*
X6034300Y3023520D01*
X6034700Y3024120D01*
X6035000Y3024720D01*
X6035300Y3025320D01*
X6035500Y3025920D01*
X6035800Y3026620D01*
X6036000Y3027220D01*
X6036100Y3027920D01*
X6036200Y3028620D01*
X6036300Y3029220D01*
X6036400Y3029920D01*
Y3077120D01*
X6206400D01*
Y2907120D01*
X6036400D01*
Y2954320D01*
X6036300Y2955020D01*
X6036200Y2955620D01*
X6036100Y2956320D01*
X6036000Y2957020D01*
X6035800Y2957620D01*
X6035500Y2958320D01*
X6035300Y2958920D01*
X6035000Y2959520D01*
X6034700Y2960120D01*
X6034300Y2960720D01*
X6033900Y2961220D01*
X6033500Y2961820D01*
X6033100Y2962320D01*
X6032600Y2962820D01*
X6032100Y2963320D01*
X6031600Y2963720D01*
X6031000Y2964120D01*
X6030500Y2964520D01*
X6029900Y2964920D01*
X6029300Y2965220D01*
X6028700Y2965520D01*
X6028100Y2965720D01*
X6027400Y2966020D01*
X6026800Y2966220D01*
X6026100Y2966320D01*
X6025400Y2966420D01*
X6024800Y2966520D01*
X6024100Y2966620D01*
X6023400D01*
X5924400D01*
Y3017620D01*
X6023400D01*
D02*
G37*
G36*
Y4851500D02*
X6024100D01*
X6024800Y4851600D01*
X6025400Y4851700D01*
X6026100Y4851800D01*
X6026800Y4851900D01*
X6027400Y4852100D01*
X6028100Y4852400D01*
X6028700Y4852600D01*
X6029300Y4852900D01*
X6029900Y4853200D01*
X6030500Y4853600D01*
X6031000Y4854000D01*
X6031600Y4854400D01*
X6032100Y4854800D01*
X6032600Y4855300D01*
X6033100Y4855800D01*
X6033500Y4856300D01*
X6033900Y4856900D01*
X6034300Y4857400D01*
X6034700Y4858000D01*
X6035000Y4858600D01*
X6035300Y4859200D01*
X6035500Y4859800D01*
X6035800Y4860500D01*
X6036000Y4861100D01*
X6036100Y4861800D01*
X6036200Y4862500D01*
X6036300Y4863100D01*
X6036400Y4863800D01*
Y4911000D01*
X6206400D01*
Y4741000D01*
X6036400D01*
Y4788200D01*
X6036300Y4788900D01*
X6036200Y4789500D01*
X6036100Y4790200D01*
X6036000Y4790900D01*
X6035800Y4791500D01*
X6035500Y4792200D01*
X6035300Y4792800D01*
X6035000Y4793400D01*
X6034700Y4794000D01*
X6034300Y4794600D01*
X6033900Y4795100D01*
X6033500Y4795700D01*
X6033100Y4796200D01*
X6032600Y4796700D01*
X6032100Y4797200D01*
X6031600Y4797600D01*
X6031000Y4798000D01*
X6030500Y4798400D01*
X6029900Y4798800D01*
X6029300Y4799100D01*
X6028700Y4799400D01*
X6028100Y4799600D01*
X6027400Y4799900D01*
X6026800Y4800100D01*
X6026100Y4800200D01*
X6025400Y4800300D01*
X6024800Y4800400D01*
X6024100Y4800500D01*
X6023400D01*
X5924400D01*
Y4851500D01*
X6023400D01*
D02*
G37*
%TF.MD5,de878c435b67b0b3ae2a8bf78bc4d683*%
M02*
