%TF.GenerationSoftware,Altium Limited,Altium Designer,24.10.1 (45)*%
G04 Layer_Physical_Order=2*
G04 Layer_Color=16711680*
%FSLAX45Y45*%
%MOMM*%
%TF.SameCoordinates,71300DE5-865C-4B8C-8C77-BDD09283FDBC*%
%TF.FilePolarity,Positive*%
%TF.FileFunction,Copper,L2,Bot,Signal*%
%TF.Part,Single*%
G01*
G75*
%TA.AperFunction,Conductor*%
%ADD10C,1.27000*%
%TA.AperFunction,WasherPad*%
%ADD12C,1.52400*%
%TA.AperFunction,ComponentPad*%
%ADD13C,1.60000*%
G04:AMPARAMS|DCode=14|XSize=1.6mm|YSize=1.6mm|CornerRadius=0.4mm|HoleSize=0mm|Usage=FLASHONLY|Rotation=270.000|XOffset=0mm|YOffset=0mm|HoleType=Round|Shape=RoundedRectangle|*
%AMROUNDEDRECTD14*
21,1,1.60000,0.80000,0,0,270.0*
21,1,0.80000,1.60000,0,0,270.0*
1,1,0.80000,-0.40000,-0.40000*
1,1,0.80000,-0.40000,0.40000*
1,1,0.80000,0.40000,0.40000*
1,1,0.80000,0.40000,-0.40000*
%
%ADD14ROUNDEDRECTD14*%
%ADD15R,1.24000X1.24000*%
%ADD16C,1.95000*%
G04:AMPARAMS|DCode=17|XSize=1.95mm|YSize=1.95mm|CornerRadius=0.4875mm|HoleSize=0mm|Usage=FLASHONLY|Rotation=0.000|XOffset=0mm|YOffset=0mm|HoleType=Round|Shape=RoundedRectangle|*
%AMROUNDEDRECTD17*
21,1,1.95000,0.97500,0,0,0.0*
21,1,0.97500,1.95000,0,0,0.0*
1,1,0.97500,0.48750,-0.48750*
1,1,0.97500,-0.48750,-0.48750*
1,1,0.97500,-0.48750,0.48750*
1,1,0.97500,0.48750,0.48750*
%
%ADD17ROUNDEDRECTD17*%
G04:AMPARAMS|DCode=18|XSize=1.95mm|YSize=1.95mm|CornerRadius=0.4875mm|HoleSize=0mm|Usage=FLASHONLY|Rotation=270.000|XOffset=0mm|YOffset=0mm|HoleType=Round|Shape=RoundedRectangle|*
%AMROUNDEDRECTD18*
21,1,1.95000,0.97500,0,0,270.0*
21,1,0.97500,1.95000,0,0,270.0*
1,1,0.97500,-0.48750,-0.48750*
1,1,0.97500,-0.48750,0.48750*
1,1,0.97500,0.48750,0.48750*
1,1,0.97500,0.48750,-0.48750*
%
%ADD18ROUNDEDRECTD18*%
G04:AMPARAMS|DCode=19|XSize=1.6mm|YSize=1.6mm|CornerRadius=0.4mm|HoleSize=0mm|Usage=FLASHONLY|Rotation=180.000|XOffset=0mm|YOffset=0mm|HoleType=Round|Shape=RoundedRectangle|*
%AMROUNDEDRECTD19*
21,1,1.60000,0.80000,0,0,180.0*
21,1,0.80000,1.60000,0,0,180.0*
1,1,0.80000,-0.40000,0.40000*
1,1,0.80000,0.40000,0.40000*
1,1,0.80000,0.40000,-0.40000*
1,1,0.80000,-0.40000,-0.40000*
%
%ADD19ROUNDEDRECTD19*%
%ADD20R,2.35000X2.35000*%
%ADD21C,2.35000*%
%ADD22R,1.65000X1.65000*%
%ADD23C,1.65000*%
G36*
X6438900Y0D02*
X0D01*
Y7073900D01*
X6438900D01*
Y0D01*
D02*
G37*
%LPC*%
G36*
X6139660Y6967200D02*
X6103140D01*
X6067321Y6960075D01*
X6033580Y6946099D01*
X6003214Y6925810D01*
X5977390Y6899986D01*
X5957101Y6869620D01*
X5943125Y6835879D01*
X5936000Y6800060D01*
Y6763540D01*
X5943125Y6727721D01*
X5957101Y6693980D01*
X5977390Y6663614D01*
X6003214Y6637790D01*
X6033580Y6617501D01*
X6067321Y6603525D01*
X6103140Y6596400D01*
X6139660D01*
X6175479Y6603525D01*
X6209220Y6617501D01*
X6239586Y6637790D01*
X6265410Y6663614D01*
X6285699Y6693980D01*
X6299675Y6727721D01*
X6306800Y6763540D01*
Y6800060D01*
X6299675Y6835879D01*
X6285699Y6869620D01*
X6265410Y6899986D01*
X6239586Y6925810D01*
X6209220Y6946099D01*
X6175479Y6960075D01*
X6139660Y6967200D01*
D02*
G37*
G36*
X348460D02*
X311940D01*
X276121Y6960075D01*
X242380Y6946099D01*
X212014Y6925810D01*
X186190Y6899986D01*
X165901Y6869620D01*
X151925Y6835879D01*
X144800Y6800060D01*
Y6763540D01*
X151925Y6727721D01*
X165901Y6693980D01*
X186190Y6663614D01*
X212014Y6637790D01*
X242380Y6617501D01*
X276121Y6603525D01*
X311940Y6596400D01*
X348460D01*
X384279Y6603525D01*
X418020Y6617501D01*
X448386Y6637790D01*
X474210Y6663614D01*
X494499Y6693980D01*
X508475Y6727721D01*
X515600Y6763540D01*
Y6800060D01*
X508475Y6835879D01*
X494499Y6869620D01*
X474210Y6899986D01*
X448386Y6925810D01*
X418020Y6946099D01*
X384279Y6960075D01*
X348460Y6967200D01*
D02*
G37*
G36*
X1362700Y6350000D02*
X1270000D01*
Y6257300D01*
X1271176D01*
X1297983Y6264483D01*
X1322017Y6278359D01*
X1341641Y6297983D01*
X1355517Y6322017D01*
X1362700Y6348824D01*
Y6350000D01*
D02*
G37*
G36*
X2413000Y6337300D02*
X2320300D01*
Y6336124D01*
X2327483Y6309317D01*
X2341359Y6285283D01*
X2360983Y6265659D01*
X2385017Y6251783D01*
X2411824Y6244600D01*
X2413000D01*
Y6337300D01*
D02*
G37*
G36*
X5184800Y6251600D02*
X5054600D01*
Y6121400D01*
X5184800D01*
Y6251600D01*
D02*
G37*
G36*
X5029200D02*
X4899000D01*
Y6121400D01*
X5029200D01*
Y6251600D01*
D02*
G37*
G36*
X5184800Y6096000D02*
X5054600D01*
Y5965800D01*
X5184800D01*
Y6096000D01*
D02*
G37*
G36*
X5029200D02*
X4899000D01*
Y5965800D01*
X5029200D01*
Y6096000D01*
D02*
G37*
G36*
X3833487Y6820667D02*
X2768600D01*
X2745393Y6817612D01*
X2723766Y6808654D01*
X2705196Y6794404D01*
X2616296Y6705504D01*
X2602046Y6686934D01*
X2593088Y6665307D01*
X2590033Y6642100D01*
Y6574139D01*
X2578300Y6569279D01*
X2552574Y6595004D01*
X2534004Y6609254D01*
X2512377Y6618212D01*
X2489170Y6621267D01*
X1181130D01*
X1157922Y6618212D01*
X1136296Y6609254D01*
X1117726Y6595004D01*
X990821Y6468100D01*
X989424D01*
X962617Y6460917D01*
X938583Y6447041D01*
X918959Y6427417D01*
X905083Y6403383D01*
X897900Y6376576D01*
Y6358869D01*
X885200Y6353608D01*
X855264Y6383544D01*
Y6402700D01*
X853017Y6419773D01*
X846427Y6435682D01*
X835944Y6449344D01*
X822282Y6459827D01*
X806373Y6466417D01*
X789300Y6468664D01*
X709300D01*
X692227Y6466417D01*
X676318Y6459827D01*
X662656Y6449344D01*
X652173Y6435682D01*
X645583Y6419773D01*
X643336Y6402700D01*
Y6322700D01*
X645583Y6305627D01*
X652173Y6289718D01*
X662656Y6276056D01*
X676318Y6265573D01*
X692227Y6258983D01*
X709300Y6256736D01*
X728456D01*
X2247996Y4737196D01*
X2266566Y4722946D01*
X2288193Y4713988D01*
X2311400Y4710933D01*
X6053208D01*
X6068017Y4702383D01*
X6094824Y4695200D01*
X6122576D01*
X6149383Y4702383D01*
X6173417Y4716259D01*
X6193041Y4735883D01*
X6206917Y4759917D01*
X6214100Y4786724D01*
Y4814476D01*
X6206917Y4841283D01*
X6193041Y4865317D01*
X6173417Y4884941D01*
X6149383Y4898817D01*
X6122576Y4906000D01*
X6094824D01*
X6068017Y4898817D01*
X6053208Y4890267D01*
X2348541D01*
X994208Y6244600D01*
X999469Y6257300D01*
X1017176D01*
X1043983Y6264483D01*
X1068017Y6278359D01*
X1087641Y6297983D01*
X1101517Y6322017D01*
X1102674Y6326336D01*
X1140167Y6363829D01*
X1151900Y6358968D01*
Y6348824D01*
X1159083Y6322017D01*
X1172959Y6297983D01*
X1192583Y6278359D01*
X1216617Y6264483D01*
X1243424Y6257300D01*
X1244600D01*
Y6362700D01*
X1257300D01*
Y6375400D01*
X1362700D01*
Y6376576D01*
X1355517Y6403383D01*
X1341641Y6427417D01*
X1338858Y6430200D01*
X1343719Y6441933D01*
X2350614D01*
X2355875Y6429233D01*
X2341359Y6414717D01*
X2327483Y6390683D01*
X2320300Y6363876D01*
Y6362700D01*
X2425700D01*
Y6350000D01*
X2438400D01*
Y6244600D01*
X2439576D01*
X2466383Y6251783D01*
X2490417Y6265659D01*
X2510041Y6285283D01*
X2523917Y6309317D01*
X2531100Y6336124D01*
Y6346268D01*
X2542833Y6351129D01*
X2580326Y6313636D01*
X2581483Y6309317D01*
X2595359Y6285283D01*
X2614983Y6265659D01*
X2639017Y6251783D01*
X2665824Y6244600D01*
X2693576D01*
X2720383Y6251783D01*
X2744417Y6265659D01*
X2764041Y6285283D01*
X2777917Y6309317D01*
X2785100Y6336124D01*
Y6363876D01*
X2777917Y6390683D01*
X2769367Y6405492D01*
Y6604959D01*
X2805741Y6641333D01*
X3796346D01*
X3884383Y6553296D01*
X3902954Y6539046D01*
X3924580Y6530088D01*
X3947787Y6527033D01*
X4929476D01*
X4954157Y6502351D01*
X4986743Y6483538D01*
X5023087Y6473800D01*
X5057991D01*
X5295133Y6236659D01*
Y5207000D01*
X5297400Y5189779D01*
Y5144267D01*
X4266241D01*
X3039664Y6370844D01*
Y6390000D01*
X3037417Y6407073D01*
X3030827Y6422982D01*
X3020344Y6436644D01*
X3006682Y6447127D01*
X2990773Y6453717D01*
X2973700Y6455964D01*
X2893700D01*
X2876627Y6453717D01*
X2860718Y6447127D01*
X2847056Y6436644D01*
X2836573Y6422982D01*
X2829983Y6407073D01*
X2827736Y6390000D01*
Y6310000D01*
X2829983Y6292927D01*
X2836573Y6277018D01*
X2847056Y6263356D01*
X2860718Y6252873D01*
X2876627Y6246283D01*
X2893700Y6244036D01*
X2912856D01*
X4165696Y4991196D01*
X4184266Y4976946D01*
X4205893Y4967988D01*
X4229100Y4964933D01*
X6053208D01*
X6068017Y4956383D01*
X6094824Y4949200D01*
X6122576D01*
X6149383Y4956383D01*
X6173417Y4970259D01*
X6193041Y4989883D01*
X6206917Y5013917D01*
X6214100Y5040724D01*
Y5068476D01*
X6206917Y5095283D01*
X6193041Y5119317D01*
X6173417Y5138941D01*
X6149383Y5152817D01*
X6122576Y5160000D01*
X6094824D01*
X6068017Y5152817D01*
X6053208Y5144267D01*
X5776619D01*
X5771759Y5156000D01*
X5834691Y5218933D01*
X6025996D01*
X6035718Y5211473D01*
X6051627Y5204883D01*
X6068700Y5202636D01*
X6148700D01*
X6165773Y5204883D01*
X6181682Y5211473D01*
X6195344Y5221956D01*
X6205827Y5235618D01*
X6212417Y5251527D01*
X6214664Y5268600D01*
Y5348600D01*
X6212417Y5365673D01*
X6205827Y5381582D01*
X6195344Y5395244D01*
X6181682Y5405727D01*
X6165773Y5412317D01*
X6148700Y5414564D01*
X6068700D01*
X6051627Y5412317D01*
X6035718Y5405727D01*
X6025996Y5398267D01*
X5797550D01*
X5774343Y5395212D01*
X5752716Y5386254D01*
X5734146Y5372004D01*
X5658809Y5296667D01*
X5474467D01*
Y6273800D01*
X5471412Y6297007D01*
X5462454Y6318634D01*
X5448204Y6337204D01*
X5184800Y6600609D01*
Y6635513D01*
X5175062Y6671857D01*
X5156249Y6704443D01*
X5129643Y6731049D01*
X5097057Y6749862D01*
X5060713Y6759600D01*
X5023087D01*
X4986743Y6749862D01*
X4954157Y6731049D01*
X4929476Y6706367D01*
X3984929D01*
X3896892Y6794404D01*
X3878321Y6808654D01*
X3856695Y6817612D01*
X3833487Y6820667D01*
D02*
G37*
G36*
X6122576Y4144000D02*
X6094824D01*
X6068017Y4136817D01*
X6043983Y4122941D01*
X6024359Y4103317D01*
X6010483Y4079283D01*
X6003300Y4052476D01*
Y4024724D01*
X6010483Y3997917D01*
X6024359Y3973883D01*
X6043983Y3954259D01*
X6068017Y3940383D01*
X6094824Y3933200D01*
X6122576D01*
X6149383Y3940383D01*
X6173417Y3954259D01*
X6193041Y3973883D01*
X6206917Y3997917D01*
X6214100Y4024724D01*
Y4052476D01*
X6206917Y4079283D01*
X6193041Y4103317D01*
X6173417Y4122941D01*
X6149383Y4136817D01*
X6122576Y4144000D01*
D02*
G37*
G36*
Y3890000D02*
X6094824D01*
X6068017Y3882817D01*
X6043983Y3868941D01*
X6024359Y3849317D01*
X6010483Y3825283D01*
X6003300Y3798476D01*
Y3770724D01*
X6010483Y3743917D01*
X6024359Y3719883D01*
X6043983Y3700259D01*
X6068017Y3686383D01*
X6094824Y3679200D01*
X6122576D01*
X6149383Y3686383D01*
X6173417Y3700259D01*
X6193041Y3719883D01*
X6206917Y3743917D01*
X6214100Y3770724D01*
Y3798476D01*
X6206917Y3825283D01*
X6193041Y3849317D01*
X6173417Y3868941D01*
X6149383Y3882817D01*
X6122576Y3890000D01*
D02*
G37*
G36*
X1432560Y5296667D02*
X1415339Y5294400D01*
X1345160D01*
Y5224221D01*
X1342893Y5207000D01*
Y4334697D01*
X1345948Y4311489D01*
X1354906Y4289863D01*
X1369156Y4271293D01*
X1495293Y4145156D01*
Y3460520D01*
X1449781D01*
X1432560Y3462787D01*
X1240022D01*
X669000Y4033809D01*
Y4044393D01*
X795904Y4171297D01*
X810154Y4189868D01*
X819112Y4211494D01*
X822167Y4234701D01*
Y4635666D01*
X819112Y4658874D01*
X810154Y4680500D01*
X795904Y4699070D01*
X715271Y4779704D01*
X696700Y4793954D01*
X675074Y4802911D01*
X651867Y4805967D01*
X440333D01*
X417126Y4802911D01*
X395500Y4793954D01*
X376929Y4779704D01*
X143896Y4546670D01*
X129646Y4528100D01*
X120688Y4506474D01*
X117633Y4483266D01*
Y1098260D01*
X120688Y1075053D01*
X129646Y1053427D01*
X143896Y1034856D01*
X418060Y760691D01*
Y712700D01*
X488239D01*
X505460Y710433D01*
X1828835D01*
X2441372Y97896D01*
X2459943Y83646D01*
X2481569Y74688D01*
X2504776Y71633D01*
X5478599D01*
X5501807Y74688D01*
X5523433Y83646D01*
X5542004Y97896D01*
X6007008Y562900D01*
X6019280D01*
X6050537Y571275D01*
X6078562Y587456D01*
X6101444Y610338D01*
X6117624Y638362D01*
X6125999Y669620D01*
Y701980D01*
X6117624Y733238D01*
X6101444Y761262D01*
X6078562Y784144D01*
X6050537Y800325D01*
X6019280Y808700D01*
X5986919D01*
X5955662Y800325D01*
X5927637Y784144D01*
X5904755Y761262D01*
X5888575Y733238D01*
X5880200Y701980D01*
Y689709D01*
X5441458Y250967D01*
X3879369D01*
X3871698Y263667D01*
X3875617Y273127D01*
X3877864Y290200D01*
Y317500D01*
X3771900D01*
Y330200D01*
X3759200D01*
Y436164D01*
X3758974D01*
X3754114Y447898D01*
X4382314Y1076098D01*
X4577661D01*
X4600868Y1079153D01*
X4622494Y1088111D01*
X4641065Y1102361D01*
X5599104Y2060400D01*
X5613354Y2078971D01*
X5622312Y2100597D01*
X5625367Y2123804D01*
Y3936459D01*
X5990600Y4301692D01*
X6003300Y4296431D01*
Y4278724D01*
X6010483Y4251917D01*
X6024359Y4227883D01*
X6043983Y4208259D01*
X6068017Y4194383D01*
X6094824Y4187200D01*
X6122576D01*
X6149383Y4194383D01*
X6173417Y4208259D01*
X6193041Y4227883D01*
X6206917Y4251917D01*
X6214100Y4278724D01*
Y4306476D01*
X6206917Y4333283D01*
X6193041Y4357317D01*
X6173417Y4376941D01*
X6149383Y4390817D01*
X6122576Y4398000D01*
X6104869D01*
X6099608Y4410700D01*
X6132866Y4443957D01*
X6149383Y4448383D01*
X6173417Y4462259D01*
X6193041Y4481883D01*
X6206917Y4505917D01*
X6214100Y4532724D01*
Y4560476D01*
X6206917Y4587283D01*
X6193041Y4611317D01*
X6173417Y4630941D01*
X6149383Y4644817D01*
X6122576Y4652000D01*
X6094824D01*
X6068017Y4644817D01*
X6043983Y4630941D01*
X6024359Y4611317D01*
X6010483Y4587283D01*
X6006057Y4570766D01*
X5472296Y4037004D01*
X5458046Y4018434D01*
X5449088Y3996808D01*
X5446033Y3973600D01*
Y3460520D01*
X5397500D01*
Y3373120D01*
Y3285720D01*
X5446033D01*
Y2160946D01*
X5346533Y2061446D01*
X5334800Y2066306D01*
Y2071605D01*
X5327447Y2099048D01*
X5313241Y2123652D01*
X5308413Y2128480D01*
X5306241Y2144982D01*
X5297283Y2166608D01*
X5283033Y2185179D01*
X4618428Y2849784D01*
X4599857Y2864034D01*
X4578231Y2872992D01*
X4555024Y2876047D01*
X2589343D01*
X2566136Y2872992D01*
X2544510Y2864034D01*
X2525939Y2849784D01*
X2399802Y2723647D01*
X1176213D01*
X1171352Y2735380D01*
X1648364Y3212392D01*
X1662614Y3230963D01*
X1671572Y3252589D01*
X1674627Y3275796D01*
Y4182297D01*
X1671572Y4205504D01*
X1662614Y4227130D01*
X1648364Y4245701D01*
X1522227Y4371838D01*
Y5207000D01*
X1519960Y5224221D01*
Y5294400D01*
X1449781D01*
X1432560Y5296667D01*
D02*
G37*
G36*
X6122576Y3636000D02*
X6094824D01*
X6068017Y3628817D01*
X6043983Y3614941D01*
X6024359Y3595317D01*
X6010483Y3571283D01*
X6003300Y3544476D01*
Y3516724D01*
X6010483Y3489917D01*
X6024359Y3465883D01*
X6043983Y3446259D01*
X6068017Y3432383D01*
X6094824Y3425200D01*
X6122576D01*
X6149383Y3432383D01*
X6173417Y3446259D01*
X6193041Y3465883D01*
X6206917Y3489917D01*
X6214100Y3516724D01*
Y3544476D01*
X6206917Y3571283D01*
X6193041Y3595317D01*
X6173417Y3614941D01*
X6149383Y3628817D01*
X6122576Y3636000D01*
D02*
G37*
G36*
X5372100Y3460520D02*
X5297400D01*
Y3385820D01*
X5372100D01*
Y3460520D01*
D02*
G37*
G36*
Y3360420D02*
X5297400D01*
Y3285720D01*
X5372100D01*
Y3360420D01*
D02*
G37*
G36*
X6122576Y3382000D02*
X6094824D01*
X6068017Y3374817D01*
X6043983Y3360941D01*
X6024359Y3341317D01*
X6010483Y3317283D01*
X6003300Y3290476D01*
Y3262724D01*
X6010483Y3235917D01*
X6024359Y3211883D01*
X6043983Y3192259D01*
X6068017Y3178383D01*
X6094824Y3171200D01*
X6122576D01*
X6149383Y3178383D01*
X6173417Y3192259D01*
X6193041Y3211883D01*
X6206917Y3235917D01*
X6214100Y3262724D01*
Y3290476D01*
X6206917Y3317283D01*
X6193041Y3341317D01*
X6173417Y3360941D01*
X6149383Y3374817D01*
X6122576Y3382000D01*
D02*
G37*
G36*
Y3128000D02*
X6121400D01*
Y3035300D01*
X6214100D01*
Y3036476D01*
X6206917Y3063283D01*
X6193041Y3087317D01*
X6173417Y3106941D01*
X6149383Y3120817D01*
X6122576Y3128000D01*
D02*
G37*
G36*
X6096000D02*
X6094824D01*
X6068017Y3120817D01*
X6043983Y3106941D01*
X6024359Y3087317D01*
X6010483Y3063283D01*
X6003300Y3036476D01*
Y3035300D01*
X6096000D01*
Y3128000D01*
D02*
G37*
G36*
X6214100Y3009900D02*
X6121400D01*
Y2917200D01*
X6122576D01*
X6149383Y2924383D01*
X6173417Y2938259D01*
X6193041Y2957883D01*
X6206917Y2981917D01*
X6214100Y3008724D01*
Y3009900D01*
D02*
G37*
G36*
X6096000D02*
X6003300D01*
Y3008724D01*
X6010483Y2981917D01*
X6024359Y2957883D01*
X6043983Y2938259D01*
X6068017Y2924383D01*
X6094824Y2917200D01*
X6096000D01*
Y3009900D01*
D02*
G37*
G36*
X4545100Y887500D02*
X4470400D01*
Y812800D01*
X4545100D01*
Y887500D01*
D02*
G37*
G36*
X4445000D02*
X4370300D01*
Y812800D01*
X4445000D01*
Y887500D01*
D02*
G37*
G36*
X4545100Y787400D02*
X4470400D01*
Y712700D01*
X4545100D01*
Y787400D01*
D02*
G37*
G36*
X4445000D02*
X4370300D01*
Y712700D01*
X4445000D01*
Y787400D01*
D02*
G37*
G36*
X6234800Y2165300D02*
X6019000D01*
Y1949500D01*
X6037233D01*
Y1346741D01*
X5499832Y809340D01*
X5454351D01*
X5434993Y806791D01*
X5416956Y799320D01*
X5401466Y787434D01*
X5389581Y771945D01*
X5382109Y753907D01*
X5379561Y734550D01*
Y637050D01*
X5382109Y617693D01*
X5389581Y599655D01*
X5401466Y584166D01*
X5416956Y572280D01*
X5434993Y564809D01*
X5454351Y562260D01*
X5551850D01*
X5571208Y564809D01*
X5589245Y572280D01*
X5604735Y584166D01*
X5616620Y599655D01*
X5624092Y617693D01*
X5626640Y637050D01*
Y682531D01*
X6190304Y1246195D01*
X6204554Y1264766D01*
X6213512Y1286392D01*
X6216567Y1309599D01*
Y1949500D01*
X6234800D01*
Y2165300D01*
D02*
G37*
G36*
X3811900Y436164D02*
X3784600D01*
Y342900D01*
X3877864D01*
Y370200D01*
X3875617Y387273D01*
X3869027Y403182D01*
X3858544Y416844D01*
X3844882Y427327D01*
X3828973Y433917D01*
X3811900Y436164D01*
D02*
G37*
G36*
X348460Y477500D02*
X311940D01*
X276121Y470375D01*
X242380Y456399D01*
X212014Y436110D01*
X186190Y410286D01*
X165901Y379920D01*
X151925Y346179D01*
X144800Y310360D01*
Y273840D01*
X151925Y238021D01*
X165901Y204280D01*
X186190Y173914D01*
X212014Y148090D01*
X242380Y127801D01*
X276121Y113825D01*
X311940Y106700D01*
X348460D01*
X384279Y113825D01*
X418020Y127801D01*
X448386Y148090D01*
X474210Y173914D01*
X494499Y204280D01*
X508475Y238021D01*
X515600Y273840D01*
Y310360D01*
X508475Y346179D01*
X494499Y379920D01*
X474210Y410286D01*
X448386Y436110D01*
X418020Y456399D01*
X384279Y470375D01*
X348460Y477500D01*
D02*
G37*
%LPD*%
G36*
X422560Y4555124D02*
Y4481150D01*
X425109Y4461792D01*
X432580Y4443755D01*
X444466Y4428265D01*
X456433Y4419082D01*
Y4327837D01*
X417582Y4288986D01*
X405486Y4279705D01*
X308700Y4182919D01*
X296967Y4187779D01*
Y4446125D01*
X410827Y4559985D01*
X422560Y4555124D01*
D02*
G37*
G36*
X470638Y3931556D02*
X498662Y3915376D01*
X529920Y3907001D01*
X542191D01*
X1139476Y3309716D01*
X1158047Y3295466D01*
X1179673Y3286508D01*
X1202880Y3283453D01*
X1432560D01*
X1449781Y3285720D01*
X1451482D01*
X1456342Y3273987D01*
X906002Y2723647D01*
X542601D01*
X449367Y2816882D01*
Y3936233D01*
X461100Y3941093D01*
X470638Y3931556D01*
D02*
G37*
G36*
X5124070Y2090526D02*
X5119000Y2071605D01*
Y2043195D01*
X5126353Y2015752D01*
X5140558Y1991148D01*
X5160648Y1971059D01*
X5185252Y1956853D01*
X5212695Y1949500D01*
X5217994D01*
X5222854Y1937767D01*
X4540519Y1255432D01*
X4345172D01*
X4321965Y1252376D01*
X4300339Y1243419D01*
X4281768Y1229169D01*
X3482407Y429808D01*
X3477217Y428417D01*
X3453183Y414541D01*
X3433559Y394917D01*
X3419683Y370883D01*
X3412500Y344076D01*
Y316324D01*
X3419683Y289517D01*
X3433559Y265483D01*
X3436342Y262700D01*
X3431481Y250967D01*
X3350319D01*
X3345458Y262700D01*
X3348241Y265483D01*
X3362117Y289517D01*
X3369300Y316324D01*
Y344076D01*
X3362117Y370883D01*
X3353567Y385692D01*
Y1403039D01*
X4497109Y2546580D01*
X4545100D01*
Y2616759D01*
X4547367Y2633980D01*
X4545100Y2651201D01*
Y2652902D01*
X4556833Y2657762D01*
X5124070Y2090526D01*
D02*
G37*
G36*
X418060Y2594571D02*
Y2546580D01*
X488239D01*
X505460Y2544313D01*
X2436943D01*
X2460151Y2547368D01*
X2481777Y2556326D01*
X2500347Y2570576D01*
X2626484Y2696713D01*
X4370300D01*
Y2673389D01*
X3200496Y1503584D01*
X3186246Y1485014D01*
X3177288Y1463387D01*
X3174233Y1440180D01*
Y385692D01*
X3165683Y370883D01*
X3158500Y344076D01*
Y316324D01*
X3165683Y289517D01*
X3179559Y265483D01*
X3182342Y262700D01*
X3177481Y250967D01*
X2541918D01*
X1929380Y863504D01*
X1910810Y877754D01*
X1889184Y886712D01*
X1865976Y889767D01*
X542601D01*
X296967Y1135402D01*
Y2699071D01*
X308700Y2703931D01*
X418060Y2594571D01*
D02*
G37*
D10*
X2679700Y6350000D02*
Y6642100D01*
X3947787Y6616700D02*
X5041900D01*
X3833487Y6731000D02*
X3947787Y6616700D01*
X2768600Y6731000D02*
X3833487D01*
X2679700Y6642100D02*
X2768600Y6731000D01*
X2933700Y6350000D02*
X4229100Y5054600D01*
X6108700D01*
X749300Y6362700D02*
X2311400Y4800600D01*
X6108700D01*
X5535700Y2123804D02*
Y3973600D01*
X4577661Y1165765D02*
X5535700Y2123804D01*
Y3973600D02*
X6108700Y4546600D01*
X4345172Y1165765D02*
X4577661D01*
X3517900Y338492D02*
X4345172Y1165765D01*
X3517900Y330200D02*
Y338492D01*
X2589343Y2786380D02*
X4555024D01*
X2504776Y161300D02*
X5478599D01*
X4555024Y2786380D02*
X5219629Y2121775D01*
X2436943Y2633980D02*
X2589343Y2786380D01*
X5219629Y2064671D02*
X5226900Y2057400D01*
X5219629Y2064671D02*
Y2121775D01*
X5384800Y5207000D02*
Y6273800D01*
X5041900Y6616700D02*
X5384800Y6273800D01*
X5695950Y5207000D02*
X5797550Y5308600D01*
X5384800Y5207000D02*
X5695950D01*
X5797550Y5308600D02*
X6108700D01*
X2489170Y6531600D02*
X2670770Y6350000D01*
X1181130Y6531600D02*
X2489170D01*
X1012230Y6362700D02*
X1181130Y6531600D01*
X2670770Y6350000D02*
X2679700D01*
X1003300Y6362700D02*
X1012230D01*
X5478599Y161300D02*
X6003099Y685800D01*
X1865976Y800100D02*
X2504776Y161300D01*
X505460Y800100D02*
X1865976D01*
X5503100Y685800D02*
X6126900Y1309599D01*
Y2057400D01*
X943144Y2633980D02*
X2436943D01*
X505460D02*
X943144D01*
X1584960Y3275796D01*
Y4182297D01*
X1432560Y4334697D02*
X1584960Y4182297D01*
X1432560Y4334697D02*
Y5207000D01*
X207300Y1098260D02*
X505460Y800100D01*
X207300Y1098260D02*
Y4483266D01*
X651867Y4716300D02*
X732500Y4635666D01*
X440333Y4716300D02*
X651867D01*
X732500Y4234701D02*
Y4635666D01*
X546100Y4048301D02*
X732500Y4234701D01*
X546100Y4029901D02*
Y4048301D01*
X207300Y4483266D02*
X440333Y4716300D01*
X359700Y2779740D02*
Y4107110D01*
Y2779740D02*
X505460Y2633980D01*
X359700Y4107110D02*
X468891Y4216301D01*
X471705D01*
X546100Y4029901D02*
X1202880Y3373120D01*
X1432560D01*
X471705Y4216301D02*
X546100Y4290696D01*
Y4529899D01*
X3263900Y1440180D02*
X4457700Y2633980D01*
X3263900Y330200D02*
Y1440180D01*
D12*
X330200Y292100D02*
D03*
Y6781800D02*
D03*
X6121400D02*
D03*
D13*
X6108700Y3530600D02*
D03*
Y3784600D02*
D03*
Y4292600D02*
D03*
Y4800600D02*
D03*
Y5054600D02*
D03*
Y4546600D02*
D03*
Y4038600D02*
D03*
Y3276600D02*
D03*
Y3022600D02*
D03*
X3517900Y330200D02*
D03*
X3263900D02*
D03*
X2425700Y6350000D02*
D03*
X2679700D02*
D03*
X1257300Y6362700D02*
D03*
X1003300D02*
D03*
D14*
X6108700Y5308600D02*
D03*
D15*
X4457700Y800100D02*
D03*
X505460Y2633980D02*
D03*
Y800100D02*
D03*
X1432560Y5207000D02*
D03*
Y3373120D02*
D03*
X4457700Y2633980D02*
D03*
X5384800Y3373120D02*
D03*
Y5207000D02*
D03*
D16*
X6003099Y685800D02*
D03*
X546100Y4029901D02*
D03*
D17*
X5503100Y685800D02*
D03*
D18*
X546100Y4529899D02*
D03*
D19*
X3771900Y330200D02*
D03*
X2933700Y6350000D02*
D03*
X749300Y6362700D02*
D03*
D20*
X5041900Y6108700D02*
D03*
D21*
Y6616700D02*
D03*
D22*
X6126900Y2057400D02*
D03*
D23*
X5226900D02*
D03*
%TF.MD5,3fae6e9cebf66675340498b574946adb*%
M02*
