%TF.GenerationSoftware,Altium Limited,Altium Designer,24.10.1 (45)*%
G04 Layer_Color=0*
%FSLAX45Y45*%
%MOMM*%
%TF.SameCoordinates,1B4FBE81-C601-4199-8564-D531C79600A2*%
%TF.FilePolarity,Positive*%
%TF.FileFunction,Plated,1,2,PTH,Drill*%
%TF.Part,Single*%
G01*
G75*
%TA.AperFunction,ComponentDrill*%
%ADD43C,1.10000*%
%ADD44C,0.89000*%
%ADD45C,1.30000*%
%ADD46C,1.30000*%
%ADD47C,1.10000*%
%ADD48C,1.55000*%
%ADD49C,1.15000*%
D43*
X6108700Y3530600D02*
D03*
Y3784600D02*
D03*
Y4292600D02*
D03*
Y4800600D02*
D03*
Y5308600D02*
D03*
Y5054600D02*
D03*
Y4546600D02*
D03*
Y4038600D02*
D03*
Y3276600D02*
D03*
Y3022600D02*
D03*
D44*
X4457700Y800100D02*
D03*
X505460Y2633980D02*
D03*
Y800100D02*
D03*
X1432560Y5207000D02*
D03*
Y3373120D02*
D03*
X4457700Y2633980D02*
D03*
X5384800Y3373120D02*
D03*
Y5207000D02*
D03*
D45*
X5236400Y850900D02*
D03*
X5736399D02*
D03*
D46*
X546100Y4029901D02*
D03*
Y4529899D02*
D03*
D47*
X3771900Y330200D02*
D03*
X3517900D02*
D03*
X3263900D02*
D03*
X2425700Y6350000D02*
D03*
X2679700D02*
D03*
X2933700D02*
D03*
X1257300Y6362700D02*
D03*
X1003300D02*
D03*
X749300D02*
D03*
D48*
X5041900Y6108700D02*
D03*
Y6616700D02*
D03*
D49*
X6126900Y2057400D02*
D03*
X5226900D02*
D03*
%TF.MD5,cf613bb5e021505bb9ecc50494fc5072*%
M02*
