%TF.GenerationSoftware,Altium Limited,Altium Designer,24.10.1 (45)*%
G04 Layer_Physical_Order=2*
G04 Layer_Color=16711680*
%FSLAX45Y45*%
%MOMM*%
%TF.SameCoordinates,1B4FBE81-C601-4199-8564-D531C79600A2*%
%TF.FilePolarity,Positive*%
%TF.FileFunction,Copper,L2,Bot,Signal*%
%TF.Part,Single*%
G01*
G75*
%TA.AperFunction,Conductor*%
%ADD10C,1.27000*%
%TA.AperFunction,NonConductor*%
%ADD11C,0.25400*%
%TA.AperFunction,WasherPad*%
%ADD12C,1.52400*%
%TA.AperFunction,ComponentPad*%
%ADD13C,1.60000*%
G04:AMPARAMS|DCode=14|XSize=1.6mm|YSize=1.6mm|CornerRadius=0.4mm|HoleSize=0mm|Usage=FLASHONLY|Rotation=270.000|XOffset=0mm|YOffset=0mm|HoleType=Round|Shape=RoundedRectangle|*
%AMROUNDEDRECTD14*
21,1,1.60000,0.80000,0,0,270.0*
21,1,0.80000,1.60000,0,0,270.0*
1,1,0.80000,-0.40000,-0.40000*
1,1,0.80000,-0.40000,0.40000*
1,1,0.80000,0.40000,0.40000*
1,1,0.80000,0.40000,-0.40000*
%
%ADD14ROUNDEDRECTD14*%
%ADD15R,1.24000X1.24000*%
%ADD16C,1.95000*%
G04:AMPARAMS|DCode=17|XSize=1.95mm|YSize=1.95mm|CornerRadius=0.4875mm|HoleSize=0mm|Usage=FLASHONLY|Rotation=180.000|XOffset=0mm|YOffset=0mm|HoleType=Round|Shape=RoundedRectangle|*
%AMROUNDEDRECTD17*
21,1,1.95000,0.97500,0,0,180.0*
21,1,0.97500,1.95000,0,0,180.0*
1,1,0.97500,-0.48750,0.48750*
1,1,0.97500,0.48750,0.48750*
1,1,0.97500,0.48750,-0.48750*
1,1,0.97500,-0.48750,-0.48750*
%
%ADD17ROUNDEDRECTD17*%
G04:AMPARAMS|DCode=18|XSize=1.95mm|YSize=1.95mm|CornerRadius=0.4875mm|HoleSize=0mm|Usage=FLASHONLY|Rotation=270.000|XOffset=0mm|YOffset=0mm|HoleType=Round|Shape=RoundedRectangle|*
%AMROUNDEDRECTD18*
21,1,1.95000,0.97500,0,0,270.0*
21,1,0.97500,1.95000,0,0,270.0*
1,1,0.97500,-0.48750,-0.48750*
1,1,0.97500,-0.48750,0.48750*
1,1,0.97500,0.48750,0.48750*
1,1,0.97500,0.48750,-0.48750*
%
%ADD18ROUNDEDRECTD18*%
G04:AMPARAMS|DCode=19|XSize=1.6mm|YSize=1.6mm|CornerRadius=0.4mm|HoleSize=0mm|Usage=FLASHONLY|Rotation=180.000|XOffset=0mm|YOffset=0mm|HoleType=Round|Shape=RoundedRectangle|*
%AMROUNDEDRECTD19*
21,1,1.60000,0.80000,0,0,180.0*
21,1,0.80000,1.60000,0,0,180.0*
1,1,0.80000,-0.40000,0.40000*
1,1,0.80000,0.40000,0.40000*
1,1,0.80000,0.40000,-0.40000*
1,1,0.80000,-0.40000,-0.40000*
%
%ADD19ROUNDEDRECTD19*%
%ADD20R,2.35000X2.35000*%
%ADD21C,2.35000*%
%ADD22R,1.65000X1.65000*%
%ADD23C,1.65000*%
G36*
X6438900Y0D02*
X0D01*
Y7073900D01*
X6438900D01*
Y0D01*
D02*
G37*
%LPC*%
G36*
X6241260Y6967200D02*
X6204740D01*
X6168921Y6960075D01*
X6135180Y6946099D01*
X6104814Y6925810D01*
X6078990Y6899986D01*
X6058701Y6869620D01*
X6044725Y6835879D01*
X6037600Y6800060D01*
Y6763540D01*
X6044725Y6727721D01*
X6058701Y6693980D01*
X6078990Y6663614D01*
X6104814Y6637790D01*
X6135180Y6617501D01*
X6168921Y6603525D01*
X6204740Y6596400D01*
X6241260D01*
X6277079Y6603525D01*
X6310820Y6617501D01*
X6341186Y6637790D01*
X6367010Y6663614D01*
X6387299Y6693980D01*
X6401275Y6727721D01*
X6408400Y6763540D01*
Y6800060D01*
X6401275Y6835879D01*
X6387299Y6869620D01*
X6367010Y6899986D01*
X6341186Y6925810D01*
X6310820Y6946099D01*
X6277079Y6960075D01*
X6241260Y6967200D01*
D02*
G37*
G36*
X348460D02*
X311940D01*
X276121Y6960075D01*
X242380Y6946099D01*
X212014Y6925810D01*
X186190Y6899986D01*
X165901Y6869620D01*
X151925Y6835879D01*
X144800Y6800060D01*
Y6763540D01*
X151925Y6727721D01*
X165901Y6693980D01*
X186190Y6663614D01*
X212014Y6637790D01*
X242380Y6617501D01*
X276121Y6603525D01*
X311940Y6596400D01*
X348460D01*
X384279Y6603525D01*
X418020Y6617501D01*
X448386Y6637790D01*
X474210Y6663614D01*
X494499Y6693980D01*
X508475Y6727721D01*
X515600Y6763540D01*
Y6800060D01*
X508475Y6835879D01*
X494499Y6869620D01*
X474210Y6899986D01*
X448386Y6925810D01*
X418020Y6946099D01*
X384279Y6960075D01*
X348460Y6967200D01*
D02*
G37*
G36*
X5060713Y6759600D02*
X5023087D01*
X4986743Y6749862D01*
X4954157Y6731049D01*
X4927551Y6704443D01*
X4908738Y6671857D01*
X4899000Y6635513D01*
Y6597887D01*
X4908738Y6561543D01*
X4927551Y6528957D01*
X4954157Y6502351D01*
X4986743Y6483538D01*
X5023087Y6473800D01*
X5060713D01*
X5097057Y6483538D01*
X5129643Y6502351D01*
X5156249Y6528957D01*
X5175062Y6561543D01*
X5184800Y6597887D01*
Y6635513D01*
X5175062Y6671857D01*
X5156249Y6704443D01*
X5129643Y6731049D01*
X5097057Y6749862D01*
X5060713Y6759600D01*
D02*
G37*
G36*
X1271176Y6468100D02*
X1270000D01*
Y6375400D01*
X1362700D01*
Y6376576D01*
X1355517Y6403383D01*
X1341641Y6427417D01*
X1322017Y6447041D01*
X1297983Y6460917D01*
X1271176Y6468100D01*
D02*
G37*
G36*
X1244600D02*
X1243424D01*
X1216617Y6460917D01*
X1192583Y6447041D01*
X1172959Y6427417D01*
X1159083Y6403383D01*
X1151900Y6376576D01*
Y6375400D01*
X1244600D01*
Y6468100D01*
D02*
G37*
G36*
X2439576Y6455400D02*
X2438400D01*
Y6362700D01*
X2531100D01*
Y6363876D01*
X2523917Y6390683D01*
X2510041Y6414717D01*
X2490417Y6434341D01*
X2466383Y6448217D01*
X2439576Y6455400D01*
D02*
G37*
G36*
X2413000D02*
X2411824D01*
X2385017Y6448217D01*
X2360983Y6434341D01*
X2341359Y6414717D01*
X2327483Y6390683D01*
X2320300Y6363876D01*
Y6362700D01*
X2413000D01*
Y6455400D01*
D02*
G37*
G36*
X1362700Y6350000D02*
X1270000D01*
Y6257300D01*
X1271176D01*
X1297983Y6264483D01*
X1322017Y6278359D01*
X1341641Y6297983D01*
X1355517Y6322017D01*
X1362700Y6348824D01*
Y6350000D01*
D02*
G37*
G36*
X1244600D02*
X1151900D01*
Y6348824D01*
X1159083Y6322017D01*
X1172959Y6297983D01*
X1192583Y6278359D01*
X1216617Y6264483D01*
X1243424Y6257300D01*
X1244600D01*
Y6350000D01*
D02*
G37*
G36*
X1017176Y6468100D02*
X989424D01*
X962617Y6460917D01*
X938583Y6447041D01*
X918959Y6427417D01*
X905083Y6403383D01*
X897900Y6376576D01*
Y6348824D01*
X905083Y6322017D01*
X918959Y6297983D01*
X938583Y6278359D01*
X962617Y6264483D01*
X989424Y6257300D01*
X1017176D01*
X1043983Y6264483D01*
X1068017Y6278359D01*
X1087641Y6297983D01*
X1101517Y6322017D01*
X1108700Y6348824D01*
Y6376576D01*
X1101517Y6403383D01*
X1087641Y6427417D01*
X1068017Y6447041D01*
X1043983Y6460917D01*
X1017176Y6468100D01*
D02*
G37*
G36*
X789300Y6468664D02*
X709300D01*
X692227Y6466417D01*
X676318Y6459827D01*
X662656Y6449344D01*
X652173Y6435682D01*
X645583Y6419773D01*
X643336Y6402700D01*
Y6322700D01*
X645583Y6305627D01*
X652173Y6289718D01*
X662656Y6276056D01*
X676318Y6265573D01*
X692227Y6258983D01*
X709300Y6256736D01*
X789300D01*
X806373Y6258983D01*
X822282Y6265573D01*
X835944Y6276056D01*
X846427Y6289718D01*
X853017Y6305627D01*
X855264Y6322700D01*
Y6402700D01*
X853017Y6419773D01*
X846427Y6435682D01*
X835944Y6449344D01*
X822282Y6459827D01*
X806373Y6466417D01*
X789300Y6468664D01*
D02*
G37*
G36*
X2693576Y6455400D02*
X2665824D01*
X2639017Y6448217D01*
X2614983Y6434341D01*
X2595359Y6414717D01*
X2581483Y6390683D01*
X2574300Y6363876D01*
Y6336124D01*
X2581483Y6309317D01*
X2595359Y6285283D01*
X2614983Y6265659D01*
X2639017Y6251783D01*
X2665824Y6244600D01*
X2693576D01*
X2720383Y6251783D01*
X2744417Y6265659D01*
X2764041Y6285283D01*
X2777917Y6309317D01*
X2785100Y6336124D01*
Y6363876D01*
X2777917Y6390683D01*
X2764041Y6414717D01*
X2744417Y6434341D01*
X2720383Y6448217D01*
X2693576Y6455400D01*
D02*
G37*
G36*
X2531100Y6337300D02*
X2438400D01*
Y6244600D01*
X2439576D01*
X2466383Y6251783D01*
X2490417Y6265659D01*
X2510041Y6285283D01*
X2523917Y6309317D01*
X2531100Y6336124D01*
Y6337300D01*
D02*
G37*
G36*
X2413000D02*
X2320300D01*
Y6336124D01*
X2327483Y6309317D01*
X2341359Y6285283D01*
X2360983Y6265659D01*
X2385017Y6251783D01*
X2411824Y6244600D01*
X2413000D01*
Y6337300D01*
D02*
G37*
G36*
X2973700Y6455964D02*
X2893700D01*
X2876627Y6453717D01*
X2860718Y6447127D01*
X2847056Y6436644D01*
X2836573Y6422982D01*
X2829983Y6407073D01*
X2827736Y6390000D01*
Y6310000D01*
X2829983Y6292927D01*
X2836573Y6277018D01*
X2847056Y6263356D01*
X2860718Y6252873D01*
X2876627Y6246283D01*
X2893700Y6244036D01*
X2973700D01*
X2990773Y6246283D01*
X3006682Y6252873D01*
X3020344Y6263356D01*
X3030827Y6277018D01*
X3037417Y6292927D01*
X3039664Y6310000D01*
Y6390000D01*
X3037417Y6407073D01*
X3030827Y6422982D01*
X3020344Y6436644D01*
X3006682Y6447127D01*
X2990773Y6453717D01*
X2973700Y6455964D01*
D02*
G37*
G36*
X5184800Y6251600D02*
X5054600D01*
Y6121400D01*
X5184800D01*
Y6251600D01*
D02*
G37*
G36*
X5029200D02*
X4899000D01*
Y6121400D01*
X5029200D01*
Y6251600D01*
D02*
G37*
G36*
X5184800Y6096000D02*
X5054600D01*
Y5965800D01*
X5184800D01*
Y6096000D01*
D02*
G37*
G36*
X5029200D02*
X4899000D01*
Y5965800D01*
X5029200D01*
Y6096000D01*
D02*
G37*
G36*
X6148700Y5414564D02*
X6068700D01*
X6051627Y5412317D01*
X6035718Y5405727D01*
X6022056Y5395244D01*
X6011573Y5381582D01*
X6004983Y5365673D01*
X6002736Y5348600D01*
Y5268600D01*
X6004983Y5251527D01*
X6011573Y5235618D01*
X6022056Y5221956D01*
X6035718Y5211473D01*
X6051627Y5204883D01*
X6068700Y5202636D01*
X6148700D01*
X6165773Y5204883D01*
X6181682Y5211473D01*
X6195344Y5221956D01*
X6205827Y5235618D01*
X6212417Y5251527D01*
X6214664Y5268600D01*
Y5348600D01*
X6212417Y5365673D01*
X6205827Y5381582D01*
X6195344Y5395244D01*
X6181682Y5405727D01*
X6165773Y5412317D01*
X6148700Y5414564D01*
D02*
G37*
G36*
X5472200Y5294400D02*
X5297400D01*
Y5119600D01*
X5472200D01*
Y5294400D01*
D02*
G37*
G36*
X1519960D02*
X1345160D01*
Y5119600D01*
X1519960D01*
Y5294400D01*
D02*
G37*
G36*
X6122576Y5160000D02*
X6094824D01*
X6068017Y5152817D01*
X6043983Y5138941D01*
X6024359Y5119317D01*
X6010483Y5095283D01*
X6003300Y5068476D01*
Y5040724D01*
X6010483Y5013917D01*
X6024359Y4989883D01*
X6043983Y4970259D01*
X6068017Y4956383D01*
X6094824Y4949200D01*
X6122576D01*
X6149383Y4956383D01*
X6173417Y4970259D01*
X6193041Y4989883D01*
X6206917Y5013917D01*
X6214100Y5040724D01*
Y5068476D01*
X6206917Y5095283D01*
X6193041Y5119317D01*
X6173417Y5138941D01*
X6149383Y5152817D01*
X6122576Y5160000D01*
D02*
G37*
G36*
Y4906000D02*
X6094824D01*
X6068017Y4898817D01*
X6043983Y4884941D01*
X6024359Y4865317D01*
X6010483Y4841283D01*
X6003300Y4814476D01*
Y4786724D01*
X6010483Y4759917D01*
X6024359Y4735883D01*
X6043983Y4716259D01*
X6068017Y4702383D01*
X6094824Y4695200D01*
X6122576D01*
X6149383Y4702383D01*
X6173417Y4716259D01*
X6193041Y4735883D01*
X6206917Y4759917D01*
X6214100Y4786724D01*
Y4814476D01*
X6206917Y4841283D01*
X6193041Y4865317D01*
X6173417Y4884941D01*
X6149383Y4898817D01*
X6122576Y4906000D01*
D02*
G37*
G36*
Y4652000D02*
X6094824D01*
X6068017Y4644817D01*
X6043983Y4630941D01*
X6024359Y4611317D01*
X6010483Y4587283D01*
X6003300Y4560476D01*
Y4532724D01*
X6010483Y4505917D01*
X6024359Y4481883D01*
X6043983Y4462259D01*
X6068017Y4448383D01*
X6094824Y4441200D01*
X6122576D01*
X6149383Y4448383D01*
X6173417Y4462259D01*
X6193041Y4481883D01*
X6206917Y4505917D01*
X6214100Y4532724D01*
Y4560476D01*
X6206917Y4587283D01*
X6193041Y4611317D01*
X6173417Y4630941D01*
X6149383Y4644817D01*
X6122576Y4652000D01*
D02*
G37*
G36*
X594850Y4653439D02*
X497350D01*
X477993Y4650891D01*
X459955Y4643419D01*
X444466Y4631534D01*
X432580Y4616044D01*
X425109Y4598007D01*
X422560Y4578649D01*
Y4481150D01*
X425109Y4461792D01*
X432580Y4443755D01*
X444466Y4428265D01*
X459955Y4416380D01*
X477993Y4408908D01*
X497350Y4406360D01*
X594850D01*
X614207Y4408908D01*
X632245Y4416380D01*
X647734Y4428265D01*
X659620Y4443755D01*
X667091Y4461792D01*
X669640Y4481150D01*
Y4578649D01*
X667091Y4598007D01*
X659620Y4616044D01*
X647734Y4631534D01*
X632245Y4643419D01*
X614207Y4650891D01*
X594850Y4653439D01*
D02*
G37*
G36*
X6122576Y4398000D02*
X6094824D01*
X6068017Y4390817D01*
X6043983Y4376941D01*
X6024359Y4357317D01*
X6010483Y4333283D01*
X6003300Y4306476D01*
Y4278724D01*
X6010483Y4251917D01*
X6024359Y4227883D01*
X6043983Y4208259D01*
X6068017Y4194383D01*
X6094824Y4187200D01*
X6122576D01*
X6149383Y4194383D01*
X6173417Y4208259D01*
X6193041Y4227883D01*
X6206917Y4251917D01*
X6214100Y4278724D01*
Y4306476D01*
X6206917Y4333283D01*
X6193041Y4357317D01*
X6173417Y4376941D01*
X6149383Y4390817D01*
X6122576Y4398000D01*
D02*
G37*
G36*
Y4144000D02*
X6094824D01*
X6068017Y4136817D01*
X6043983Y4122941D01*
X6024359Y4103317D01*
X6010483Y4079283D01*
X6003300Y4052476D01*
Y4024724D01*
X6010483Y3997917D01*
X6024359Y3973883D01*
X6043983Y3954259D01*
X6068017Y3940383D01*
X6094824Y3933200D01*
X6122576D01*
X6149383Y3940383D01*
X6173417Y3954259D01*
X6193041Y3973883D01*
X6206917Y3997917D01*
X6214100Y4024724D01*
Y4052476D01*
X6206917Y4079283D01*
X6193041Y4103317D01*
X6173417Y4122941D01*
X6149383Y4136817D01*
X6122576Y4144000D01*
D02*
G37*
G36*
Y3890000D02*
X6094824D01*
X6068017Y3882817D01*
X6043983Y3868941D01*
X6024359Y3849317D01*
X6010483Y3825283D01*
X6003300Y3798476D01*
Y3770724D01*
X6010483Y3743917D01*
X6024359Y3719883D01*
X6043983Y3700259D01*
X6068017Y3686383D01*
X6094824Y3679200D01*
X6122576D01*
X6149383Y3686383D01*
X6173417Y3700259D01*
X6193041Y3719883D01*
X6206917Y3743917D01*
X6214100Y3770724D01*
Y3798476D01*
X6206917Y3825283D01*
X6193041Y3849317D01*
X6173417Y3868941D01*
X6149383Y3882817D01*
X6122576Y3890000D01*
D02*
G37*
G36*
Y3636000D02*
X6094824D01*
X6068017Y3628817D01*
X6043983Y3614941D01*
X6024359Y3595317D01*
X6010483Y3571283D01*
X6003300Y3544476D01*
Y3516724D01*
X6010483Y3489917D01*
X6024359Y3465883D01*
X6043983Y3446259D01*
X6068017Y3432383D01*
X6094824Y3425200D01*
X6122576D01*
X6149383Y3432383D01*
X6173417Y3446259D01*
X6193041Y3465883D01*
X6206917Y3489917D01*
X6214100Y3516724D01*
Y3544476D01*
X6206917Y3571283D01*
X6193041Y3595317D01*
X6173417Y3614941D01*
X6149383Y3628817D01*
X6122576Y3636000D01*
D02*
G37*
G36*
X5472200Y3460520D02*
X5397500D01*
Y3385820D01*
X5472200D01*
Y3460520D01*
D02*
G37*
G36*
X5372100D02*
X5297400D01*
Y3385820D01*
X5372100D01*
Y3460520D01*
D02*
G37*
G36*
X5472200Y3360420D02*
X5397500D01*
Y3285720D01*
X5472200D01*
Y3360420D01*
D02*
G37*
G36*
X5372100D02*
X5297400D01*
Y3285720D01*
X5372100D01*
Y3360420D01*
D02*
G37*
G36*
X1519960Y3460520D02*
X1345160D01*
Y3285720D01*
X1519960D01*
Y3460520D01*
D02*
G37*
G36*
X4495800Y3505134D02*
X2159723D01*
Y3200400D01*
X4495800D01*
Y3505134D01*
D02*
G37*
G36*
X6122576Y3382000D02*
X6094824D01*
X6068017Y3374817D01*
X6043983Y3360941D01*
X6024359Y3341317D01*
X6010483Y3317283D01*
X6003300Y3290476D01*
Y3262724D01*
X6010483Y3235917D01*
X6024359Y3211883D01*
X6043983Y3192259D01*
X6068017Y3178383D01*
X6094824Y3171200D01*
X6122576D01*
X6149383Y3178383D01*
X6173417Y3192259D01*
X6193041Y3211883D01*
X6206917Y3235917D01*
X6214100Y3262724D01*
Y3290476D01*
X6206917Y3317283D01*
X6193041Y3341317D01*
X6173417Y3360941D01*
X6149383Y3374817D01*
X6122576Y3382000D01*
D02*
G37*
G36*
Y3128000D02*
X6121400D01*
Y3035300D01*
X6214100D01*
Y3036476D01*
X6206917Y3063283D01*
X6193041Y3087317D01*
X6173417Y3106941D01*
X6149383Y3120817D01*
X6122576Y3128000D01*
D02*
G37*
G36*
X6096000D02*
X6094824D01*
X6068017Y3120817D01*
X6043983Y3106941D01*
X6024359Y3087317D01*
X6010483Y3063283D01*
X6003300Y3036476D01*
Y3035300D01*
X6096000D01*
Y3128000D01*
D02*
G37*
G36*
X6214100Y3009900D02*
X6121400D01*
Y2917200D01*
X6122576D01*
X6149383Y2924383D01*
X6173417Y2938259D01*
X6193041Y2957883D01*
X6206917Y2981917D01*
X6214100Y3008724D01*
Y3009900D01*
D02*
G37*
G36*
X6096000D02*
X6003300D01*
Y3008724D01*
X6010483Y2981917D01*
X6024359Y2957883D01*
X6043983Y2938259D01*
X6068017Y2924383D01*
X6094824Y2917200D01*
X6096000D01*
Y3009900D01*
D02*
G37*
G36*
X6234800Y2165300D02*
X6019000D01*
Y1949500D01*
X6234800D01*
Y2165300D01*
D02*
G37*
G36*
X5241105D02*
X5212695D01*
X5185252Y2157947D01*
X5160648Y2143741D01*
X5140558Y2123652D01*
X5126353Y2099048D01*
X5119000Y2071605D01*
Y2043195D01*
X5126353Y2015752D01*
X5140558Y1991148D01*
X5160648Y1971059D01*
X5185252Y1956853D01*
X5212695Y1949500D01*
X5241105D01*
X5268548Y1956853D01*
X5293152Y1971059D01*
X5313241Y1991148D01*
X5327447Y2015752D01*
X5334800Y2043195D01*
Y2071605D01*
X5327447Y2099048D01*
X5313241Y2123652D01*
X5293152Y2143741D01*
X5268548Y2157947D01*
X5241105Y2165300D01*
D02*
G37*
G36*
X4545100Y887500D02*
X4470400D01*
Y812800D01*
X4545100D01*
Y887500D01*
D02*
G37*
G36*
X4445000D02*
X4370300D01*
Y812800D01*
X4445000D01*
Y887500D01*
D02*
G37*
G36*
X5252581Y973800D02*
X5220220D01*
X5188963Y965425D01*
X5160938Y949244D01*
X5138056Y926362D01*
X5121876Y898338D01*
X5113501Y867080D01*
Y834720D01*
X5121876Y803462D01*
X5138056Y775438D01*
X5160938Y752556D01*
X5188963Y736375D01*
X5220220Y728000D01*
X5252581D01*
X5283838Y736375D01*
X5311863Y752556D01*
X5334745Y775438D01*
X5350925Y803462D01*
X5359300Y834720D01*
Y867080D01*
X5350925Y898338D01*
X5334745Y926362D01*
X5311863Y949244D01*
X5283838Y965425D01*
X5252581Y973800D01*
D02*
G37*
G36*
X5785149Y974440D02*
X5687650D01*
X5668292Y971891D01*
X5650255Y964420D01*
X5634765Y952534D01*
X5622880Y937045D01*
X5615408Y919007D01*
X5612860Y899650D01*
Y802150D01*
X5615408Y782793D01*
X5622880Y764755D01*
X5634765Y749266D01*
X5650255Y737380D01*
X5668292Y729909D01*
X5687650Y727360D01*
X5785149D01*
X5804507Y729909D01*
X5822544Y737380D01*
X5838034Y749266D01*
X5849919Y764755D01*
X5857391Y782793D01*
X5859939Y802150D01*
Y899650D01*
X5857391Y919007D01*
X5849919Y937045D01*
X5838034Y952534D01*
X5822544Y964420D01*
X5804507Y971891D01*
X5785149Y974440D01*
D02*
G37*
G36*
X4545100Y787400D02*
X4470400D01*
Y712700D01*
X4545100D01*
Y787400D01*
D02*
G37*
G36*
X4445000D02*
X4370300D01*
Y712700D01*
X4445000D01*
Y787400D01*
D02*
G37*
G36*
X562280Y4152800D02*
X529920D01*
X498662Y4144425D01*
X470638Y4128245D01*
X447756Y4105363D01*
X431575Y4077338D01*
X423200Y4046081D01*
Y4013720D01*
X431575Y3982463D01*
X447756Y3954438D01*
X470638Y3931556D01*
X498662Y3915376D01*
X521547Y3909244D01*
X566693Y3864098D01*
Y2721380D01*
X418060D01*
Y2546580D01*
X566693D01*
Y1879043D01*
X442056Y1754406D01*
X427806Y1735835D01*
X418848Y1714209D01*
X415793Y1691002D01*
Y800100D01*
X418060Y782879D01*
Y712700D01*
X488239D01*
X505460Y710433D01*
X522681Y712700D01*
X592860D01*
Y782879D01*
X595127Y800100D01*
Y1653860D01*
X719764Y1778498D01*
X734014Y1797068D01*
X742972Y1818694D01*
X746027Y1841902D01*
Y3901240D01*
X742972Y3924447D01*
X734014Y3946073D01*
X719764Y3964644D01*
X669000Y4015408D01*
Y4046081D01*
X660625Y4077338D01*
X644444Y4105363D01*
X621562Y4128245D01*
X593538Y4144425D01*
X562280Y4152800D01*
D02*
G37*
G36*
X3811900Y436164D02*
X3784600D01*
Y342900D01*
X3877864D01*
Y370200D01*
X3875617Y387273D01*
X3869027Y403182D01*
X3858544Y416844D01*
X3844882Y427327D01*
X3828973Y433917D01*
X3811900Y436164D01*
D02*
G37*
G36*
X3759200D02*
X3731900D01*
X3714827Y433917D01*
X3698918Y427327D01*
X3685256Y416844D01*
X3674773Y403182D01*
X3668183Y387273D01*
X3665936Y370200D01*
Y342900D01*
X3759200D01*
Y436164D01*
D02*
G37*
G36*
X3531776Y435600D02*
X3504024D01*
X3477217Y428417D01*
X3453183Y414541D01*
X3433559Y394917D01*
X3419683Y370883D01*
X3412500Y344076D01*
Y316324D01*
X3419683Y289517D01*
X3433559Y265483D01*
X3453183Y245859D01*
X3477217Y231983D01*
X3504024Y224800D01*
X3531776D01*
X3558583Y231983D01*
X3582617Y245859D01*
X3602241Y265483D01*
X3616117Y289517D01*
X3623300Y316324D01*
Y344076D01*
X3616117Y370883D01*
X3602241Y394917D01*
X3582617Y414541D01*
X3558583Y428417D01*
X3531776Y435600D01*
D02*
G37*
G36*
X4457700Y2723647D02*
X4440479Y2721380D01*
X4370300D01*
Y2673389D01*
X3200496Y1503584D01*
X3186246Y1485014D01*
X3177288Y1463387D01*
X3174233Y1440180D01*
Y385692D01*
X3165683Y370883D01*
X3158500Y344076D01*
Y316324D01*
X3165683Y289517D01*
X3179559Y265483D01*
X3199183Y245859D01*
X3223217Y231983D01*
X3250024Y224800D01*
X3277776D01*
X3304583Y231983D01*
X3328617Y245859D01*
X3348241Y265483D01*
X3362117Y289517D01*
X3369300Y316324D01*
Y344076D01*
X3362117Y370883D01*
X3353567Y385692D01*
Y1403039D01*
X4497109Y2546580D01*
X4545100D01*
Y2616759D01*
X4547367Y2633980D01*
X4545100Y2651201D01*
Y2721380D01*
X4474921D01*
X4457700Y2723647D01*
D02*
G37*
G36*
X3877864Y317500D02*
X3784600D01*
Y224236D01*
X3811900D01*
X3828973Y226483D01*
X3844882Y233073D01*
X3858544Y243556D01*
X3869027Y257218D01*
X3875617Y273127D01*
X3877864Y290200D01*
Y317500D01*
D02*
G37*
G36*
X3759200D02*
X3665936D01*
Y290200D01*
X3668183Y273127D01*
X3674773Y257218D01*
X3685256Y243556D01*
X3698918Y233073D01*
X3714827Y226483D01*
X3731900Y224236D01*
X3759200D01*
Y317500D01*
D02*
G37*
G36*
X6241260Y464800D02*
X6204740D01*
X6168921Y457675D01*
X6135180Y443699D01*
X6104814Y423410D01*
X6078990Y397586D01*
X6058701Y367220D01*
X6044725Y333479D01*
X6037600Y297660D01*
Y261140D01*
X6044725Y225321D01*
X6058701Y191580D01*
X6078990Y161214D01*
X6104814Y135390D01*
X6135180Y115101D01*
X6168921Y101125D01*
X6204740Y94000D01*
X6241260D01*
X6277079Y101125D01*
X6310820Y115101D01*
X6341186Y135390D01*
X6367010Y161214D01*
X6387299Y191580D01*
X6401275Y225321D01*
X6408400Y261140D01*
Y297660D01*
X6401275Y333479D01*
X6387299Y367220D01*
X6367010Y397586D01*
X6341186Y423410D01*
X6310820Y443699D01*
X6277079Y457675D01*
X6241260Y464800D01*
D02*
G37*
G36*
X348460D02*
X311940D01*
X276121Y457675D01*
X242380Y443699D01*
X212014Y423410D01*
X186190Y397586D01*
X165901Y367220D01*
X151925Y333479D01*
X144800Y297660D01*
Y261140D01*
X151925Y225321D01*
X165901Y191580D01*
X186190Y161214D01*
X212014Y135390D01*
X242380Y115101D01*
X276121Y101125D01*
X311940Y94000D01*
X348460D01*
X384279Y101125D01*
X418020Y115101D01*
X448386Y135390D01*
X474210Y161214D01*
X494499Y191580D01*
X508475Y225321D01*
X515600Y261140D01*
Y297660D01*
X508475Y333479D01*
X494499Y367220D01*
X474210Y397586D01*
X448386Y423410D01*
X418020Y443699D01*
X384279Y457675D01*
X348460Y464800D01*
D02*
G37*
%LPD*%
D10*
X546100Y4011500D02*
X656360Y3901240D01*
Y1841902D02*
Y3901240D01*
X546100Y4011500D02*
Y4029901D01*
X505460Y1691002D02*
X656360Y1841902D01*
X505460Y800100D02*
Y1691002D01*
X3263900Y1440180D02*
X4457700Y2633980D01*
X3263900Y330200D02*
Y1440180D01*
D11*
X4445000Y3454334D02*
Y3301983D01*
X4394217Y3352767D01*
X4343433Y3301983D01*
Y3454334D01*
X4292649Y3301983D02*
X4241866D01*
X4267257D01*
Y3403551D01*
X4292649D01*
X4165690Y3301983D02*
Y3403551D01*
X4089515D01*
X4064123Y3378159D01*
Y3301983D01*
X3911772Y3454334D02*
Y3301983D01*
X3987948D01*
X4013340Y3327375D01*
Y3378159D01*
X3987948Y3403551D01*
X3911772D01*
X3607071Y3428942D02*
X3632463Y3454334D01*
X3683246D01*
X3708638Y3428942D01*
Y3403551D01*
X3683246Y3378159D01*
X3632463D01*
X3607071Y3352767D01*
Y3327375D01*
X3632463Y3301983D01*
X3683246D01*
X3708638Y3327375D01*
X3556288Y3251200D02*
Y3403551D01*
X3480112D01*
X3454720Y3378159D01*
Y3327375D01*
X3480112Y3301983D01*
X3556288D01*
X3403937D02*
X3353153D01*
X3378545D01*
Y3403551D01*
X3403937D01*
X3276978Y3301983D02*
Y3403551D01*
X3200803D01*
X3175411Y3378159D01*
Y3301983D01*
X2972277Y3454334D02*
Y3301983D01*
X2921493Y3352767D01*
X2870709Y3301983D01*
Y3454334D01*
X2819926Y3301983D02*
X2769142D01*
X2794534D01*
Y3403551D01*
X2819926D01*
X2692967Y3301983D02*
Y3403551D01*
X2616792D01*
X2591400Y3378159D01*
Y3301983D01*
X2388265Y3403551D02*
X2362874D01*
Y3378159D01*
X2388265D01*
Y3403551D01*
Y3327375D02*
X2362874D01*
Y3301983D01*
X2388265D01*
Y3327375D01*
X2261307Y3301983D02*
X2210523Y3352767D01*
Y3403551D01*
X2261307Y3454334D01*
D12*
X330200Y279400D02*
D03*
X6223000D02*
D03*
X330200Y6781800D02*
D03*
X6223000D02*
D03*
D13*
X6108700Y3530600D02*
D03*
Y3784600D02*
D03*
Y4292600D02*
D03*
Y4800600D02*
D03*
Y5054600D02*
D03*
Y4546600D02*
D03*
Y4038600D02*
D03*
Y3276600D02*
D03*
Y3022600D02*
D03*
X3517900Y330200D02*
D03*
X3263900D02*
D03*
X2425700Y6350000D02*
D03*
X2679700D02*
D03*
X1257300Y6362700D02*
D03*
X1003300D02*
D03*
D14*
X6108700Y5308600D02*
D03*
D15*
X4457700Y800100D02*
D03*
X505460Y2633980D02*
D03*
Y800100D02*
D03*
X1432560Y5207000D02*
D03*
Y3373120D02*
D03*
X4457700Y2633980D02*
D03*
X5384800Y3373120D02*
D03*
Y5207000D02*
D03*
D16*
X5236400Y850900D02*
D03*
X546100Y4029901D02*
D03*
D17*
X5736399Y850900D02*
D03*
D18*
X546100Y4529899D02*
D03*
D19*
X3771900Y330200D02*
D03*
X2933700Y6350000D02*
D03*
X749300Y6362700D02*
D03*
D20*
X5041900Y6108700D02*
D03*
D21*
Y6616700D02*
D03*
D22*
X6126900Y2057400D02*
D03*
D23*
X5226900D02*
D03*
%TF.MD5,6abffba8c1855b52e79419717a031519*%
M02*
