%TF.GenerationSoftware,Altium Limited,Altium Designer,24.10.1 (45)*%
G04 Layer_Physical_Order=1*
G04 Layer_Color=255*
%FSLAX45Y45*%
%MOMM*%
%TF.SameCoordinates,1B4FBE81-C601-4199-8564-D531C79600A2*%
%TF.FilePolarity,Positive*%
%TF.FileFunction,Copper,L1,Top,Signal*%
%TF.Part,Single*%
G01*
G75*
%TA.AperFunction,Conductor*%
%ADD10C,1.27000*%
%TA.AperFunction,NonConductor*%
%ADD11C,0.25400*%
%TA.AperFunction,WasherPad*%
%ADD12C,1.52400*%
%TA.AperFunction,ComponentPad*%
%ADD13C,1.60000*%
G04:AMPARAMS|DCode=14|XSize=1.6mm|YSize=1.6mm|CornerRadius=0.4mm|HoleSize=0mm|Usage=FLASHONLY|Rotation=270.000|XOffset=0mm|YOffset=0mm|HoleType=Round|Shape=RoundedRectangle|*
%AMROUNDEDRECTD14*
21,1,1.60000,0.80000,0,0,270.0*
21,1,0.80000,1.60000,0,0,270.0*
1,1,0.80000,-0.40000,-0.40000*
1,1,0.80000,-0.40000,0.40000*
1,1,0.80000,0.40000,0.40000*
1,1,0.80000,0.40000,-0.40000*
%
%ADD14ROUNDEDRECTD14*%
%ADD15R,1.24000X1.24000*%
%ADD16C,1.95000*%
G04:AMPARAMS|DCode=17|XSize=1.95mm|YSize=1.95mm|CornerRadius=0.4875mm|HoleSize=0mm|Usage=FLASHONLY|Rotation=180.000|XOffset=0mm|YOffset=0mm|HoleType=Round|Shape=RoundedRectangle|*
%AMROUNDEDRECTD17*
21,1,1.95000,0.97500,0,0,180.0*
21,1,0.97500,1.95000,0,0,180.0*
1,1,0.97500,-0.48750,0.48750*
1,1,0.97500,0.48750,0.48750*
1,1,0.97500,0.48750,-0.48750*
1,1,0.97500,-0.48750,-0.48750*
%
%ADD17ROUNDEDRECTD17*%
G04:AMPARAMS|DCode=18|XSize=1.95mm|YSize=1.95mm|CornerRadius=0.4875mm|HoleSize=0mm|Usage=FLASHONLY|Rotation=270.000|XOffset=0mm|YOffset=0mm|HoleType=Round|Shape=RoundedRectangle|*
%AMROUNDEDRECTD18*
21,1,1.95000,0.97500,0,0,270.0*
21,1,0.97500,1.95000,0,0,270.0*
1,1,0.97500,-0.48750,-0.48750*
1,1,0.97500,-0.48750,0.48750*
1,1,0.97500,0.48750,0.48750*
1,1,0.97500,0.48750,-0.48750*
%
%ADD18ROUNDEDRECTD18*%
G04:AMPARAMS|DCode=19|XSize=1.6mm|YSize=1.6mm|CornerRadius=0.4mm|HoleSize=0mm|Usage=FLASHONLY|Rotation=180.000|XOffset=0mm|YOffset=0mm|HoleType=Round|Shape=RoundedRectangle|*
%AMROUNDEDRECTD19*
21,1,1.60000,0.80000,0,0,180.0*
21,1,0.80000,1.60000,0,0,180.0*
1,1,0.80000,-0.40000,0.40000*
1,1,0.80000,0.40000,0.40000*
1,1,0.80000,0.40000,-0.40000*
1,1,0.80000,-0.40000,-0.40000*
%
%ADD19ROUNDEDRECTD19*%
%ADD20R,2.35000X2.35000*%
%ADD21C,2.35000*%
%ADD22R,1.65000X1.65000*%
%ADD23C,1.65000*%
D10*
X6108700Y4543255D02*
X6298300Y4353655D01*
Y717391D02*
Y4353655D01*
X3678508Y161300D02*
X5742209D01*
X6298300Y717391D01*
X6126900Y1241400D02*
Y2057400D01*
X5736399Y850900D02*
X6126900Y1241400D01*
X3207514Y499400D02*
X4884900D01*
X5236400Y850900D01*
X2933700Y6350000D02*
X4229100Y5054600D01*
X6108700D01*
Y4543255D02*
Y4546600D01*
X3517900Y321908D02*
X3678508Y161300D01*
X3517900Y321908D02*
Y330200D01*
X2311400Y4800600D02*
X6108700D01*
X749300Y6362700D02*
X2311400Y4800600D01*
X5695950Y5207000D02*
X5797550Y5308600D01*
X6108700D01*
X5384800Y5207000D02*
X5695950D01*
X5384800D02*
Y6273800D01*
X5041900Y6616700D02*
X5384800Y6273800D01*
X2938108Y6616700D02*
X5041900D01*
X2679700Y6350000D02*
Y6358292D01*
X2938108Y6616700D01*
X2670770Y6350000D02*
X2679700D01*
X2489170Y6531600D02*
X2670770Y6350000D01*
X1181130Y6531600D02*
X2489170D01*
X1012230Y6362700D02*
X1181130Y6531600D01*
X1003300Y6362700D02*
X1012230D01*
X2906814Y800100D02*
X3207514Y499400D01*
X505460Y800100D02*
X2906814D01*
X359700Y4107110D02*
X468891Y4216301D01*
X359700Y2779740D02*
Y4107110D01*
Y2779740D02*
X505460Y2633980D01*
X546100Y4290696D02*
Y4529899D01*
X471705Y4216301D02*
X546100Y4290696D01*
X468891Y4216301D02*
X471705D01*
X546100Y4529899D02*
X1223200Y5207000D01*
X1432560D01*
X1202880Y3373120D02*
X1432560D01*
X546100Y4029901D02*
X1202880Y3373120D01*
X1082040Y2057400D02*
X5226900D01*
X505460Y2633980D02*
X1082040Y2057400D01*
D11*
X139700Y3683000D02*
X241267D01*
X5740400Y1650983D02*
X5841967D01*
X5791183Y1701767D02*
Y1600200D01*
X5168900Y1612900D02*
X5270467D01*
X139700Y5219683D02*
X241267D01*
X190483Y5270467D02*
Y5168900D01*
X3111467Y4368751D02*
X3060683Y4343359D01*
X3009900Y4292575D01*
Y4241792D01*
X3035292Y4216400D01*
X3086075D01*
X3111467Y4241792D01*
Y4267183D01*
X3086075Y4292575D01*
X3009900D01*
X3162251Y4368751D02*
Y4267183D01*
X3213034Y4216400D01*
X3263818Y4267183D01*
Y4368751D01*
X2222467Y1727151D02*
X2120900D01*
Y1650975D01*
X2171683Y1676367D01*
X2197075D01*
X2222467Y1650975D01*
Y1600192D01*
X2197075Y1574800D01*
X2146292D01*
X2120900Y1600192D01*
X2273251Y1727151D02*
Y1625583D01*
X2324034Y1574800D01*
X2374818Y1625583D01*
Y1727151D01*
D12*
X330200Y279400D02*
D03*
X6223000D02*
D03*
X330200Y6781800D02*
D03*
X6223000D02*
D03*
D13*
X6108700Y3530600D02*
D03*
Y3784600D02*
D03*
Y4292600D02*
D03*
Y4800600D02*
D03*
Y5054600D02*
D03*
Y4546600D02*
D03*
Y4038600D02*
D03*
Y3276600D02*
D03*
Y3022600D02*
D03*
X3517900Y330200D02*
D03*
X3263900D02*
D03*
X2425700Y6350000D02*
D03*
X2679700D02*
D03*
X1257300Y6362700D02*
D03*
X1003300D02*
D03*
D14*
X6108700Y5308600D02*
D03*
D15*
X4457700Y800100D02*
D03*
X505460Y2633980D02*
D03*
Y800100D02*
D03*
X1432560Y5207000D02*
D03*
Y3373120D02*
D03*
X4457700Y2633980D02*
D03*
X5384800Y3373120D02*
D03*
Y5207000D02*
D03*
D16*
X5236400Y850900D02*
D03*
X546100Y4029901D02*
D03*
D17*
X5736399Y850900D02*
D03*
D18*
X546100Y4529899D02*
D03*
D19*
X3771900Y330200D02*
D03*
X2933700Y6350000D02*
D03*
X749300Y6362700D02*
D03*
D20*
X5041900Y6108700D02*
D03*
D21*
Y6616700D02*
D03*
D22*
X6126900Y2057400D02*
D03*
D23*
X5226900D02*
D03*
%TF.MD5,6db61f03b83f2dd56373bcb2e5f9c080*%
M02*
